<svg xmlns="http://www.w3.org/2000/svg" viewBox="0 0 38 38"><path d="M37.5812 17.3231C37.54 17.2794 37.4881 17.2519 37.4375 17.2219V14.625C37.4375 13.2463 36.3162 12.125 34.9375 12.125H33.6875C32.6537 12.125 31.8125 12.9663 31.8125 14V15.25C31.8125 16.065 32.335 16.76 33.0625 17.0181V17.2206C32.8981 17.3175 32.7763 17.48 32.7537 17.6813L32.1781 22.8619L27.0569 24H22.125V23.6738C23.6313 22.6631 24.625 20.9456 24.625 19V18.3119C26.0494 18.0213 27.125 16.7594 27.125 15.25C27.125 14.57 26.7575 13.9794 26.215 13.6506C26.3975 13.1625 26.5 12.6475 26.5 12.125C26.5 9.36813 24.2569 7.125 21.5 7.125H16.5C13.7431 7.125 11.5 9.36813 11.5 12.125C11.5 12.6475 11.6025 13.1625 11.785 13.6506C11.2425 13.9794 10.875 14.57 10.875 15.25C10.875 16.7588 11.9506 18.0213 13.375 18.3119V19C13.375 20.9456 14.3687 22.6638 15.875 23.6738V24.625C15.875 26.3481 17.2769 27.75 19 27.75C20.5087 27.75 21.7712 26.6744 22.0619 25.25H27.125C27.1706 25.25 27.2162 25.245 27.2606 25.235L32.8856 23.985C33.1469 23.9269 33.3412 23.71 33.3713 23.4438L33.935 18.375H36.4575L36.045 24.5719C35.9619 25.8413 35.1256 26.9225 33.9144 27.3263L32.4206 27.8263C32.0938 27.9356 31.9163 28.29 32.0262 28.6175C32.1137 28.8788 32.3575 29.0444 32.6188 29.0444C32.6844 29.0444 32.7512 29.0338 32.8169 29.0119L34.31 28.5125C36.005 27.9475 37.1756 26.4331 37.2919 24.655L37.7481 17.7925C37.7606 17.6188 37.6994 17.4494 37.5812 17.3231ZM24.625 17.0181V14.625H25.25C25.595 14.625 25.875 14.9056 25.875 15.25C25.875 16.065 25.3525 16.76 24.625 17.0181ZM12.125 15.25C12.125 14.9056 12.405 14.625 12.75 14.625H13.375V17.0181C12.6475 16.76 12.125 16.065 12.125 15.25ZM14.625 19V14.5775C15.6519 14.4213 16.5837 13.8831 17.2337 13.0631C18.4806 14.075 20.0238 14.625 21.6513 14.625C21.9969 14.625 22.2763 14.345 22.2763 14C22.2763 13.655 21.9969 13.375 21.6513 13.375C20.1081 13.375 18.6581 12.7744 17.5669 11.6831C17.435 11.5512 17.2544 11.485 17.0631 11.5031C16.8769 11.5212 16.7087 11.6225 16.605 11.7781L16.395 12.0931C15.86 12.8956 14.9644 13.375 14 13.375H13.0169C12.8438 12.9806 12.75 12.555 12.75 12.125C12.75 10.0569 14.4319 8.375 16.5 8.375H21.5C23.5681 8.375 25.25 10.0569 25.25 12.125C25.25 12.555 25.1563 12.9806 24.9831 13.375H24C23.6544 13.375 23.375 13.655 23.375 14V19C23.375 21.4125 21.4119 23.375 19 23.375C16.5881 23.375 14.625 21.4125 14.625 19ZM19 26.5C17.9662 26.5 17.125 25.6588 17.125 24.625V24.2969C17.7125 24.5056 18.3419 24.625 19 24.625C19.6581 24.625 20.2875 24.5056 20.875 24.2969V24.625C20.875 25.6588 20.0337 26.5 19 26.5ZM34.3125 17.125V16.5C34.3125 16.155 34.0331 15.875 33.6875 15.875C33.3425 15.875 33.0625 15.5944 33.0625 15.25V14C33.0625 13.6556 33.3425 13.375 33.6875 13.375H34.9375C35.6269 13.375 36.1875 13.9356 36.1875 14.625V17.125H34.3125Z"/><path d="M30.0525 28.6131L26.9275 29.6569C26.6719 29.7425 26.5 29.9812 26.5 30.25V37.125C26.5 37.47 26.7794 37.75 27.125 37.75C27.4706 37.75 27.75 37.47 27.75 37.125V30.7L30.4475 29.7994C30.775 29.69 30.9519 29.3356 30.8425 29.0081C30.7338 28.6812 30.3787 28.5044 30.0525 28.6131Z"/><path d="M13.9144 24H11.1544L5.82132 22.8581L5.24632 17.6812C5.22382 17.4794 5.10132 17.3175 4.93757 17.2206V17.0181C5.66507 16.76 6.18757 16.065 6.18757 15.25V14C6.18757 12.9662 5.34632 12.125 4.31257 12.125H3.06257C1.68382 12.125 0.562567 13.2462 0.562567 14.625V17.2219C0.511942 17.2519 0.459442 17.2794 0.418817 17.3231C0.301317 17.4494 0.240067 17.6194 0.251317 17.7919L0.708817 24.655C0.827567 26.4356 1.99757 27.95 3.69069 28.5144L10.2501 30.7006V37.125C10.2501 37.47 10.5294 37.75 10.8751 37.75C11.2207 37.75 11.5001 37.47 11.5001 37.125V30.25C11.5001 29.9806 11.3282 29.7425 11.0726 29.6569L4.08632 27.3281C2.87694 26.925 2.04194 25.8431 1.95694 24.5713L1.54319 18.375H4.06507L4.62819 23.4438C4.65819 23.7113 4.85569 23.9294 5.11882 23.9862L10.9576 25.2362C11.0007 25.2456 11.0444 25.25 11.0888 25.25H13.9144C14.2601 25.25 14.5394 24.97 14.5394 24.625C14.5394 24.28 14.2601 24 13.9144 24ZM1.81257 17.125V14.625C1.81257 13.9356 2.37319 13.375 3.06257 13.375H4.31257C4.65757 13.375 4.93757 13.6556 4.93757 14V15.25C4.93757 15.5944 4.65757 15.875 4.31257 15.875C3.96694 15.875 3.68757 16.155 3.68757 16.5V17.125H1.81257Z"/><path d="M17.125 18.375C17.4702 18.375 17.75 18.0952 17.75 17.75C17.75 17.4048 17.4702 17.125 17.125 17.125C16.7798 17.125 16.5 17.4048 16.5 17.75C16.5 18.0952 16.7798 18.375 17.125 18.375Z"/><path d="M20.875 18.375C21.2202 18.375 21.5 18.0952 21.5 17.75C21.5 17.4048 21.2202 17.125 20.875 17.125C20.5298 17.125 20.25 17.4048 20.25 17.75C20.25 18.0952 20.5298 18.375 20.875 18.375Z"/><path d="M16.5344 16.3951C16.8931 16.1557 17.3569 16.1557 17.7162 16.3951C17.8225 16.4663 17.9431 16.5001 18.0619 16.5001C18.2637 16.5001 18.4625 16.4026 18.5825 16.222C18.7744 15.9351 18.6969 15.5463 18.4094 15.3551C17.6294 14.8351 16.6212 14.8351 15.8412 15.3551C15.5537 15.5463 15.4762 15.9345 15.6681 16.222C15.8587 16.5088 16.2456 16.587 16.5344 16.3951Z"/><path d="M20.2844 16.3951C20.6431 16.1557 21.1069 16.1557 21.4662 16.3951C21.5725 16.4663 21.6931 16.5001 21.8119 16.5001C22.0137 16.5001 22.2125 16.4026 22.3325 16.222C22.5244 15.9351 22.4469 15.5463 22.1594 15.3551C21.3794 14.8351 20.3712 14.8351 19.5912 15.3551C19.3037 15.5463 19.2262 15.9345 19.4181 16.222C19.6087 16.5088 19.9962 16.587 20.2844 16.3951Z"/><path d="M16.6833 19.8083C16.4389 20.0527 16.4389 20.4483 16.6833 20.692C17.322 21.3308 18.1608 21.6502 19.0002 21.6502C19.8395 21.6502 20.6783 21.3308 21.317 20.692C21.5614 20.4483 21.5614 20.0527 21.317 19.8083C21.0727 19.5639 20.6777 19.5639 20.4333 19.8083C19.6433 20.5983 18.357 20.5983 17.567 19.8083C17.3227 19.5639 16.9277 19.5639 16.6833 19.8083Z"/><path d="M26.5001 4.62507H27.7501V9.62507C27.7501 9.97007 28.0295 10.2501 28.3751 10.2501H32.1251C32.4707 10.2501 32.7501 9.97007 32.7501 9.62507V4.62507H34.0001C34.2632 4.62507 34.4982 4.46007 34.5876 4.21257C34.677 3.96507 34.602 3.68819 34.4001 3.52007L30.6501 0.395068C30.4182 0.201318 30.0814 0.201318 29.8495 0.395068L26.0995 3.52007C25.8976 3.68882 25.8226 3.96507 25.912 4.21257C26.0014 4.46007 26.237 4.62507 26.5001 4.62507ZM30.2501 1.68882L32.2739 3.37507H32.1251C31.7795 3.37507 31.5001 3.65507 31.5001 4.00007V9.00007H29.0001V4.00007C29.0001 3.65507 28.7207 3.37507 28.3751 3.37507H28.2264L30.2501 1.68882Z"/><path d="M4.00012 4.62507H5.25012V7.12507C5.25012 7.47007 5.52949 7.75007 5.87512 7.75007C6.22074 7.75007 6.50012 7.47007 6.50012 7.12507V4.00007C6.50012 3.65507 6.22074 3.37507 5.87512 3.37507H5.72637L7.75012 1.68882L9.77387 3.37507H9.62512C9.27949 3.37507 9.00012 3.65507 9.00012 4.00007V9.00007H5.87512C5.52949 9.00007 5.25012 9.28007 5.25012 9.62507C5.25012 9.97007 5.52949 10.2501 5.87512 10.2501H9.62512C9.97074 10.2501 10.2501 9.97007 10.2501 9.62507V4.62507H11.5001C11.7632 4.62507 11.9982 4.46007 12.0876 4.21257C12.177 3.96507 12.102 3.68819 11.9001 3.52007L8.15012 0.395068C7.91824 0.201318 7.58137 0.201318 7.34949 0.395068L3.59949 3.52007C3.39762 3.68882 3.32262 3.96507 3.41199 4.21257C3.50137 4.46007 3.73699 4.62507 4.00012 4.62507Z"/></svg>