<svg xmlns="http://www.w3.org/2000/svg" viewBox="0 0 30 36"><path d="M25.3634 16.2494H4.63651C4.24984 16.2494 3.93628 16.5629 3.93628 16.9496V30.6742C3.93628 32.0255 5.03571 33.125 6.38709 33.125H23.6128C24.9642 33.125 26.0636 32.0255 26.0636 30.6742V16.9496C26.0636 16.5629 25.75 16.2494 25.3634 16.2494ZM24.6631 19.5405H10.4874C10.1008 19.5405 9.7872 19.854 9.7872 20.2407C9.7872 20.6274 10.1008 20.9409 10.4874 20.9409H24.6631V30.6742C24.6631 31.2533 24.192 31.7245 23.6128 31.7245H6.38709C5.80793 31.7245 5.33674 31.2533 5.33674 30.6742V17.6499H24.6631V19.5405Z"/><path d="M21.2827 25.2763C21.4558 24.9402 21.5543 24.5597 21.5543 24.1563C21.5543 22.8028 20.4531 21.7017 19.0996 21.7017C17.7461 21.7017 16.645 22.8028 16.645 24.1563C16.645 24.3836 16.6767 24.6035 16.7349 24.8126C15.7141 25.0569 14.9526 25.9764 14.9526 27.071C14.9526 28.3517 15.9946 29.3936 17.2752 29.3936C17.694 29.3936 18.0868 29.2816 18.4264 29.0869C18.8656 29.9493 19.7615 30.5417 20.7938 30.5417C22.2582 30.5417 23.4495 29.3504 23.4495 27.8861C23.4495 26.5888 22.5142 25.5065 21.2827 25.2763ZM17.2752 27.993C16.7667 27.993 16.3531 27.5794 16.3531 27.071C16.3531 26.5625 16.7667 26.1488 17.2752 26.1488C17.7837 26.1488 18.1973 26.5625 18.1973 27.071C18.1973 27.5794 17.7837 27.993 17.2752 27.993ZM18.0455 24.1563C18.0455 23.575 18.5184 23.1021 19.0996 23.1021C19.6809 23.1021 20.1538 23.575 20.1538 24.1563C20.1538 24.7375 19.6809 25.2104 19.0996 25.2104C18.5184 25.2104 18.0455 24.7375 18.0455 24.1563ZM20.7938 29.1412C20.1017 29.1412 19.5387 28.5781 19.5387 27.886C19.5387 27.194 20.1017 26.6309 20.7938 26.6309C21.4859 26.6309 22.049 27.194 22.049 27.886C22.049 28.5781 21.4859 29.1412 20.7938 29.1412Z"/><path d="M29.5693 9.26253L26.6287 6.14433C27.0166 5.69324 27.2399 5.11149 27.2399 4.4997V2.55551C27.2399 1.18725 26.1087 0.0740967 24.7183 0.0740967H5.28224C3.89179 0.0740967 2.76064 1.18725 2.76064 2.55551V4.4997C2.76064 5.11142 2.98387 5.6931 3.3718 6.14426L0.431246 9.26246C0.280766 9.42205 0.213754 9.64297 0.250236 9.85934C0.286718 10.0756 0.422423 10.2624 0.616947 10.3638L1.25024 10.6939C1.57045 10.8609 1.83668 11.0672 2.1202 11.2868C2.27264 11.405 2.42663 11.5239 2.58971 11.6369L1.53922 14.1572C1.27502 14.6429 1.13568 15.1904 1.13568 15.7437V32.605C1.13568 34.4362 2.62542 35.9259 4.4566 35.9259H25.5439C27.375 35.9259 28.8648 34.4362 28.8648 32.605V16.1318C28.8648 15.6044 28.7374 15.0794 28.4959 14.6106L27.334 11.6882C27.5267 11.5594 27.7055 11.4216 27.8822 11.2847C28.1642 11.0665 28.4306 10.8605 28.7501 10.694L29.3835 10.3639C29.578 10.2625 29.7139 10.0758 29.7503 9.85948C29.7868 9.64304 29.7198 9.42212 29.5693 9.26253ZM27.4644 16.1318V32.605C27.4644 33.664 26.6029 34.5255 25.5439 34.5255H4.4566C3.39764 34.5255 2.53614 33.664 2.53614 32.605V15.7437C2.53614 15.4154 2.62101 15.0906 2.7815 14.8044C2.79474 14.7808 2.80664 14.7563 2.81714 14.7313L3.86476 12.2181C3.86938 12.2191 3.87421 12.2198 3.87884 12.2208C3.92022 12.23 3.96342 12.2378 4.00642 12.2458C4.03604 12.2513 4.06524 12.2576 4.09528 12.2625C4.12273 12.2669 4.15193 12.27 4.18007 12.2738C4.3732 12.3005 4.57452 12.315 4.78935 12.315C5.18575 12.315 5.52284 12.2685 5.81953 12.1911C5.83661 12.1866 5.85475 12.1829 5.87155 12.1783C6.03177 12.1338 6.17874 12.0794 6.31732 12.0186C6.7661 11.8217 7.1165 11.5521 7.45968 11.2864C8.08926 10.799 8.68396 10.3385 9.89417 10.3385C11.104 10.3385 11.6999 10.7993 12.3301 11.2868C12.9823 11.7923 13.6567 12.3151 14.9991 12.3151C15.2507 12.3151 15.4789 12.2967 15.6879 12.2634C16.2663 12.1715 16.6973 11.9657 17.0719 11.7222C17.2837 11.5844 17.4779 11.4349 17.6696 11.2865C17.9844 11.0427 18.2905 10.8058 18.6691 10.6297C19.0478 10.4537 19.499 10.3386 20.1041 10.3386C20.9728 10.3386 21.5242 10.5762 21.9994 10.8904C22.1867 11.0142 22.3624 11.1495 22.5406 11.2874C22.6943 11.4064 22.8496 11.5262 23.0143 11.64C23.0244 11.647 23.0342 11.6541 23.0443 11.661C23.0593 11.6713 23.0749 11.6811 23.09 11.6911C23.431 11.9185 23.8165 12.1165 24.3185 12.2255C24.3374 12.2296 24.3577 12.2326 24.3769 12.2364C24.4243 12.2459 24.4716 12.2556 24.5212 12.2634C24.6417 12.2826 24.7701 12.2957 24.9042 12.3043C25.0026 12.3106 25.1034 12.315 25.2098 12.315C25.2876 12.315 25.3639 12.313 25.4391 12.3093C25.4792 12.3074 25.5174 12.304 25.5563 12.3011C25.5885 12.2987 25.6212 12.2968 25.6529 12.2938C25.7076 12.2885 25.7604 12.2817 25.8127 12.2745C25.8263 12.2726 25.8401 12.2711 25.8536 12.2692C25.9192 12.2595 25.9828 12.2483 26.0448 12.2359L27.2078 15.1615C27.2173 15.1853 27.2281 15.2085 27.2401 15.2312C27.3869 15.5075 27.4644 15.819 27.4644 16.1318ZM27.0244 10.1777C26.7139 10.4183 26.4602 10.614 26.1556 10.7434C26.1339 10.7526 26.112 10.7614 26.0899 10.7699C26.076 10.7752 26.0618 10.7804 26.0476 10.7855C26.0253 10.7934 26.0029 10.8011 25.9802 10.8083C25.9659 10.8128 25.9515 10.8171 25.9369 10.8214C25.9136 10.8282 25.8901 10.8346 25.8663 10.8406C25.8512 10.8445 25.8358 10.8481 25.8203 10.8516C25.7966 10.857 25.7727 10.8622 25.7485 10.8669C25.7312 10.8703 25.7135 10.8733 25.6957 10.8763C25.6726 10.8802 25.6492 10.8841 25.6255 10.8874C25.6044 10.8904 25.5826 10.8927 25.5609 10.8952C25.5392 10.8976 25.5177 10.9002 25.4955 10.9022C25.4683 10.9046 25.4399 10.9063 25.4116 10.908C25.3935 10.9091 25.3758 10.9105 25.3574 10.9113C25.3097 10.9133 25.2607 10.9145 25.2098 10.9145C24.5091 10.9145 24.1284 10.7217 23.7039 10.4123C23.7036 10.4122 23.7035 10.412 23.7033 10.4119C23.6989 10.4087 23.6944 10.4052 23.69 10.402C23.5962 10.3332 23.5001 10.259 23.3977 10.1798C23.2056 10.031 23.0005 9.8725 22.7709 9.7202C22.1467 9.30616 21.3395 8.93812 20.1042 8.93812H20.1041C18.9958 8.93812 18.232 9.23445 17.6361 9.59444C17.3239 9.78302 17.0578 9.98902 16.8123 10.1791C16.2759 10.5943 15.9102 10.8774 15.1555 10.9112C15.1052 10.9134 15.0531 10.9145 14.9992 10.9145C14.1359 10.9145 13.7588 10.6222 13.1875 10.1794C12.4724 9.62637 11.5826 8.93805 9.89424 8.93805C8.20535 8.93805 7.31662 9.62616 6.60239 10.1791C6.10172 10.5666 5.74985 10.839 5.09164 10.9011C4.9976 10.91 4.89732 10.9145 4.78949 10.9145C4.73739 10.9145 4.68725 10.9133 4.63859 10.9112C4.6117 10.91 4.58593 10.9079 4.55974 10.906C4.53894 10.9046 4.51752 10.9036 4.49735 10.9018C4.46409 10.8988 4.43188 10.8947 4.39974 10.8905C4.38776 10.889 4.37523 10.8878 4.36347 10.8862C4.3288 10.8812 4.29505 10.8752 4.26151 10.8688C4.25283 10.8672 4.2438 10.8659 4.23525 10.8642C4.20311 10.8577 4.17174 10.8502 4.14058 10.8424C4.13085 10.8399 4.12076 10.8379 4.11117 10.8354C4.08519 10.8285 4.05999 10.8206 4.03464 10.8128C4.02014 10.8084 4.00523 10.8044 3.99101 10.7997C3.97652 10.7948 3.96251 10.7892 3.94823 10.7841C3.59601 10.6575 3.32138 10.4458 2.97645 10.1784C2.7175 9.97775 2.42908 9.75424 2.0819 9.55327L4.74782 6.72629H20.5004C20.887 6.72629 21.2006 6.4128 21.2006 6.02606C21.2006 5.63933 20.887 5.32583 20.5004 5.32583H4.53845C4.53446 5.32583 4.53054 5.32639 4.52655 5.32646C4.29708 5.11625 4.1611 4.81725 4.1611 4.4997V2.55551C4.1611 1.94939 4.65357 1.47456 5.28224 1.47456H24.7183C25.347 1.47456 25.8394 1.94939 25.8394 2.55551V4.4997C25.8394 4.90345 25.6203 5.27787 25.2677 5.4768C25.0802 5.58261 24.9517 5.7688 24.9195 5.98167C24.8872 6.19454 24.9546 6.41049 25.1023 6.56706L27.9186 9.55334C27.5724 9.75375 27.2841 9.97684 27.0244 10.1777Z"/><path d="M23.6905 5.53099C23.6584 5.49878 23.6227 5.46937 23.5842 5.44416C23.5464 5.41895 23.5058 5.39725 23.4638 5.37974C23.4211 5.36223 23.3777 5.34823 23.3328 5.33983C23.2425 5.32162 23.1494 5.32162 23.059 5.33983C23.0142 5.34823 22.97 5.36223 22.9281 5.37974C22.8854 5.39725 22.8448 5.41895 22.807 5.44416C22.7685 5.46937 22.7327 5.49878 22.7005 5.53099C22.5703 5.66123 22.4954 5.84189 22.4954 6.02605C22.4954 6.07157 22.5002 6.11778 22.5094 6.1626C22.5185 6.20741 22.5317 6.25153 22.5492 6.29354C22.5667 6.33626 22.5884 6.37687 22.6136 6.41468C22.6388 6.45319 22.6682 6.48891 22.7005 6.52112C22.7327 6.55333 22.7684 6.58274 22.807 6.60795C22.8448 6.63315 22.8853 6.65486 22.928 6.67237C22.97 6.68987 23.0142 6.70318 23.059 6.71228C23.1038 6.72138 23.15 6.72628 23.1955 6.72628C23.2417 6.72628 23.2873 6.72138 23.3328 6.71228C23.3776 6.70318 23.421 6.68987 23.4637 6.67237C23.5057 6.65486 23.5463 6.63315 23.5841 6.60795C23.6227 6.58274 23.6584 6.55333 23.6906 6.52112C23.7228 6.48891 23.7523 6.45319 23.7781 6.41468C23.8033 6.37687 23.8251 6.33626 23.8426 6.29354C23.8593 6.25153 23.8733 6.20741 23.8824 6.1626C23.8916 6.11778 23.8958 6.07157 23.8958 6.02605C23.8958 5.84189 23.8208 5.66123 23.6905 5.53099Z"/><path d="M8.47787 20.1042C8.46954 20.0594 8.45553 20.0153 8.43803 19.9726C8.42052 19.9306 8.39881 19.89 8.37361 19.8521C8.3484 19.8136 8.31899 19.7779 8.28678 19.7457C8.25457 19.7135 8.21886 19.6841 8.18034 19.6589C8.14253 19.6337 8.10199 19.612 8.0599 19.5945C8.01726 19.577 7.97307 19.563 7.92896 19.5545C7.83793 19.5363 7.7455 19.5363 7.65517 19.5545C7.61035 19.563 7.56624 19.577 7.5243 19.5945C7.48158 19.612 7.44097 19.6337 7.40316 19.6589C7.36464 19.6841 7.32893 19.7135 7.29672 19.7457C7.26451 19.7779 7.23503 19.8136 7.20989 19.8521C7.18468 19.89 7.16298 19.9306 7.14547 19.9726C7.12796 20.0153 7.11396 20.0594 7.10556 20.1042C7.09645 20.149 7.09155 20.1953 7.09155 20.2408C7.09155 20.2863 7.09645 20.3325 7.10556 20.3773C7.11396 20.4221 7.12796 20.4662 7.14547 20.509C7.16298 20.551 7.18468 20.5916 7.20989 20.6294C7.23503 20.6679 7.26451 20.7036 7.29672 20.7358C7.32893 20.768 7.36464 20.7975 7.40316 20.8227C7.44097 20.8479 7.48158 20.8696 7.5243 20.8871C7.56631 20.9046 7.61035 20.9186 7.65517 20.927C7.70005 20.9361 7.74627 20.941 7.79171 20.941C7.83723 20.941 7.88351 20.9361 7.92896 20.927C7.97307 20.9186 8.01726 20.9046 8.0599 20.8871C8.10199 20.8696 8.14253 20.8479 8.18034 20.8227C8.21892 20.7975 8.25464 20.768 8.28678 20.7358C8.31899 20.7036 8.3484 20.6679 8.37361 20.6294C8.39874 20.5916 8.42052 20.551 8.43803 20.509C8.45553 20.4662 8.46954 20.4221 8.47787 20.3773C8.48704 20.3325 8.49188 20.2863 8.49188 20.2408C8.49188 20.1953 8.48704 20.149 8.47787 20.1042Z"/></svg>