<svg xmlns="http://www.w3.org/2000/svg" viewBox="0 0 57 57"><path d="M57 37.5694L51.089 25.7473H35.2736L29.3625 37.5694L32.831 51.4395H30.3352V56.945H56.0274V51.4395H53.5316L57 37.5694ZM36.4077 27.5825H49.9549L54.5428 36.7583H31.8198L36.4077 27.5825ZM54.1922 53.2747V55.1098H32.1703V53.2747H47.7692V51.4395H34.7212L31.5097 38.5934H54.852L51.6404 51.4395H49.6043V53.2747H54.1922Z"/><path d="M43.1813 28.5C41.1571 28.5 39.511 30.1461 39.511 32.1703C39.511 34.1945 41.1571 35.8406 43.1813 35.8406C45.2055 35.8406 46.8516 34.1945 46.8516 32.1703C46.8516 30.1461 45.2055 28.5 43.1813 28.5ZM43.1813 34.0055C42.1692 34.0055 41.3461 33.1824 41.3461 32.1703C41.3461 31.1582 42.1692 30.3352 43.1813 30.3352C44.1925 30.3352 45.0165 31.1582 45.0165 32.1703C45.0165 33.1824 44.1925 34.0055 43.1813 34.0055Z"/><path d="M51.4395 42.2637H34.9231V47.7691H51.4395V42.2637ZM49.6044 45.934H36.7583V44.0988H49.6044V45.934Z"/><path d="M21.7264 25.7473H5.91104L0 37.5694L3.46845 51.4395H0.972634V56.945H26.6648V51.4395H24.169L27.6366 37.5694L21.7264 25.7473ZM24.8297 53.2747V55.1098H2.80779V53.2747H24.8297ZM22.2779 51.4395H5.35866L2.14713 38.5934H21.1594V36.7583H2.45728L7.04517 27.5825H20.5923L25.1802 36.7583H22.9945V38.5934H25.4894L22.2779 51.4395Z"/><path d="M13.8188 28.5C11.7946 28.5 10.1484 30.1461 10.1484 32.1703C10.1484 34.1945 11.7946 35.8406 13.8188 35.8406C15.8429 35.8406 17.4891 34.1945 17.4891 32.1703C17.4891 30.1461 15.8429 28.5 13.8188 28.5ZM13.8188 34.0055C12.8067 34.0055 11.9836 33.1824 11.9836 32.1703C11.9836 31.1582 12.8067 30.3352 13.8188 30.3352C14.8299 30.3352 15.6539 31.1582 15.6539 32.1703C15.6539 33.1824 14.8299 34.0055 13.8188 34.0055Z"/><path d="M5.56055 47.7691H22.077V42.2637H5.56055V47.7691V47.7691ZM7.39571 44.0988H20.2418V45.934H7.39571V44.0988V44.0988Z"/><path d="M32.1703 19.4729C32.4978 18.492 33.3126 17.7854 34.2908 17.567C34.511 18.0469 34.8037 18.503 35.1992 18.8975C36.0938 19.7922 37.2683 20.239 38.4437 20.239C39.3017 20.239 40.1559 19.995 40.9047 19.5178C42.4343 20.5492 44.5585 21.1594 46.8066 21.1594C51.4376 21.1594 55.0648 18.7406 55.0648 15.6539C55.0648 13.6701 53.5627 11.9671 51.2632 10.9999C55.6961 7.55167 57.512 4.81087 56.7999 2.64263C56.2604 0.998325 54.3188 0.0550537 51.4715 0.0550537C49.8015 0.0550537 48.4132 0.639552 47.3397 1.78653C45.9605 1.52134 42.7087 1.10293 40.8258 2.57381C39.9366 3.26842 39.4659 4.30161 39.4659 5.56053C39.4659 8.10497 41.2442 9.84746 42.716 10.8577C42.0498 11.1073 41.4442 11.4229 40.9047 11.7891C39.3356 10.7898 37.2977 10.8458 35.7754 11.9386L35.0625 11.7606C33.9008 11.4697 33.0878 10.4301 33.0878 9.23084H31.2527C31.2527 11.2055 32.552 12.9168 34.4293 13.4765C34.0403 14.1959 33.8476 14.9887 33.8705 15.786C32.2831 16.1485 30.9609 17.2982 30.4305 18.8902L30.3828 19.0315L32.1225 19.616L32.1703 19.4729ZM53.2296 15.6539C53.2296 16.9504 51.9753 18.113 50.1401 18.7672C50.353 17.7891 50.4769 16.744 50.4769 15.6539C50.4769 14.5675 50.3539 13.5196 50.141 12.5405C51.9753 13.1948 53.2296 14.3574 53.2296 15.6539ZM48.6472 3.07114C49.3739 2.27651 50.2979 1.89021 51.4715 1.89021C53.3856 1.89021 54.7922 2.40956 55.0565 3.2152C55.2263 3.73179 55.2997 5.77524 49.1124 10.3264L49.1427 10.3677C48.4059 10.2273 47.625 10.1484 46.8111 10.1484C46.7809 8.53073 46.9249 4.95401 48.6472 3.07114ZM46.3542 12.0019C46.5056 11.9955 46.6552 11.9836 46.8075 11.9836C47.2571 11.9836 47.6966 12.0129 48.1233 12.0662C48.4582 13.1379 48.6426 14.3601 48.6426 15.6539C48.6426 16.933 48.4545 18.1736 48.1233 19.2416C47.6957 19.2948 47.2562 19.3242 46.8066 19.3242C46.6533 19.3242 46.5038 19.3123 46.3533 19.3059C46.6506 18.1818 46.8075 16.9413 46.8075 15.6539C46.8075 14.3665 46.6506 13.126 46.3542 12.0019ZM41.3011 5.56053C41.3011 4.85858 41.5085 4.36951 41.9544 4.02175C42.9325 3.25649 44.8218 3.29044 46.2083 3.46845C45.0971 5.72661 44.9512 8.53715 44.9714 10.0576C44.007 9.5887 41.3011 8.05175 41.3011 5.56053ZM44.5071 12.2414C44.8044 13.2691 44.9714 14.4491 44.9714 15.6539C44.9714 16.8587 44.8044 18.0387 44.5071 19.0664C43.6629 18.8764 42.8949 18.5846 42.2517 18.2057C43.284 16.666 43.284 14.6381 42.2508 13.0994C42.8949 12.7213 43.6657 12.4323 44.5071 12.2414ZM36.4966 13.7077C37.0334 13.1709 37.7381 12.903 38.4428 12.903C39.1484 12.903 39.8531 13.1709 40.3899 13.7077C40.9093 14.2271 41.1956 14.918 41.1956 15.6539C41.1956 16.3898 40.9102 17.0807 40.3899 17.6001C39.3173 18.6727 37.5711 18.6746 36.4966 17.6001C35.9773 17.0807 35.691 16.3898 35.691 15.6539C35.691 14.918 35.9773 14.2271 36.4966 13.7077Z"/><path d="M6.30287 17.5349C7.4058 17.5349 8.65921 17.4459 10.0622 17.2706C9.12259 19.5783 9.26573 21.8429 10.6678 23.2441C11.4835 24.0598 12.5901 24.4507 13.827 24.4507C15.9035 24.4507 18.3479 23.3487 20.3996 21.297C22.1394 19.5572 23.2551 17.4055 23.4891 15.4538C24.493 15.3456 25.4702 14.9281 26.2382 14.16C27.8476 12.5506 27.9953 10.0392 26.7089 8.24808L26.8869 7.53512C27.1787 6.37347 28.2183 5.56049 29.4176 5.56049V3.72533C27.443 3.72533 25.7317 5.02463 25.172 6.90199C24.4526 6.51294 23.6598 6.32025 22.8624 6.34319C22.5 4.75577 21.3502 3.43354 19.7582 2.90318L19.6169 2.85547L19.0324 4.5952L19.1756 4.64291C20.1565 4.97049 20.863 5.7853 21.0814 6.76344C20.6015 6.98366 20.1455 7.27636 19.7509 7.67184C18.9829 8.43985 18.5654 9.41708 18.4571 10.4218C17.6579 10.5218 16.8275 10.7641 16.0053 11.1366C16.3338 9.38037 16.365 6.8818 14.5611 5.07693C13.671 4.18688 12.603 3.78589 11.4881 3.92628C9.11525 4.21807 7.11125 6.81299 6.32397 7.97556C4.78794 7.94711 3.43268 8.51234 2.2802 9.67491C0.278961 11.6954 -0.416564 13.7407 0.369801 15.2841C1.13506 16.7889 3.09042 17.5358 6.30287 17.5349ZM11.9643 21.9457C11.0477 21.029 11.1119 19.3205 11.9469 17.5597C12.4883 18.4029 13.1416 19.2297 13.9114 19.9977C14.6822 20.7694 15.5089 21.4218 16.3513 21.9622C14.5904 22.7981 12.8828 22.8633 11.9643 21.9457ZM21.0484 8.9693C21.5677 8.44995 22.2586 8.16366 22.9945 8.16366C23.7304 8.16366 24.4214 8.44995 24.9407 8.9693C26.0143 10.0429 26.0143 11.789 24.9407 12.8626C23.9011 13.9022 22.088 13.9022 21.0484 12.8626C19.9748 11.789 19.9748 10.0429 21.0484 8.9693ZM18.6223 12.234C18.8324 12.9378 19.1949 13.6058 19.75 14.161C20.3033 14.7124 20.9676 15.073 21.6677 15.285C21.553 16.2154 21.1603 17.2202 20.5446 18.1937C19.605 17.678 18.67 16.9733 17.8029 16.1071C16.9367 15.24 16.232 14.3041 15.7163 13.3654C16.6899 12.7488 17.6992 12.346 18.6223 12.234ZM16.5063 17.4037C17.4175 18.3148 18.4057 19.081 19.4105 19.6655C19.3077 19.7765 19.2114 19.8912 19.1031 19.9995C18.7838 20.3179 18.4525 20.6079 18.113 20.8721C17.1239 20.3519 16.1127 19.6068 15.208 18.7011C14.2922 17.7854 13.5591 16.7898 13.0388 15.797C13.3031 15.4584 13.593 15.1263 13.9105 14.8088C14.0188 14.7005 14.1326 14.6032 14.2445 14.5005C14.829 15.5043 15.5952 16.4916 16.5063 17.4037ZM11.7129 5.74768C12.2708 5.67702 12.7663 5.87889 13.2627 6.37438C15.0089 8.12145 14.1968 11.121 13.8481 12.1441C12.7865 11.0449 10.6981 9.14914 8.32338 8.34901C9.17672 7.24608 10.4861 5.89724 11.7129 5.74768ZM3.58408 10.9678C4.40256 10.141 5.3183 9.76484 6.37627 9.80796C8.89686 9.91991 11.5028 12.3478 12.6131 13.5122C12.0451 14.0811 11.5542 14.6803 11.1348 15.2933L11.1312 15.2694C3.63638 16.4228 2.24992 14.9354 2.00309 14.4518C1.61679 13.693 2.23707 12.3258 3.58408 10.9678Z"/></svg>