<svg xmlns="http://www.w3.org/2000/svg" viewBox="0 0 40 40"><path d="M39.7565 12.2791C38.9334 10.5665 36.1615 10.1345 33.8491 10.5933C31.6239 11.0345 26.4334 13.0211 24.3239 13.8498C24.124 13.6442 23.8822 13.4723 23.598 13.3339C24.9457 11.6916 24.9847 9.40083 23.8161 7.72536C24.2983 6.56169 23.4081 5.2727 22.1341 5.32856C23.1344 2.76887 25.0342 1.17754 27.8173 1.17754C28.1409 1.17754 28.4031 0.915356 28.4031 0.591763C28.4031 0.268169 28.1409 0.00598145 27.8173 0.00598145C24.1716 0.00598145 21.6975 2.4127 20.7429 5.79403C20.2518 5.71567 19.748 5.71575 19.257 5.79411C18.3065 2.42708 15.8454 0.00598145 12.1826 0.00598145C11.8591 0.00598145 11.5968 0.268169 11.5968 0.591763C11.5968 0.915356 11.8591 1.17754 12.1826 1.17754C14.9434 1.17754 16.8561 2.74504 17.8643 5.32856C16.5906 5.27356 15.7018 6.56286 16.184 7.72559C15.0152 9.40161 15.0552 11.6922 16.4022 13.3338C16.1157 13.4733 15.8724 13.6468 15.6713 13.8547C14.7251 13.4822 12.3112 12.5432 10.0522 11.7604C9.74669 11.6547 9.41278 11.8165 9.30684 12.1222C9.2009 12.4279 9.36286 12.7616 9.66856 12.8675C11.7946 13.6043 14.0622 14.4817 15.089 14.8847C14.7742 15.9725 14.9725 17.5293 15.8119 18.7758C15.4766 19.0405 15.0829 19.3073 14.6757 19.5415C11.8254 21.182 9.09403 21.0311 6.32145 19.4115C4.58989 18.3348 0.408092 14.6404 1.29926 12.7866C1.72231 11.9064 3.56723 11.2754 5.92294 11.7425C6.23122 11.8036 6.62598 11.9032 7.09645 12.0382C7.40715 12.1277 7.73184 11.9479 7.82122 11.6369C7.91059 11.326 7.7309 11.0015 7.41989 10.9122C6.91801 10.7679 6.49106 10.6607 6.15075 10.5932C3.83809 10.1346 1.06645 10.5664 0.243326 12.279C-0.595346 14.0238 0.736373 16.3893 4.20122 19.3098C4.50411 19.5651 4.8052 19.7968 5.10403 20.0077C3.31411 21.8682 2.72379 23.4214 3.35114 24.6299C4.15872 26.1853 6.6559 26.3828 8.38575 26.0397C9.46403 25.826 11.3685 25.1787 13.0558 24.5643C12.0996 29.7578 14.0774 35.7359 18.1802 37.2598L19.4838 39.6859C19.7036 40.095 20.2941 40.0988 20.5158 39.6859L21.8186 37.2613C25.576 35.8687 27.2611 30.941 27.1828 26.9494C27.1825 26.9415 27.1802 26.8503 27.1804 26.8582C27.16 26.0454 27.0765 25.2811 26.9447 24.5675C28.135 25.0004 29.154 25.3481 29.9819 25.6036C30.291 25.6991 30.619 25.5257 30.7144 25.2166C30.8099 24.9075 30.6366 24.5796 30.3275 24.4841C29.3553 24.184 28.1093 23.7525 26.6211 23.2004C26.3952 22.4272 26.1068 21.7137 25.7843 21.0835C28.5379 22.2896 31.3602 22.0645 33.8841 20.6485C35.3075 22.0831 35.9449 23.3022 35.639 24.0254C35.3673 24.6673 34.2479 25.0617 32.8551 25.0085C32.5325 24.9978 32.2597 25.2479 32.2472 25.5712C32.2347 25.8945 32.4866 26.1667 32.81 26.1791C32.9157 26.1832 33.02 26.1852 33.1229 26.1852C34.9297 26.1852 36.2621 25.5592 36.7179 24.4818C37.2215 23.2915 36.6079 21.7879 34.8951 20.0068C35.1997 19.7925 35.501 19.5603 35.7985 19.3096C39.2636 16.3893 40.5952 14.0239 39.7565 12.2791ZM21.6843 6.86231C21.7665 6.64645 21.974 6.49825 22.2115 6.49825C22.7382 6.49825 23.0135 7.36075 22.4111 7.59036C21.9536 7.76458 21.5114 7.31137 21.6843 6.86231ZM18.3489 6.99739C18.4143 7.56294 17.695 7.85754 17.3433 7.40918C17.2686 7.3134 17.2237 7.19348 17.2237 7.06286C17.2236 6.36129 18.267 6.2927 18.3489 6.99739ZM17.005 8.61286C18.1752 9.2063 19.6188 8.30184 19.5201 6.93809C19.8367 6.8945 20.1632 6.89458 20.4798 6.93801C20.3778 8.32004 21.8409 9.19794 22.9952 8.61278C24.3326 10.8707 22.7689 13.7425 20.1668 13.864C17.4004 13.9957 15.5994 10.9862 17.005 8.61286ZM17.3663 14.2221C18.9612 15.3228 21.069 15.3022 22.634 14.2221C23.5108 14.4522 24.0243 14.979 23.849 16.4226C23.4004 20.1535 18.3147 21.1606 16.5489 17.7217C16.2639 17.1649 16.1222 16.5592 16.1222 15.9569C16.1222 14.9087 16.5113 14.4465 17.3663 14.2221ZM16.6005 19.689C18.5019 21.4223 21.4533 21.4636 23.3999 19.6887C23.9372 20.2551 24.3874 20.926 24.7443 21.6239C20.3323 23.355 16.0004 21.8998 15.2561 21.6232C15.6171 20.9182 16.0591 20.2587 16.6005 19.689ZM8.15794 24.8905C6.48239 25.2226 4.79254 24.8636 4.3909 24.09C4.0184 23.3725 4.6452 22.1298 6.1152 20.6487C8.75848 22.1347 11.5754 22.2344 14.215 21.0848C13.8744 21.7503 13.5953 22.4615 13.38 23.1965C10.895 24.1204 9.09278 24.7051 8.15794 24.8905ZM19.9999 38.1711L19.6829 37.5812C19.8918 37.5944 20.1182 37.5939 20.3168 37.5814L19.9999 38.1711ZM16.1662 34.2918C18.6391 34.7268 21.3408 34.7693 23.8222 34.3079C21.5665 37.1588 18.3702 37.089 16.1662 34.2918ZM25.8922 29.0771C23.8204 29.6135 21.5474 29.8381 19.1342 29.7448C18.811 29.7325 18.5386 29.984 18.5261 30.3074C18.5136 30.6307 18.7654 30.9029 19.0887 30.9154C19.46 30.9299 19.828 30.9371 20.193 30.9371C22.1147 30.9371 23.9465 30.7368 25.6591 30.3404C25.6369 30.4054 25.4085 31.5612 24.7195 32.9093C20.2317 34.0729 15.8173 33.0436 15.2808 32.9095L15.2782 32.9043C14.587 31.5709 14.3739 30.4347 14.3396 30.3337C14.9861 30.4731 16.205 30.679 16.3858 30.679C16.6744 30.679 16.9258 30.4657 16.9656 30.1717C17.009 29.8511 16.7843 29.556 16.4637 29.5126C15.2193 29.3443 14.3591 29.1404 14.1082 29.0775C13.9947 28.2308 13.9575 27.3561 14.0089 26.4481C14.8022 26.6924 17.1565 27.3287 20.1646 27.3287C21.9417 27.3287 23.9468 27.1053 25.9914 26.4486C26.0417 27.3382 26.0054 28.2268 25.8922 29.0771ZM25.8711 25.2558C20.1177 27.203 14.4465 25.3625 14.1289 25.2561C14.1648 25.0927 14.2199 24.3008 14.7816 22.6971C15.2471 22.879 17.3652 23.6415 20.1395 23.6415C21.6863 23.6415 23.4368 23.4033 25.218 22.6961C25.4609 23.35 25.5724 23.8019 25.5711 23.7973C25.7843 24.5918 25.8612 25.2018 25.8711 25.2558ZM24.1877 18.7768C25.0415 17.5094 25.2193 15.9407 24.9096 14.8787C26.6422 14.2007 31.9232 12.1696 34.0771 11.7425C36.4326 11.2754 38.2776 11.9066 38.7007 12.7866C39.2539 13.9376 37.921 15.9887 35.0436 18.414C31.3204 21.5522 27.3015 21.2489 24.1877 18.7768Z"/></svg>