<svg xmlns="http://www.w3.org/2000/svg" viewBox="0 0 40 40"><path d="M39.9999 5.79542V1.28787H38.0681C36.4891 1.28787 35.0997 2.10568 34.2941 3.33822C33.3672 1.36962 31.37 0 29.053 0H27.1212V4.50755C27.1212 5.69827 27.4831 6.80566 28.1013 7.72723H19.3226C20.1602 6.90816 20.6819 5.76838 20.6819 4.50755V0H18.7501C16.2652 0 14.2425 2.02205 14.2425 4.50755V7.72723C9.68969 7.72723 5.96002 7.01632 0.939959 5.19016L0.0759277 4.87574V11.5908H9.77804C7.81856 12.8234 6.39486 14.8479 5.98706 17.2794L6.01881 17.2844C5.15447 17.8629 4.58348 18.8468 4.58348 19.962C4.58348 20.4129 4.67938 20.8531 4.85703 21.2571L3.75089 20.1507L2.84032 21.0612L3.80245 22.0234C3.10507 22.6145 2.65167 23.4857 2.65167 24.4696C2.65167 24.8481 2.72367 25.2198 2.85196 25.5719C2.3907 25.8109 1.93479 26.1335 1.51504 26.5532C0.0218472 28.0467 -0.366464 29.9984 0.631511 30.9973C0.995926 31.3617 1.50592 31.5516 2.08823 31.5516C2.28128 31.5516 2.48471 31.5252 2.6916 31.4827C2.88026 33.0816 3.8449 34.4795 5.31168 35.2137L5.87135 35.4926L6.43102 35.2124C6.79355 35.0313 7.11992 34.8033 7.41736 34.5483C8.15279 36.9361 10.3789 38.6361 12.9546 38.6361H20.6819C22.2401 38.6361 23.7173 38.0013 24.7926 36.9207C25.1847 38.1199 26.0324 39.1339 27.2055 39.7206L27.7652 40.0001L28.3248 39.72C29.7922 38.9864 30.7563 37.5885 30.9449 35.989C31.1515 36.0315 31.3543 36.0579 31.5483 36.0579C32.1297 36.0579 32.6396 35.868 33.0047 35.5032C34.003 34.5046 33.6147 32.553 32.1215 31.0595C31.7014 30.6398 31.2455 30.3178 30.7846 30.0788C30.9125 29.7279 30.9848 29.3557 30.9848 28.9771C30.9848 27.9933 30.5315 27.122 29.8341 26.5309L30.7962 25.5688L29.8856 24.6582L29.0266 25.5172C29.0433 25.3839 29.053 25.2487 29.053 25.1135C29.053 24.0567 28.5339 23.1251 27.745 22.5378C28.5339 21.9504 29.053 21.0188 29.053 19.962C29.053 18.8468 28.4817 17.8629 27.6177 17.285L27.6491 17.28C27.241 14.8479 25.818 12.8234 23.8585 11.5915H31.6288V13.5233C31.6288 16.7184 34.2284 19.3187 37.4242 19.3187H39.356V14.8112C39.356 12.8561 38.3804 11.1277 36.8935 10.0775C38.6948 9.48642 39.9999 7.79169 39.9999 5.79542ZM28.4091 1.28787H29.053C31.5379 1.28787 33.5606 3.30992 33.5606 5.79542V9.0151H32.9167C30.4318 9.0151 28.4091 6.99305 28.4091 4.50755V1.28787ZM15.5304 4.50755C15.5304 2.73233 16.9745 1.28787 18.7501 1.28787H19.394V4.50755C19.394 6.28278 17.9495 7.72723 16.1743 7.72723H15.5304V4.50755ZM3.93954 24.4696C3.93954 23.4046 4.80609 22.5378 5.87135 22.5378C6.9363 22.5378 7.80316 23.4046 7.80316 24.4696C7.80316 24.7091 7.74373 24.9396 7.65884 25.1607C6.96459 25.0588 6.33166 25.1978 5.87135 25.6043C5.41104 25.1971 4.77716 25.0575 4.08323 25.1597C3.99865 24.939 3.93954 24.7091 3.93954 24.4696ZM18.7501 25.1135C18.7501 26.1784 17.8832 27.0453 16.8183 27.0453C15.753 27.0453 14.8865 26.1784 14.8865 25.1135C14.8865 24.0485 15.753 23.1817 16.8183 23.1817C17.8832 23.1817 18.7501 24.0485 18.7501 25.1135ZM24.409 34.7147C23.9761 34.8228 23.6208 34.7782 23.4359 34.5936C23.0253 34.1827 23.3161 32.974 24.3194 31.9707C25.0303 31.2598 25.8431 30.9077 26.4031 30.9077C26.6336 30.9077 26.8219 30.9674 26.942 31.0872C27.3523 31.4981 27.0618 32.7074 26.0588 33.7101C25.5576 34.2116 24.9571 34.5773 24.409 34.7147ZM24.7458 30.0795C24.2845 30.3184 23.8286 30.641 23.4089 31.0608C23.0501 31.4195 22.7593 31.8053 22.5319 32.1974H8.91527C8.97878 31.9651 9.0228 31.7261 9.0511 31.4827C9.25767 31.5252 9.46047 31.5516 9.65447 31.5516C10.2358 31.5516 10.7458 31.3617 11.1109 30.9973C11.7381 30.3694 11.8161 29.3642 11.4174 28.3338H24.6106C24.5681 28.5413 24.5455 28.757 24.5455 28.9771C24.5455 29.3557 24.6175 29.7273 24.7458 30.0795ZM9.3171 27.4632C10.3201 28.4665 10.6113 29.6751 10.2006 30.0861C10.0157 30.2706 9.66013 30.3153 9.22749 30.2071C8.67945 30.0707 8.07859 29.7041 7.57772 29.2032C6.5744 28.1999 6.28419 26.9906 6.69419 26.5803C6.81462 26.4605 7.00264 26.4007 7.23311 26.4007C7.79278 26.4001 8.60682 26.7529 9.3171 27.4632ZM14.2592 27.0453H10.6597C10.5264 26.878 10.3864 26.7117 10.2277 26.5526C9.8076 26.1328 9.35168 25.8109 8.89074 25.5719C9.01871 25.2204 9.09103 24.8481 9.09103 24.4696C9.09103 24.0111 8.99167 23.5769 8.8178 23.1817H14.2586C13.8504 23.7212 13.5986 24.3859 13.5986 25.1135C13.5986 25.8411 13.8504 26.5058 14.2592 27.0453ZM1.54208 30.0861C1.13144 29.6751 1.42228 28.4665 2.4256 27.4632C3.13651 26.7523 3.94929 26.4001 4.50927 26.4001C4.73975 26.4001 4.92808 26.4598 5.04819 26.5796C5.45851 26.9906 5.16799 28.1999 4.16498 29.2025C3.66379 29.7034 3.06231 30.0697 2.51521 30.2065C2.08162 30.3153 1.72633 30.2706 1.54208 30.0861ZM5.87135 34.0525C4.70264 33.4614 3.9735 32.2927 3.94457 30.9875C4.342 30.7558 4.72623 30.4628 5.07555 30.1131C5.39594 29.7924 5.65503 29.4491 5.87072 29.1C6.08641 29.4491 6.34518 29.793 6.66589 30.1131C7.0149 30.4621 7.39944 30.7558 7.79655 30.9875C7.76889 32.2927 7.04006 33.4614 5.87135 34.0525ZM12.9546 37.3483C10.7125 37.3483 8.81088 35.6922 8.4952 33.4847H22.0314C21.8782 34.2773 22.0301 35.0083 22.526 35.5042C22.8614 35.8397 23.3233 36.0192 23.8468 36.0475C23.0124 36.8672 21.8776 37.3483 20.6819 37.3483H12.9546ZM27.7652 38.5601C26.5965 37.9689 25.8673 36.8002 25.8384 35.4951C26.2358 35.2633 26.62 34.9703 26.9694 34.6207C27.2898 34.3 27.5488 33.9566 27.7645 33.6076C27.9802 33.9566 28.239 34.3006 28.5597 34.6207C28.9087 34.9697 29.2933 35.2633 29.6904 35.4951C29.6627 36.8002 28.9339 37.9689 27.7652 38.5601ZM32.0944 34.5936C31.9096 34.7782 31.5546 34.8228 31.1213 34.7147C30.5733 34.5782 29.9724 34.2116 29.4715 33.7107C28.4682 32.7074 28.178 31.4981 28.588 31.0878C28.7084 30.968 28.8965 30.9083 29.1269 30.9083C29.6872 30.9083 30.5013 31.2611 31.2109 31.9713C32.2133 32.974 32.5044 34.1827 32.0944 34.5936ZM27.7652 30.1112C27.3049 29.7041 26.671 29.5644 25.9777 29.6666C25.8925 29.4465 25.8334 29.2167 25.8334 28.9771C25.8334 27.9122 26.6999 27.0453 27.7652 27.0453C28.8301 27.0453 29.697 27.9122 29.697 28.9771C29.697 29.2167 29.6375 29.4472 29.5527 29.6682C28.8584 29.5657 28.2255 29.7047 27.7652 30.1112ZM27.7652 25.1135C27.7652 25.3408 27.7117 25.5597 27.6344 25.7703C27.3737 25.7813 27.1237 25.8263 26.8823 25.8958L25.6447 24.6582L24.7341 25.5688L25.6963 26.5309C25.5145 26.6847 25.3498 26.8554 25.2055 27.0453H19.3773C19.7861 26.5058 20.0379 25.8411 20.0379 25.1135C20.0379 24.3859 19.7861 23.7212 19.3773 23.1817H25.8334C26.8983 23.1817 27.7652 24.0485 27.7652 25.1135ZM25.8334 21.8938H8.06979L8.90238 21.0612L7.99181 20.1507L6.75425 21.3882C6.64734 21.3574 6.54107 21.326 6.42945 21.3058C6.07793 20.9465 5.87135 20.4682 5.87135 19.962C5.87135 18.8971 6.7379 18.0302 7.80316 18.0302H25.8334C26.8983 18.0302 27.7652 18.8971 27.7652 19.962C27.7652 21.027 26.8983 21.8938 25.8334 21.8938ZM26.2192 16.7816C26.0909 16.7656 25.9654 16.7423 25.8334 16.7423H7.80316C7.6711 16.7423 7.54565 16.7656 7.41736 16.7816C8.25309 13.7346 11.015 11.5908 14.2425 11.5908H19.394C22.6212 11.5908 25.3831 13.7346 26.2192 16.7816ZM19.394 10.303H1.3638V6.70787C6.11157 8.36205 9.79282 9.0151 14.2425 9.0151H29.2823C29.9564 9.55999 30.7556 9.95459 31.6288 10.1536V10.303H19.394ZM38.0681 14.8105V18.0302H37.4242C34.9393 18.0302 32.9167 16.0082 32.9167 13.5227V10.303H33.5606C36.0455 10.303 38.0681 12.325 38.0681 14.8105ZM35.4924 9.0151H34.8485V5.79542C34.8485 4.0202 36.2926 2.57574 38.0681 2.57574H38.7121V5.79542C38.7121 7.57065 37.2676 9.0151 35.4924 9.0151Z"/></svg>