<svg xmlns="http://www.w3.org/2000/svg" viewBox="0 0 32 32"><path d="M29 3h-4V2a1 1 0 1 0-2 0v1H9V2a1 1 0 1 0-2 0v1H3C1.346 3 0 4.346 0 6v22c0 1.654 1.346 3 3 3h26c1.654 0 3-1.346 3-3V6c0-1.654-1.346-3-3-3zM3 5h4v1a1 1 0 1 0 2 0V5h14v1a1 1 0 1 0 2 0V5h4a1 1 0 0 1 1 1v3H2V6a1 1 0 0 1 1-1zm27 23a1 1 0 0 1-1 1H3a1 1 0 0 1-1-1V11h28z"></path><path d="M8 17h1c.55 0 1-.45 1-1s-.45-1-1-1H8c-.55 0-1 .45-1 1s.45 1 1 1zM13 17h1c.55 0 1-.45 1-1s-.45-1-1-1h-1c-.55 0-1 .45-1 1s.45 1 1 1zM18 17h1c.55 0 1-.45 1-1s-.45-1-1-1h-1c-.55 0-1 .45-1 1s.45 1 1 1zM23 17h1c.55 0 1-.45 1-1s-.45-1-1-1h-1c-.55 0-1 .45-1 1s.45 1 1 1zM8 21h1c.55 0 1-.45 1-1s-.45-1-1-1H8c-.55 0-1 .45-1 1s.45 1 1 1zM13 21h1c.55 0 1-.45 1-1s-.45-1-1-1h-1c-.55 0-1 .45-1 1s.45 1 1 1zM18 21h1c.55 0 1-.45 1-1s-.45-1-1-1h-1c-.55 0-1 .45-1 1s.45 1 1 1zM23 21h1c.55 0 1-.45 1-1s-.45-1-1-1h-1c-.55 0-1 .45-1 1s.45 1 1 1zM8 25h1c.55 0 1-.45 1-1s-.45-1-1-1H8c-.55 0-1 .45-1 1s.45 1 1 1zM13 25h1c.55 0 1-.45 1-1s-.45-1-1-1h-1c-.55 0-1 .45-1 1s.45 1 1 1zM18 25h1c.55 0 1-.45 1-1s-.45-1-1-1h-1c-.55 0-1 .45-1 1s.45 1 1 1z"></path></svg>