<svg xmlns="http://www.w3.org/2000/svg" viewBox="0 0 66 70"><path d="M10.7534 60.2402C9.60516 60.2402 9.8102 58.8869 9.8102 58.1078C9.8102 56.8366 11.6966 56.8366 11.6966 58.1078C11.6966 58.8869 11.9016 60.2402 10.7534 60.2402ZM58.5683 70H1.48565C0.214418 70 0.214418 68.0726 1.48565 68.0726H5.09432C4.9713 67.4575 5.05332 39.2443 5.05332 34.8565C5.05332 33.5442 6.11951 32.478 7.43176 32.478H9.97423V27.3111C9.97423 25.5888 11.3685 24.1535 13.1318 24.1535H19.406V17.3872C19.406 15.7469 16.9455 15.7469 16.9455 17.3872V19.5196C16.9455 21.529 15.3052 23.1693 13.2548 23.1693C11.2455 23.1693 9.60516 21.529 9.60516 19.5196V12.3843C6.44758 12.0972 3.94611 9.43175 3.94611 6.19215C3.94611 2.78852 6.73463 0 10.1793 0H28.5917C29.4118 0 29.5759 0.656122 29.5759 1.27124H61.0697C61.6028 1.27124 62.0129 1.68131 62.0129 2.21441V9.43175C62.0129 9.96485 61.6028 10.3749 61.0697 10.3749H28.7147C27.3615 12.3843 25.8852 11.2361 25.8852 12.2613V24.1535H52.8682C54.6315 24.1535 56.0258 25.5888 56.0258 27.3111V32.478H58.5683C59.8805 32.478 60.9467 33.5442 60.9467 34.8565C60.9467 39.2443 60.9877 67.4575 60.8647 68.0726H64.5144C65.7856 68.0726 65.7856 70 64.5144 70H58.5683ZM11.8606 32.478H54.0984V27.3111C54.0984 26.6139 53.5653 26.0808 52.8682 26.0808H13.1318C12.4347 26.0808 11.8606 26.6139 11.8606 27.3111V32.478ZM7.43176 34.3644C7.18571 34.3644 6.98067 34.6104 6.98067 34.8565V38.8342H59.0193V34.8565C59.0193 34.6104 58.8143 34.3644 58.5683 34.3644H7.43176ZM6.98067 40.7206V62.2086H59.0193V40.7206H6.98067ZM6.98067 64.0949V67.6216C6.98067 67.8676 7.18571 68.0726 7.43176 68.0726H58.5683C58.8143 68.0726 59.0193 67.8676 59.0193 67.6216V64.0949H6.98067ZM21.3333 24.1535H23.9988V12.2613C23.9988 10.908 25.065 9.80082 26.4183 9.80082C27.1564 9.80082 27.6485 8.24253 27.6485 7.5454V1.92736H10.1793C4.68425 1.92736 4.11014 10.4979 10.5483 10.4979C11.0814 10.4979 11.5325 10.949 11.5325 11.4821V19.5196C11.5325 21.8161 15.0182 21.8161 15.0182 19.5196V17.3872C15.0182 15.6239 16.4534 14.2296 18.1758 14.2296C19.9391 14.2296 21.3333 15.6239 21.3333 17.3872V24.1535ZM35.2349 59.7071C30.6831 59.7071 26.9514 56.0164 26.9514 51.4646C26.9514 46.9127 30.6831 43.181 35.2349 43.181C39.7868 43.181 43.4775 46.9127 43.4775 51.4646C43.4775 56.0164 39.7868 59.7071 35.2349 59.7071ZM35.2349 45.1084C31.7083 45.1084 28.8787 47.9789 28.8787 51.4646C28.8787 54.9502 31.7083 57.8207 35.2349 57.8207C38.7206 57.8207 41.5911 54.9502 41.5911 51.4646C41.5911 47.9789 38.7206 45.1084 35.2349 45.1084ZM51.925 60.7323C49.5876 60.7323 47.6602 58.8459 47.6602 56.4675C47.6602 54.1301 49.5876 52.2437 51.925 52.2437C54.2625 52.2437 56.1898 54.1301 56.1898 56.4675C56.1898 58.8459 54.2625 60.7323 51.925 60.7323ZM51.925 54.1301C48.8494 54.1301 48.8494 58.8459 51.925 58.8459C55.0006 58.8459 55.0006 54.1301 51.925 54.1301ZM29.4528 8.48858H60.1265V3.15759H29.5759C29.5759 4.26479 29.6169 7.58641 29.4528 8.48858ZM10.7534 55.8114C10.2203 55.8114 9.8102 55.4013 9.8102 54.8682V43.6731C9.8102 42.4019 11.6966 42.4019 11.6966 43.6731V54.8682C11.6966 55.4013 11.2865 55.8114 10.7534 55.8114Z"/></svg>