<svg xmlns="http://www.w3.org/2000/svg" viewBox="0 0 40 40"><path d="M21.6678 11.7153C23.0972 11.7153 24.217 10.8754 24.217 9.80346C24.217 8.73155 23.0972 7.8916 21.6678 7.8916C20.2384 7.8916 19.1187 8.73155 19.1187 9.80346C19.1187 10.8754 20.2384 11.7153 21.6678 11.7153ZM21.6678 9.16618C22.4459 9.16618 22.9424 9.54345 22.9424 9.80346C22.9424 10.0635 22.4459 10.4408 21.6678 10.4408C20.8897 10.4408 20.3932 10.0635 20.3932 9.80346C20.3932 9.54345 20.8897 9.16618 21.6678 9.16618Z"/><path d="M40 18.0882H38.1162C35.0801 18.0882 32.1161 19.0562 29.6689 20.8298L28.3147 16.0897L27.4155 17.2126C26.0147 18.9632 25.0091 21.0057 24.4699 23.1757L23.3464 22.0528L22.7066 23.653C22.017 25.3762 21.6678 27.1912 21.6678 29.0476C21.6678 29.8455 21.7341 30.6485 21.8653 31.4356L22.1521 33.1556C21.5148 34.1612 20.9298 35.2045 20.3989 36.2815C20.4289 30.161 21.0381 24.0201 22.2114 18.0117C23.0118 17.8027 23.6389 17.1507 23.7804 16.3L24.0207 14.8565C24.7217 14.3977 25.2302 13.7444 25.415 12.9905C27.5436 13.0001 29.3152 11.5815 29.3152 9.80346C29.3152 8.02542 27.5385 6.56667 25.415 6.61766C25.0601 5.16464 23.5146 4.06787 21.6678 4.06787C19.8209 4.06787 18.2755 5.16464 17.9205 6.61766C15.7799 6.57177 14.0203 8.02542 14.0203 9.80346C14.0203 11.5815 15.7754 12.995 17.9205 12.9893C18.1047 13.7432 18.6139 14.3964 19.3143 14.8552L19.5552 16.2981C19.6852 17.0781 20.2205 17.6969 20.9247 17.9556C20.2957 21.2103 19.8311 24.5019 19.531 27.8087C18.5151 24.672 16.6294 21.859 14.0197 19.6967V16.1763C14.0197 14.7048 13.1829 13.4271 11.9613 12.7879C12.4666 11.6522 12.7458 10.4178 12.7458 9.16617V9.04891C13.4856 8.78507 14.0203 8.08405 14.0203 7.25431V6.61702C14.7233 6.61702 15.2949 6.04537 15.2949 5.34244V4.06787C15.2949 3.35092 14.9954 2.70471 14.5168 2.2414L15.1878 1.23512L14.1274 0.528371L13.4022 1.61495C13.1919 1.55887 12.9739 1.51872 12.7458 1.51872V0.244141H11.4712V1.87305C11.0397 2.12478 10.6918 2.49504 10.4687 2.94433C9.12214 1.25807 7.09238 0.244141 4.86888 0.244141C3.96011 0.244141 3.17178 0.89035 2.99398 1.78128L2.78813 2.80922C2.64538 2.80476 2.50327 2.79329 2.35988 2.79329C1.05853 2.79329 0 3.85183 0 5.15317C0 5.32587 0.0191186 5.49858 0.0560813 5.66491L0.93044 9.59761C1.10442 10.3828 1.60788 11.0239 2.28723 11.3884C1.64038 12.6279 1.27458 14.0389 1.27458 15.539V16.1763C1.27458 17.2304 2.13236 18.0882 3.18644 18.0882H3.82373C4.73059 18.0882 5.61705 17.9525 6.47038 17.6873C6.85467 19.3736 8.36313 20.6373 10.1647 20.6373H13.1574C16.9487 23.7543 19.1186 28.3415 19.1186 33.2595V35.597C18.7057 35.1752 18.2806 34.7667 17.8441 34.3696V31.0914C17.8441 28.3033 16.5956 25.7057 14.4186 23.964L13.601 23.3101L12.9204 26.7139C10.2093 25.489 7.02227 25.4266 4.27556 26.5265L2.35796 27.2925L2.59504 27.8846C3.38272 29.8544 4.90393 31.4164 6.82726 32.2589L4.63691 33.61L6.10585 33.9758C7.73285 34.3811 9.40382 34.608 11.0812 34.6507L9.80276 37.2068H11.4712C13.4863 37.2068 15.481 36.588 17.1532 35.467C17.837 36.0986 18.4986 36.7537 19.1186 37.4503V38.4814H14.0203V39.756H25.4915V38.4814H20.7603L21.2892 37.3579C21.8367 36.1942 22.4542 35.0726 23.1304 33.9924L25.4182 34.4181C26.2728 34.5774 27.1478 34.6577 28.019 34.6577C30.2157 34.6577 32.4163 34.1383 34.3817 33.1556L36.4758 32.1085L33.0453 30.3936C34.9718 29.7359 36.6816 28.5416 37.9702 26.9306L38.591 26.1556L35.952 24.8358L40 18.0882ZM4.07163 10.9525L7.38808 14.2689C7.04649 14.636 6.78648 15.0585 6.61505 15.5174L3.30944 12.2118C3.52356 11.7657 3.77848 11.3451 4.07163 10.9525ZM8.56578 13.6438L4.91986 9.99847C5.26718 9.66771 5.64573 9.3701 6.05168 9.10881L9.63133 12.6885L8.97811 13.6686C8.84301 13.6527 8.70344 13.6508 8.56578 13.6438ZM11.4712 9.1018V9.16617C11.4712 10.1846 11.2583 11.1908 10.8683 12.1232L7.23322 8.48809C7.96928 8.18092 8.76526 7.98719 9.60201 7.92346C10.0609 8.51359 10.7122 8.94694 11.4712 9.1018ZM10.5235 13.6482C11.6209 13.7897 12.5023 14.6309 12.7024 15.7092C12.069 14.9445 11.2411 14.346 10.2947 13.9911L10.5235 13.6482ZM12.7458 7.25431C12.7458 7.60545 12.4596 7.89159 12.1085 7.89159C11.0544 7.89159 10.1966 7.0338 10.1966 5.97973C10.1966 5.71844 10.3553 5.49475 10.5803 5.39661C11.0295 6.12567 11.8287 6.61702 12.7458 6.61702V7.25431ZM12.7458 2.79329C13.4487 2.79329 14.0203 3.36494 14.0203 4.06787L14.021 5.34244H12.7458C12.0428 5.34244 11.4712 4.7708 11.4712 4.06787C11.4712 3.36494 12.0428 2.79329 12.7458 2.79329ZM4.2437 2.0311C4.30297 1.73412 4.56617 1.51872 4.86888 1.51872C6.94389 1.51872 8.8156 2.58745 9.89071 4.32724C9.68677 4.44387 9.50833 4.59554 9.36048 4.77589C7.73922 3.78045 5.94335 3.14826 4.06781 2.90928L4.2437 2.0311ZM2.17443 9.32167L1.3007 5.38833C1.2835 5.31185 1.27458 5.23283 1.27458 5.15317C1.27458 4.55475 1.76146 4.06787 2.35988 4.06787C4.70318 4.06787 6.96237 4.74275 8.92458 6.00777C8.92649 6.24484 8.95835 6.47363 9.00997 6.6954C8.52946 6.7585 8.06551 6.86747 7.61304 7.00258C6.14791 5.93385 4.36606 5.34244 2.54915 5.34244V6.61702C3.81799 6.61702 5.06771 6.95542 6.16512 7.57805C4.88927 8.22107 3.79632 9.15725 2.96785 10.3031C2.57146 10.1196 2.27321 9.76522 2.17443 9.32167ZM3.18644 16.8136C2.83529 16.8136 2.54915 16.5275 2.54915 16.1763V15.539C2.54915 14.8406 2.64857 14.1676 2.82127 13.5259L5.83437 16.5389C5.18306 16.7161 4.51072 16.8136 3.82373 16.8136H3.18644ZM10.1647 19.3628C8.77673 19.3628 7.64745 18.2335 7.64745 16.8455C7.64745 16.1731 7.90938 15.541 8.38479 15.0655L8.54157 14.9088C10.8823 15.0426 12.7458 16.9889 12.7458 19.3628H10.1647ZM11.8695 35.9233L13.1396 33.3831H11.6656C10.4203 33.3831 9.17631 33.276 7.9508 33.0632L9.78045 31.9345L7.91894 31.3145C6.23076 30.7517 4.84721 29.5575 4.04295 27.991L4.74907 27.7087C7.29376 26.6903 10.2712 26.8025 12.7368 28.0363L13.8444 28.5901L14.4237 25.6942C15.7984 27.1434 16.5695 29.0585 16.5695 31.0908V33.276C13.9668 31.1615 11.0244 29.4721 7.86541 28.323L7.4295 29.5211C10.6172 30.6804 13.5761 32.4125 16.1642 34.5927C14.8737 35.3886 13.3856 35.8539 11.8695 35.9233ZM18.3845 11.6713C18.2079 11.7007 18.0263 11.7153 17.8441 11.7153C16.4382 11.7153 15.2949 10.8575 15.2949 9.80346C15.2949 8.74938 16.4382 7.89159 17.8441 7.89159C18.0263 7.89159 18.2079 7.90625 18.3845 7.93557L19.139 8.05984L19.1256 7.29573L19.1199 7.2097C19.1511 6.17601 20.2823 5.34244 21.6678 5.34244C23.0552 5.34244 24.187 6.17793 24.2163 7.21288L24.1972 8.05984L24.9517 7.93557C25.1276 7.90625 25.3092 7.89159 25.4915 7.89159C26.8974 7.89159 28.0407 8.74938 28.0407 9.80346C28.0407 10.8575 26.8974 11.7153 25.4915 11.7153C25.3092 11.7153 25.1276 11.7007 24.9511 11.6713L24.1965 11.5471L24.2099 12.3112L24.2157 12.3972C24.1844 13.4309 23.0532 14.2645 21.6678 14.2645C20.2804 14.2645 19.1486 13.429 19.1193 12.394L19.1384 11.5471L18.3845 11.6713ZM20.7017 15.4237C21.012 15.4919 21.3319 15.539 21.6678 15.539C22.0036 15.539 22.3236 15.4919 22.6339 15.4237L22.523 16.089C22.4529 16.509 22.0935 16.8136 21.6678 16.8136C21.2421 16.8136 20.8826 16.509 20.8125 16.089L20.7017 15.4237ZM36.5931 26.582C35.1604 28.1618 33.2384 29.2152 31.1219 29.5683L29.1891 29.8901L33.6233 32.1073C31.1666 33.285 28.3249 33.6622 25.6502 33.1645L23.8881 32.8369C26.4016 29.1821 29.6498 26.0811 33.4723 23.7288L32.8044 22.6435C29.0062 24.9805 25.7483 28.0267 23.1858 31.6095L23.1214 31.2252C23.0029 30.5083 22.9424 29.7748 22.9424 29.047C22.9424 27.4238 23.2355 25.8351 23.8135 24.3215L25.2793 25.7873L25.4826 24.5656C25.8235 22.5199 26.6119 20.5666 27.78 18.8593L28.9711 23.0278L29.7231 22.4014C31.9797 20.5207 34.8157 19.4514 37.7459 19.3679L34.1503 25.3603L36.5931 26.582Z"/></svg>