<svg xmlns="http://www.w3.org/2000/svg" viewBox="0 0 72 68"><path d="M61.5723 27.8399C61.5723 30.0012 63.3309 31.7599 65.4923 31.7599C67.6536 31.7599 69.4123 30.0012 69.4123 27.8399C69.4123 25.6786 67.6536 23.9199 65.4923 23.9199C63.3309 23.9199 61.5723 25.6786 61.5723 27.8399ZM65.4923 26.1599C66.4188 26.1599 67.1723 26.9134 67.1723 27.8399C67.1723 28.7664 66.4188 29.5199 65.4923 29.5199C64.5657 29.5199 63.8123 28.7664 63.8123 27.8399C63.8123 26.9134 64.5657 26.1599 65.4923 26.1599Z"/><path d="M20.1317 14.96C19.5126 14.96 19.0117 15.4614 19.0117 16.08V27.28C19.0117 27.8985 19.5126 28.4 20.1317 28.4C20.7508 28.4 21.2517 27.8985 21.2517 27.28V16.08C21.2517 15.4614 20.7508 14.96 20.1317 14.96Z"/><path d="M23.4911 38.4798C24.1102 38.4798 24.6111 37.9783 24.6111 37.3598V23.9198C24.6111 23.3013 24.1102 22.7998 23.4911 22.7998C22.872 22.7998 22.3711 23.3013 22.3711 23.9198V37.3598C22.3711 37.9783 22.872 38.4798 23.4911 38.4798Z"/><path d="M24.6111 40.7199C24.6111 40.1013 24.1102 39.5999 23.4911 39.5999C22.872 39.5999 22.3711 40.1013 22.3711 40.7199V44.0799C22.3711 44.6984 22.872 45.1999 23.4911 45.1999C24.1102 45.1999 24.6111 44.6984 24.6111 44.0799V40.7199Z"/><path d="M25.7313 51.9199C25.1122 51.9199 24.6113 52.4214 24.6113 53.0399V56.3999C24.6113 57.0184 25.1122 57.5199 25.7313 57.5199C26.3504 57.5199 26.8513 57.0184 26.8513 56.3999V53.0399C26.8513 52.4214 26.3504 51.9199 25.7313 51.9199Z"/><path d="M51.4914 42.9599C51.4914 37.4019 46.9699 32.8799 41.4114 32.8799H38.1939L57.6556 21.5273C58 21.3265 58.2111 20.9581 58.2111 20.5599V16.0799C58.2111 15.7053 58.024 15.3558 57.7124 15.1481C57.4008 14.9397 57.0068 14.9008 56.6602 15.0464L49.9564 17.8397C51.255 15.6313 51.7221 12.9327 51.0448 10.2593L49.3942 3.74478C49.3208 3.45666 49.136 3.20942 48.8812 3.05794C48.6253 2.9059 48.3212 2.86054 48.0325 2.93446C42.6459 4.29946 39.3721 9.79334 40.7371 15.1811L42.2267 21.0603L31.3314 25.5999V4.8799C31.3314 1.93878 26.8239 0.399902 22.3714 0.399902C17.9188 0.399902 13.4114 1.93878 13.4114 4.8799V39.8681C12.2978 38.2408 10.7298 36.9774 8.85912 36.2265L2.62352 33.7219C2.34688 33.611 2.03944 33.6146 1.76616 33.7305C1.4926 33.8476 1.27728 34.0679 1.16668 34.3435C0.162604 36.8422 0.192284 39.582 1.24984 42.0577C2.30628 44.5346 4.26544 46.4507 6.76332 47.4536L12.9989 49.9582C13.1316 50.0117 13.2708 50.0375 13.4114 50.038V63.1199C13.4114 66.061 17.9188 67.5999 22.3714 67.5999C26.8239 67.5999 31.3314 66.061 31.3314 63.1199V37.3599V36.8831L33.6962 35.5035C34.4259 40.3489 38.6055 44.0799 43.6514 44.0799H50.3714C50.9904 44.0799 51.4914 43.5784 51.4914 42.9599ZM47.5179 5.45782L48.8731 10.8089C49.8422 14.6303 47.8099 18.5215 44.2651 19.9817L42.9099 14.6306C41.9408 10.8092 43.9731 6.91802 47.5179 5.45782ZM12.7212 47.4329L7.59912 45.3749C5.65564 44.5951 4.13188 43.1044 3.30952 41.1783C2.63584 39.5999 2.49892 37.8843 2.90156 36.2472L8.0236 38.3052C9.96708 39.085 11.4908 40.5757 12.3132 42.5018C12.9869 44.0799 13.1238 45.7955 12.7212 47.4329ZM22.3714 2.6399C26.5397 2.6399 29.0914 4.0903 29.0914 4.8799C29.0914 5.6695 26.5397 7.1199 22.3714 7.1199C18.203 7.1199 15.6514 5.6695 15.6514 4.8799C15.6514 4.0903 18.203 2.6399 22.3714 2.6399ZM30.2114 30.6399C29.5923 30.6399 29.0914 31.1414 29.0914 31.7599V36.2399V37.3599V63.1199C29.0914 63.9095 26.5397 65.3599 22.3714 65.3599C21.0792 65.3599 19.965 65.2112 19.0114 64.9953V51.9199C19.0114 51.3014 18.5104 50.7999 17.8914 50.7999C17.2723 50.7999 16.7714 51.3014 16.7714 51.9199V64.2192C16.0504 63.8353 15.6514 63.4279 15.6514 63.1199V7.9403C17.3778 8.8783 19.8824 9.3599 22.3714 9.3599C23.1243 9.3599 23.8772 9.3123 24.6114 9.22494V16.0799C24.6114 16.6984 25.1123 17.1999 25.7314 17.1999C26.3504 17.1999 26.8514 16.6984 26.8514 16.0799V8.80018C27.679 8.57814 28.4418 8.2931 29.0914 7.9403V27.2799C29.0914 27.6545 29.2784 28.004 29.59 28.2117C29.9017 28.4195 30.2956 28.4584 30.6423 28.3134L55.9714 17.7599V19.9167L31.3314 34.29V31.7599C31.3314 31.1414 30.8304 30.6399 30.2114 30.6399ZM43.6514 41.8399C39.7084 41.8399 36.4358 38.9142 35.8912 35.1199H41.4114C45.3543 35.1199 48.627 38.0456 49.1716 41.8399H43.6514Z"/><path d="M71.134 56.8883C70.5619 55.3788 69.4528 53.7543 68.0125 52.3137C67.0745 51.3757 66.0973 50.616 65.138 50.0395C65.3724 49.3863 65.4914 48.7031 65.4914 48C65.4914 45.5287 64.025 43.3985 61.92 42.4182L64.4831 40.496C64.9787 40.1253 65.0792 39.423 64.7074 38.928C64.3367 38.4329 63.6344 38.3313 63.14 38.7043L59.3314 41.56L55.5228 38.7043C55.0284 38.333 54.3272 38.4341 53.9554 38.928C53.5836 39.423 53.6841 40.125 54.1797 40.496L56.7428 42.4182C54.6378 43.3987 53.1714 45.5287 53.1714 48C53.1714 48.7213 53.298 49.4196 53.5435 50.0857C52.6089 50.6566 51.6583 51.4006 50.7455 52.3137C49.3049 53.7543 48.1961 55.3788 47.624 56.8883C46.9406 58.6898 47.0761 60.1931 48.0046 61.1216C48.5416 61.6587 49.2766 61.9157 50.134 61.9157C51.1901 61.9157 52.4328 61.5133 53.7157 60.7795C55.1289 64.5673 58.4841 67.2391 58.6398 67.3617C58.8434 67.5207 59.0872 67.6003 59.3311 67.6003C59.575 67.6003 59.8189 67.521 60.0224 67.3617C60.1784 67.2391 63.5602 64.5469 64.9636 60.7347C66.2746 61.4979 67.546 61.916 68.6238 61.916C69.4803 61.916 70.2164 61.6589 70.7532 61.1219C71.6819 60.1931 71.8177 58.6898 71.134 56.8883ZM55.4114 48C55.4114 45.8387 57.1701 44.08 59.3314 44.08C61.4927 44.08 63.2514 45.8387 63.2514 48C63.2514 48.371 63.1803 48.7288 63.0764 49.0788C61.579 48.6006 60.259 48.6924 59.379 49.4271C58.4822 48.6793 57.1281 48.6011 55.5956 49.1096C55.4859 48.7507 55.4114 48.383 55.4114 48ZM49.5882 59.5379C49.3805 59.3307 49.341 58.6767 49.7173 57.6829C50.1734 56.4809 51.126 55.1011 52.3292 53.8973C54.3953 51.8318 56.4166 50.9957 57.4162 50.9957C57.6744 50.9957 57.8648 51.0514 57.9698 51.1564C58.4805 51.6677 57.8286 54.1969 55.2288 56.797C52.629 59.3957 50.0981 60.0475 49.5882 59.5379ZM59.3303 64.9898C58.287 64.0109 56.3715 61.9353 55.6368 59.4394C56.0324 59.1126 56.4264 58.7668 56.8125 58.3807C57.9191 57.2741 58.7804 56.1127 59.379 54.9913C59.9776 56.1127 60.8389 57.2741 61.9455 58.3807C62.3075 58.7427 62.6763 59.0695 63.0467 59.3792C62.3271 61.8922 60.3817 63.9997 59.3303 64.9898ZM69.1698 59.5379C68.6568 60.0481 66.1281 59.3957 63.5292 56.797C60.9294 54.1972 60.2775 51.668 60.7882 51.1564C60.8932 51.052 61.0836 50.9957 61.3418 50.9957C62.3414 50.9957 64.3627 51.8323 66.4288 53.8973C67.632 55.1011 68.5846 56.4809 69.0407 57.6829C69.417 58.6767 69.3775 59.3307 69.1698 59.5379Z"/><path d="M59.3319 4.74326C59.951 4.74326 60.4519 4.24178 60.4519 3.62326V2.03846C60.4519 1.41994 59.951 0.918457 59.3319 0.918457C58.7128 0.918457 58.2119 1.41994 58.2119 2.03846V3.62326C58.2119 4.24178 58.7128 4.74326 59.3319 4.74326Z"/><path d="M59.3319 11.0814C59.951 11.0814 60.4519 10.5799 60.4519 9.96139V8.37659C60.4519 7.75807 59.951 7.25659 59.3319 7.25659C58.7128 7.25659 58.2119 7.75807 58.2119 8.37659V9.96139C58.2119 10.5799 58.7128 11.0814 59.3319 11.0814Z"/><path d="M55.37 7.11988H56.9548C57.5739 7.11988 58.0748 6.6184 58.0748 5.99988C58.0748 5.38136 57.5739 4.87988 56.9548 4.87988H55.37C54.7509 4.87988 54.25 5.38136 54.25 5.99988C54.25 6.6184 54.7509 7.11988 55.37 7.11988Z"/><path d="M61.7089 7.11988H63.2937C63.9127 7.11988 64.4137 6.6184 64.4137 5.99988C64.4137 5.38136 63.9127 4.87988 63.2937 4.87988H61.7089C61.0898 4.87988 60.5889 5.38136 60.5889 5.99988C60.5889 6.6184 61.0898 7.11988 61.7089 7.11988Z"/></svg>