<svg xmlns="http://www.w3.org/2000/svg" viewBox="0 0 36 36"><path d="M35.055 7.04911C34.136 6.12507 32.8855 5.60712 31.5823 5.61069C31.1109 5.61069 30.642 5.67832 30.1898 5.8115C30.3229 5.35931 30.3906 4.89037 30.3906 4.41896C30.3942 3.11573 29.8762 1.86524 28.9522 0.946263L28.0071 0.0012207L27.0621 0.946263C25.6738 2.32092 25.245 4.39394 25.974 6.20656H22.2952L23.4869 5.01483L20.8567 2.38468L17.0349 6.20656H0.00146501V9.78175H11.3229V12.1652H8.93944C7.95217 12.1652 7.15184 12.9655 7.15184 13.9528C7.15378 14.1563 7.19087 14.3578 7.26148 14.5487H5.96011C4.64377 14.5487 3.57665 15.6158 3.57665 16.9321C3.57896 17.3518 3.69337 17.7632 3.90796 18.1239H3.57665C2.26031 18.1244 1.19364 19.1919 1.19416 20.5083C1.19439 20.9834 1.33657 21.4477 1.60255 21.8415C0.364868 22.2649 -0.295276 23.6115 0.128161 24.8492C0.365241 25.5422 0.909563 26.0865 1.60255 26.3236C0.865693 27.4144 1.15268 28.896 2.24348 29.6328C2.6372 29.8987 3.10145 30.0409 3.57665 30.0412H3.90796C3.69337 30.4018 3.57896 30.8132 3.57665 31.2329C3.57665 32.5492 4.64377 33.6163 5.96011 33.6163H7.26148C7.19087 33.8072 7.15378 34.0087 7.15184 34.2122C7.15184 35.1995 7.95217 35.9998 8.93944 35.9998H17.8774C18.8647 35.9998 19.665 35.1995 19.665 34.2122C19.6631 34.0087 19.626 33.8072 19.5554 33.6163H20.8567C22.1731 33.6163 23.2402 32.5492 23.2402 31.2329C23.2379 30.8132 23.1235 30.4018 22.9089 30.0412H23.2402C24.5565 30.0406 25.6232 28.9731 25.6227 27.6567C25.6225 27.1816 25.4803 26.7174 25.2143 26.3236C26.452 25.9001 27.1121 24.5535 26.6887 23.3159C26.4516 22.6229 25.9073 22.0785 25.2143 21.8415C25.9512 20.7507 25.6642 19.269 24.5734 18.5322C24.1797 18.2663 23.7154 18.1241 23.2402 18.1239H22.9089C23.1235 17.7632 23.2379 17.3518 23.2402 16.9321C23.2402 15.6158 22.1731 14.5487 20.8567 14.5487H19.5554C19.626 14.3578 19.6631 14.1563 19.665 13.9528C19.665 12.9655 18.8647 12.1652 17.8774 12.1652H14.8981V9.78175H28.603V9.36464C30.5556 10.8625 33.3163 10.6802 35.055 8.9386L36 7.99415L35.055 7.04911ZM3.57665 28.8494C2.91845 28.8494 2.38492 28.3159 2.38492 27.6577C2.38492 26.9995 2.91845 26.466 3.57665 26.466H10.1908C10.186 26.4874 10.1908 26.5095 10.1842 26.5309C10.15 26.7059 10.1323 26.8836 10.1312 27.0618V28.8494H3.57665ZM17.8774 34.8081H8.93944C8.61037 34.8081 8.34357 34.5413 8.34357 34.2122C8.34357 33.8831 8.61037 33.6163 8.93944 33.6163H17.8774C18.2065 33.6163 18.4733 33.8831 18.4733 34.2122C18.4733 34.5413 18.2066 34.8081 17.8774 34.8081ZM20.8567 32.4246H5.96011C5.30191 32.4246 4.76838 31.8911 4.76838 31.2329C4.76838 30.5747 5.30191 30.0412 5.96011 30.0412H20.8567C21.5149 30.0412 22.0485 30.5747 22.0485 31.2329C22.0485 31.8911 21.5149 32.4246 20.8567 32.4246ZM11.3229 28.8494V27.0618C11.3178 26.0785 12.1109 25.2773 13.0942 25.2723C13.7359 25.269 14.3296 25.6112 14.6484 26.168C14.8103 26.4382 14.8965 26.7469 14.8981 27.0618V28.8494H11.3229ZM23.2402 28.8494H16.0898V27.0618C16.0879 26.8835 16.0693 26.7058 16.0344 26.5309C16.0302 26.5095 16.0344 26.4874 16.0278 26.466H23.2402C23.8984 26.466 24.4319 26.9995 24.4319 27.6577C24.4319 28.3159 23.8984 28.8494 23.2402 28.8494ZM25.6237 24.0825C25.6237 24.7407 25.0901 25.2742 24.4319 25.2742H15.4814C15.4767 25.2683 15.4713 25.2629 15.4665 25.2564C15.4457 25.229 15.4219 25.2045 15.3998 25.1777C15.3402 25.1086 15.2848 25.0407 15.221 24.9769C15.1901 24.9453 15.1573 24.9173 15.1251 24.8869C15.0655 24.8333 15.0059 24.7803 14.9464 24.7314C14.9094 24.7016 14.8707 24.6718 14.8325 24.6468C14.773 24.6027 14.7092 24.561 14.6454 24.5217C14.6037 24.496 14.562 24.4722 14.5197 24.449C14.4542 24.4132 14.388 24.3804 14.3201 24.3501C14.276 24.3298 14.2325 24.3101 14.1872 24.2905C14.1169 24.2625 14.0448 24.2386 13.9721 24.2166C13.9274 24.2029 13.8839 24.188 13.8386 24.1761C13.7588 24.1552 13.6772 24.1403 13.5955 24.1266C13.5562 24.12 13.5175 24.1105 13.4764 24.1052C13.2312 24.0719 12.9827 24.0719 12.7375 24.1052C12.6976 24.1105 12.6588 24.1195 12.6183 24.1266C12.5367 24.1403 12.455 24.1552 12.3752 24.1761C12.3299 24.188 12.2864 24.2029 12.2417 24.2166C12.169 24.2392 12.0975 24.2625 12.0266 24.2905C11.9813 24.3083 11.9378 24.328 11.8937 24.3501C11.8258 24.381 11.7597 24.4132 11.6941 24.449C11.6518 24.4722 11.6095 24.4966 11.5684 24.5217C11.504 24.561 11.4421 24.6027 11.3813 24.6468C11.3426 24.6742 11.3044 24.7016 11.2675 24.7314C11.2079 24.7803 11.1483 24.8333 11.0887 24.8869C11.0565 24.9167 11.0238 24.9465 10.9928 24.9769C10.9332 25.0407 10.8736 25.1086 10.814 25.1777C10.792 25.2045 10.7681 25.229 10.7473 25.2564C10.7425 25.2623 10.7372 25.2677 10.7324 25.2742H2.38492C1.72672 25.2742 1.19319 24.7407 1.19319 24.0825C1.19319 23.4243 1.72672 22.8908 2.38492 22.8908H24.4319C25.0901 22.8908 25.6237 23.4243 25.6237 24.0825ZM23.2402 19.3156C23.8984 19.3156 24.4319 19.8491 24.4319 20.5073C24.4319 21.1655 23.8984 21.699 23.2402 21.699H3.57665C2.91845 21.699 2.38492 21.1655 2.38492 20.5073C2.38492 19.8491 2.91845 19.3156 3.57665 19.3156H23.2402ZM20.8567 15.7404C21.5149 15.7404 22.0485 16.2739 22.0485 16.9321C22.0485 17.5903 21.5149 18.1239 20.8567 18.1239H5.96011C5.30191 18.1239 4.76838 17.5903 4.76838 16.9321C4.76838 16.2739 5.30191 15.7404 5.96011 15.7404H20.8567ZM17.8774 13.3569C18.2065 13.3569 18.4733 13.6237 18.4733 13.9528C18.4733 14.2819 18.2065 14.5487 17.8774 14.5487H8.93944C8.61037 14.5487 8.34357 14.2819 8.34357 13.9528C8.34357 13.6237 8.61037 13.3569 8.93944 13.3569H17.8774ZM12.5146 12.1652V9.78175H13.7064V12.1652H12.5146ZM1.19319 8.59002V7.39829H17.5282L20.8567 4.06979L21.8018 5.01483L19.4183 7.39829H26.6313C26.6444 7.41557 26.6599 7.42927 26.673 7.44596C26.7933 7.60222 26.9231 7.75112 27.0615 7.89166L27.164 7.99415L27.4107 8.24084L27.4113 8.59002H1.19319ZM28.1096 7.04911L28.0071 7.1516L27.9046 7.04911C27.7293 6.87326 27.5718 6.68042 27.4345 6.47351C26.4566 4.99934 26.6529 3.04021 27.904 1.78941L27.9046 1.78882L28.0071 1.68633L28.1096 1.78882C29.562 3.24146 29.562 5.59639 28.1096 7.04911ZM34.2125 8.09664C32.7598 9.54899 30.4049 9.54899 28.9522 8.09664L28.8497 7.99415L28.9522 7.89166C30.4048 6.43932 32.7597 6.43932 34.2125 7.89166L34.3149 7.99415L34.2125 8.09664Z"/><path d="M34.1486 18.6554C34.6609 17.7656 34.5145 16.643 33.7911 15.9144L33.4735 15.5968C34.3817 15.2099 34.8044 14.1599 34.4175 13.2516C34.1368 12.5928 33.4901 12.1651 32.7739 12.1646H32.6714C32.1971 12.1635 31.7421 12.3521 31.4076 12.6884L30.9863 13.1097L30.8117 12.9351C30.2325 12.3599 29.3896 12.1393 28.6029 12.3571V10.9729H27.4111V12.7605H25.6235V13.9522H27.0077C26.7899 14.7389 27.0104 15.582 27.5857 16.1611L27.7603 16.3357L27.339 16.757C27.0027 17.0914 26.8141 17.5465 26.8153 18.0208V18.1233C26.8159 19.1106 27.6166 19.9104 28.6039 19.9098C29.3201 19.9094 29.9668 19.4816 30.2474 18.8228L30.565 19.1404C31.2906 19.8701 32.4176 20.0172 33.306 19.4979L34.1402 20.3322L34.9828 19.4896L34.1486 18.6554ZM29.1987 18.1233C29.1987 18.4523 28.9319 18.7191 28.6029 18.7191C28.2738 18.7191 28.007 18.4523 28.007 18.1233V18.0208C28.0075 17.8629 28.0702 17.7115 28.1816 17.5995L29.0241 16.757L29.1987 16.5824V18.1233ZM29.3739 14.7221L28.6029 15.4931L28.4283 15.3185C28.0039 14.8928 28.0039 14.204 28.4283 13.7782C28.8542 13.3543 29.5427 13.3543 29.9686 13.7782L29.9692 13.7776L30.1438 13.9522L29.3739 14.7221ZM30.3905 17.2807V15.7398H31.9314L32.2293 16.0378L30.6884 17.5787L30.3905 17.2807ZM32.8209 18.4087C32.4402 18.6859 31.9242 18.6859 31.5435 18.4087L33.0593 16.8928C33.4121 17.3773 33.3053 18.0559 32.8209 18.4087ZM32.7739 14.5481H31.233L31.4076 14.3735L32.2501 13.5309C32.3621 13.4196 32.5135 13.3569 32.6714 13.3564H32.7739C33.103 13.3564 33.3698 13.6232 33.3698 13.9522C33.3698 14.2813 33.1031 14.5481 32.7739 14.5481Z"/></svg>