<svg xmlns="http://www.w3.org/2000/svg" viewBox="0 0 57 57"><path d="M54.7568 22.7421C53.7731 21.8145 52.6634 21.2004 51.5951 20.8924C51.6374 20.6727 51.6659 20.4511 51.6659 20.2259C51.6659 19.0031 51.0325 17.9266 50.0699 17.2573L51.4967 15.2402L49.9954 14.1793L48.2873 16.5935C48.1328 16.5751 47.9802 16.5484 47.8202 16.5484C47.6603 16.5484 47.5077 16.5751 47.3532 16.5935L45.6441 14.1783L44.1428 15.2411L45.5697 17.2573C44.6071 17.9266 43.9737 19.0031 43.9737 20.2259C43.9737 20.4483 44.0022 20.6681 44.0435 20.885C42.967 21.1903 41.8481 21.8072 40.8552 22.7421C40.4672 23.1071 40.1271 23.4988 39.831 23.9033H20.2258C18.7052 23.9033 17.4677 25.1407 17.4677 26.6613V27.5807H6.43548C4.91487 27.5807 3.67742 28.8182 3.67742 30.3388V32.1775C3.67742 32.8863 3.95323 33.5271 4.39452 34.0162C3.95323 34.5053 3.67742 35.1461 3.67742 35.8549V37.6936C3.67742 38.4024 3.95323 39.0432 4.39452 39.5323C3.95323 40.0214 3.67742 40.6622 3.67742 41.371V43.2097C3.67742 43.5333 3.74361 43.8404 3.84658 44.1291H2.75806C1.23745 44.1291 0 45.3665 0 46.8872C0 48.4078 1.23745 49.6452 2.75806 49.6452H3.06697C5.00129 54.0673 9.42706 57.0001 14.2905 57.0001H31.6773C36.5407 57.0001 40.9655 54.0673 42.9008 49.6452H43.2097C44.7303 49.6452 45.9677 48.4078 45.9677 46.8872C45.9677 45.3665 44.7303 44.1291 43.2097 44.1291H42.1212C42.2241 43.8404 42.2903 43.5333 42.2903 43.2097V42.4926C42.8502 41.9879 43.2097 41.2644 43.2097 40.4517V29.8083C43.7264 29.6483 44.2495 29.4121 44.7643 29.1041C45.4768 30.4491 46.5855 31.2581 47.8202 31.2581C49.0605 31.2581 50.1609 30.4564 50.8707 29.1179C51.9105 29.7347 52.9907 30.0648 53.9551 30.0648C54.811 30.0648 55.575 29.8111 56.1367 29.2797C56.7021 28.7492 57 28.0119 57 27.1486C57 25.7126 56.1616 24.0651 54.7568 22.7421ZM47.8202 18.3872C48.9271 18.3872 49.8272 19.2118 49.8272 20.2259C49.8272 20.3886 49.8024 20.5467 49.7582 20.6993C49.0696 20.7692 48.4482 20.9972 47.9775 21.4412C47.9122 21.5019 47.8635 21.5755 47.8065 21.6417C47.7485 21.5755 47.6998 21.5019 47.6345 21.4412C47.1703 21.0036 46.5598 20.7756 45.8822 20.7021C45.8372 20.5486 45.8124 20.3895 45.8124 20.2259C45.8124 19.2118 46.7124 18.3872 47.8202 18.3872ZM5.51613 30.3388C5.51613 29.8313 5.928 29.4194 6.43548 29.4194H17.4677H18.3871H29.4194C29.9268 29.4194 30.3387 29.8313 30.3387 30.3388V33.0968H6.43548C5.928 33.0968 5.51613 32.685 5.51613 32.1775V30.3388ZM5.51613 35.8549C5.51613 35.3474 5.928 34.9355 6.43548 34.9355H30.3387C30.3387 36.4562 31.5762 37.6936 33.0968 37.6936C34.6174 37.6936 35.8548 36.4562 35.8548 34.9355V33.0968C35.8548 32.5893 36.2667 32.1775 36.7742 32.1775C37.2817 32.1775 37.6935 32.5893 37.6935 33.0968V34.9355H39.5323V33.0968C39.5323 31.5762 38.2948 30.3388 36.7742 30.3388C35.2536 30.3388 34.0161 31.5762 34.0161 33.0968V34.9355C34.0161 35.443 33.6043 35.8549 33.0968 35.8549C32.5893 35.8549 32.1774 35.443 32.1774 34.9355V30.3388C32.1774 28.8182 30.94 27.5807 29.4194 27.5807H19.3065V26.6613C19.3065 26.1539 19.7183 25.742 20.2258 25.742H38.8639C38.7048 26.221 38.6129 26.6954 38.6129 27.1486C38.6129 28.011 38.9108 28.7483 39.4753 29.2797C39.9726 29.7495 40.6336 29.9903 41.371 30.0427V40.4517C41.371 40.9592 40.9591 41.371 40.4516 41.371C39.9441 41.371 39.5323 40.9592 39.5323 40.4517V36.7742H37.6935V38.613H6.43548C5.928 38.613 5.51613 38.2011 5.51613 37.6936V35.8549ZM5.51613 41.371C5.51613 40.8635 5.928 40.4517 6.43548 40.4517H37.6935C37.6935 41.9723 38.931 43.2097 40.4516 43.2097C40.4516 43.7172 40.0397 44.1291 39.5323 44.1291H6.43548C5.928 44.1291 5.51613 43.7172 5.51613 43.2097V41.371ZM31.6773 55.1613H14.2905C10.4328 55.1613 6.89976 52.9898 5.10794 49.6452H40.8598C39.068 52.9898 35.5349 55.1613 31.6773 55.1613ZM43.2097 45.9678C43.7172 45.9678 44.129 46.3797 44.129 46.8872C44.129 47.3946 43.7172 47.8065 43.2097 47.8065H2.75806C2.25058 47.8065 1.83871 47.3946 1.83871 46.8872C1.83871 46.3797 2.25058 45.9678 2.75806 45.9678H6.43548H39.5323H43.2097ZM44.9941 26.6411C43.3807 28.1617 41.4151 28.5819 40.7357 27.9411C40.5472 27.7637 40.4516 27.497 40.4516 27.1486C40.4516 26.4232 40.8892 25.2363 42.1156 24.0798C43.2455 23.0161 44.5473 22.4902 45.4593 22.4902C45.851 22.4902 46.17 22.5858 46.3741 22.778C46.5626 22.9563 46.6591 23.2239 46.6591 23.5723C46.6591 24.4981 46.0211 25.673 44.9941 26.6411ZM47.8202 29.4194C47.2309 29.4194 46.6407 28.8678 46.2527 27.9825C46.2537 27.9815 46.2546 27.9806 46.2555 27.9806C46.9046 27.3692 47.4268 26.6871 47.8074 25.9893C48.188 26.6871 48.7093 27.3683 49.3583 27.9806C49.3648 27.9861 49.3712 27.9907 49.3767 27.9972C48.9897 28.8632 48.4022 29.4194 47.8202 29.4194ZM54.8763 27.9429C54.195 28.5837 52.2322 28.1636 50.6178 26.643C49.5918 25.6749 48.9529 24.4999 48.9529 23.5742C48.9529 23.2257 49.0485 22.9582 49.2379 22.7798C49.442 22.5877 49.761 22.4921 50.1526 22.4921C51.0646 22.4921 52.3665 23.017 53.4963 24.0816C54.7237 25.2363 55.1613 26.4232 55.1613 27.1486C55.1613 27.497 55.0648 27.7637 54.8763 27.9429Z"/><path d="M12.8709 19.3064C14.3915 19.3064 15.6289 18.069 15.6289 16.5484V13.7903H17.4676V19.3064C17.4676 20.8271 18.7051 22.0645 20.2257 22.0645C21.7463 22.0645 22.9838 20.8271 22.9838 19.3064V17.4677H21.145V19.3064C21.145 19.8139 20.7332 20.2258 20.2257 20.2258C19.7182 20.2258 19.3063 19.8139 19.3063 19.3064V11.0323C19.3063 9.51164 18.0689 8.27419 16.5483 8.27419C15.0277 8.27419 13.7902 9.51164 13.7902 11.0323V16.5484C13.7902 17.0559 13.3783 17.4677 12.8709 17.4677C12.3634 17.4677 11.9515 17.0559 11.9515 16.5484V4.59677C11.9515 3.07616 13.189 1.83871 14.7096 1.83871H20.2257C20.7332 1.83871 21.145 2.25058 21.145 2.75806V15.629H22.9838V13.7903H23.9031C25.1746 13.7903 26.2364 12.9215 26.5545 11.7494C26.8726 11.8771 27.2174 11.9516 27.5805 11.9516H28.4999C29.6969 11.9516 30.7082 11.1803 31.0888 10.1129H54.2418C55.7624 10.1129 56.9999 8.87545 56.9999 7.35484C56.9999 5.83423 55.7624 4.59677 54.2418 4.59677H31.0888C30.7082 3.5294 29.6969 2.75806 28.4999 2.75806H27.5805C27.2174 2.75806 26.8726 2.83253 26.5545 2.96032C26.2364 1.78815 25.1746 0.919355 23.9031 0.919355H22.9838C22.7631 0.919355 22.548 0.953371 22.3365 1.00394C21.83 0.396242 21.077 0 20.2257 0H14.7096C12.1749 0 10.1128 2.06211 10.1128 4.59677V16.5484C10.1128 18.069 11.3502 19.3064 12.8709 19.3064ZM15.6289 11.0323C15.6289 10.5248 16.0408 10.1129 16.5483 10.1129C17.0558 10.1129 17.4676 10.5248 17.4676 11.0323V11.9516H15.6289V11.0323ZM31.258 6.43548H54.2418C54.7493 6.43548 55.1612 6.84735 55.1612 7.35484C55.1612 7.86232 54.7493 8.27419 54.2418 8.27419H31.258V6.43548ZM26.6612 5.51613C26.6612 5.00864 27.073 4.59677 27.5805 4.59677H28.4999C29.0074 4.59677 29.4192 5.00864 29.4192 5.51613V9.19355C29.4192 9.70103 29.0074 10.1129 28.4999 10.1129H27.5805C27.073 10.1129 26.6612 9.70103 26.6612 9.19355V5.51613ZM22.9838 2.75806H23.9031C24.4106 2.75806 24.8225 3.16994 24.8225 3.67742V5.51613V9.19355V11.0323C24.8225 11.5397 24.4106 11.9516 23.9031 11.9516H22.9838V2.75806Z"/></svg>