<svg xmlns="http://www.w3.org/2000/svg" viewBox="0 0 42 57"><path d="M0 53.1094C0 53.8926 0.31607 54.6437 0.878679 55.1975C1.44129 55.7514 2.20435 56.0625 3 56.0625H39C39.7956 56.0625 40.5587 55.7514 41.1213 55.1975C41.6839 54.6437 42 53.8926 42 53.1094V25.5469C42.001 25.377 41.9573 25.2097 41.8732 25.0614C41.7891 24.913 41.6674 24.7887 41.52 24.7003L41 24.3952V19.6406C41.0144 19.5361 41.0144 19.4301 41 19.3256C40.9304 19.1219 40.795 18.9462 40.6144 18.8253C40.4339 18.7044 40.2181 18.645 40 18.6562H35V9.79688C35 9.58389 34.9298 9.37664 34.8 9.20625L33 6.84375H34C34.2652 6.84375 34.5196 6.74004 34.7071 6.55543C34.8946 6.37083 35 6.12045 35 5.85938V1.92188C35 1.6608 34.8946 1.41042 34.7071 1.22582C34.5196 1.04121 34.2652 0.9375 34 0.9375H18C17.7348 0.9375 17.4804 1.04121 17.2929 1.22582C17.1054 1.41042 17 1.6608 17 1.92188V5.85938C17 6.12045 17.1054 6.37083 17.2929 6.55543C17.4804 6.74004 17.7348 6.84375 18 6.84375H19L17.2 9.20625C17.0702 9.37664 17 9.58389 17 9.79688V10.7812H7C6.73478 10.7812 6.48043 10.885 6.29289 11.0696C6.10536 11.2542 6 11.5046 6 11.7656V15.7031C6 15.9642 6.10536 16.2146 6.29289 16.3992C6.48043 16.5838 6.73478 16.6875 7 16.6875V18.6562H2C1.79036 18.6557 1.58584 18.7201 1.41537 18.8402C1.2449 18.9603 1.11709 19.1301 1.05 19.3256C1.01883 19.4279 1.00201 19.5339 1 19.6406V19.6406V24.3952L0.49 24.7003C0.340723 24.7874 0.217048 24.9113 0.131136 25.0597C0.0452234 25.2082 3.02676e-05 25.376 0 25.5469V53.1094ZM39 54.0938H3C2.73478 54.0938 2.48043 53.99 2.29289 53.8054C2.10536 53.6208 2 53.3704 2 53.1094V26.5312H40V53.1094C40 53.3704 39.8946 53.6208 39.7071 53.8054C39.5196 53.99 39.2652 54.0938 39 54.0938ZM9 22.5938H21V24.5625H9V22.5938ZM24 15.7031V14.7188H33V24.5625H23V16.6875C23.2652 16.6875 23.5196 16.5838 23.7071 16.3992C23.8946 16.2146 24 15.9642 24 15.7031ZM39 21.6094V23.2139L37.79 22.5052L39 21.6094ZM37 20.625L35.4 21.8063C35.2688 21.9028 35.1637 22.0296 35.094 22.1755C35.0242 22.3214 34.992 22.4819 35 22.643C35.0084 22.8054 35.0576 22.9632 35.1431 23.1023C35.2286 23.2415 35.3478 23.3576 35.49 23.4403L37.39 24.5625H35V20.625H37ZM23 4.875V2.90625H25V4.875H23ZM27 2.90625H29V4.875H27V2.90625ZM33 4.875H31V2.90625H33V4.875ZM19 2.90625H21V4.875H19V2.90625ZM19 10.1217L21.5 6.84375H30.5L33 10.1217V12.75H24V11.7656C24 11.5046 23.8946 11.2542 23.7071 11.0696C23.5196 10.885 23.2652 10.7812 23 10.7812H19V10.1217ZM8 12.75H22V14.7188H8V12.75ZM21 16.6875V20.625H9V16.6875H21ZM6.6 21.8063L5 20.625H7V24.5625H4.61L6.51 23.4403C6.65223 23.3576 6.77142 23.2415 6.85692 23.1023C6.94243 22.9632 6.99158 22.8054 7 22.643C7.00804 22.4819 6.97577 22.3214 6.90602 22.1755C6.83628 22.0296 6.73119 21.9028 6.6 21.8063ZM3 21.6094L4.21 22.5052L3 23.2139V21.6094Z"/><path d="M32 28.5C31.2965 28.5054 30.6172 28.754 30.081 29.2024C29.5448 29.6507 29.1857 30.2704 29.0666 30.9529C28.9475 31.6355 29.0758 32.3376 29.4292 32.9364C29.7826 33.5353 30.3386 33.9928 31 34.2291V40.3125C31 42.9232 29.9464 45.427 28.0711 47.2731C26.1957 49.1191 23.6522 50.1562 21 50.1562C18.3478 50.1562 15.8043 49.1191 13.9289 47.2731C12.0536 45.427 11 42.9232 11 40.3125V34.2291C11.6672 33.9968 12.2296 33.5399 12.5876 32.9391C12.9457 32.3382 13.0765 31.632 12.9568 30.9454C12.8371 30.2588 12.4747 29.636 11.9337 29.187C11.3926 28.738 10.7077 28.4917 10 28.4917C9.29232 28.4917 8.60741 28.738 8.06634 29.187C7.52528 29.636 7.16288 30.2588 7.04321 30.9454C6.92354 31.632 7.0543 32.3382 7.41237 32.9391C7.77045 33.5399 8.33279 33.9968 9.00001 34.2291V40.3125C9.00001 43.4454 10.2643 46.4499 12.5147 48.6652C14.7652 50.8805 17.8174 52.125 21 52.125C24.1826 52.125 27.2349 50.8805 29.4853 48.6652C31.7357 46.4499 33 43.4454 33 40.3125V34.2291C33.6614 33.9928 34.2174 33.5353 34.5708 32.9364C34.9242 32.3376 35.0525 31.6355 34.9334 30.9529C34.8143 30.2704 34.4552 29.6507 33.919 29.2024C33.3828 28.754 32.7035 28.5054 32 28.5V28.5ZM10 30.4687C10.1978 30.4687 10.3911 30.5265 10.5556 30.6346C10.72 30.7428 10.8482 30.8965 10.9239 31.0764C10.9996 31.2563 11.0194 31.4542 10.9808 31.6452C10.9422 31.8361 10.847 32.0115 10.7071 32.1492C10.5673 32.2868 10.3891 32.3806 10.1951 32.4186C10.0011 32.4566 9.80005 32.4371 9.61732 32.3626C9.4346 32.2881 9.27842 32.1619 9.16853 32C9.05865 31.8381 9.00001 31.6478 9.00001 31.4531C9.00001 31.192 9.10536 30.9417 9.2929 30.7571C9.48043 30.5725 9.73479 30.4687 10 30.4687ZM32 32.4375C31.8022 32.4375 31.6089 32.3798 31.4444 32.2716C31.28 32.1634 31.1518 32.0097 31.0761 31.8298C31.0004 31.65 30.9806 31.452 31.0192 31.2611C31.0578 31.0701 31.153 30.8947 31.2929 30.7571C31.4327 30.6194 31.6109 30.5256 31.8049 30.4877C31.9989 30.4497 32.2 30.4692 32.3827 30.5437C32.5654 30.6182 32.7216 30.7444 32.8315 30.9062C32.9414 31.0681 33 31.2584 33 31.4531C33 31.7142 32.8946 31.9646 32.7071 32.1492C32.5196 32.3338 32.2652 32.4375 32 32.4375Z"/><path d="M12 35.174V39.5446C11.9985 39.7356 12.0535 39.923 12.1582 40.0838C12.263 40.2446 12.413 40.3719 12.59 40.4502L16 41.9366V45.4508C15.9985 45.6419 16.0535 45.8292 16.1582 45.99C16.263 46.1508 16.413 46.2781 16.59 46.3565L20.59 48.0988C20.7189 48.1559 20.8587 48.1853 21 48.1853C21.1414 48.1853 21.2811 48.1559 21.41 48.0988L25.41 46.3565C25.587 46.2781 25.7371 46.1508 25.8418 45.99C25.9466 45.8292 26.0016 45.6419 26 45.4508V41.9366L29.41 40.4502C29.587 40.3719 29.7371 40.2446 29.8418 40.0838C29.9466 39.923 30.0016 39.7356 30 39.5446V35.174C30.0016 34.9829 29.9466 34.7956 29.8418 34.6348C29.7371 34.474 29.587 34.3467 29.41 34.2683L25.41 32.526C25.2811 32.4689 25.1414 32.4395 25 32.4395C24.8587 32.4395 24.7189 32.4689 24.59 32.526L21 34.0911L17.41 32.526C17.2811 32.4689 17.1414 32.4395 17 32.4395C16.8587 32.4395 16.7189 32.4689 16.59 32.526L12.59 34.2683C12.413 34.3467 12.263 34.474 12.1582 34.6348C12.0535 34.7956 11.9985 34.9829 12 35.174V35.174ZM21 46.1301L18 44.811V41.9366L21 40.6274L24 41.9366V44.811L21 46.1301ZM25 34.4947L28 35.8138V38.9047L25 40.2238L22 38.9047V35.8138L25 34.4947ZM14 35.8138L17 34.4947L20 35.8138V38.9047L17 40.2238L14 38.9047V35.8138Z"/></svg>