<svg xmlns="http://www.w3.org/2000/svg" viewBox="0 0 64 64"><path d="M53.132 8.306h-17.44a2.692 2.692 0 0 0-2.633-2.153h-.931a2.65 2.65 0 0 0-.73.114A2.685 2.685 0 0 0 28.753 4h-.93a2.66 2.66 0 0 0-1.688.613A2.66 2.66 0 0 0 24.447 4h-.931a2.685 2.685 0 0 0-2.645 2.267 5.999 5.999 0 0 0-1.661-.114 2.691 2.691 0 0 0-2.688 2.688v4.484a2.691 2.691 0 0 0 2.688 2.688 6.206 6.206 0 0 0 1.66-.114 2.685 2.685 0 0 0 2.646 2.267 3.605 3.605 0 0 0 2.619-.613 3.596 3.596 0 0 0 2.618.613 2.685 2.685 0 0 0 2.645-2.267 5.989 5.989 0 0 0 1.66.114 2.692 2.692 0 0 0 2.634-2.153h17.44a1 1 0 0 0 1-1V9.306a1 1 0 0 0-1-1zM20.14 14.013c-.58-.018-1.598.185-1.619-.688V8.841c.02-.871 1.04-.671 1.619-.688a.688.688 0 0 1 .687.688v4.484a.689.689 0 0 1-.687.688zm4.306 2.153c-.58-.019-1.598.187-1.619-.688v-8.79A.689.689 0 0 1 23.516 6c.579.019 1.598-.187 1.619.688v8.79a.689.689 0 0 1-.688.688zm4.993-.688c-.018.87-1.04.672-1.618.688a.688.688 0 0 1-.687-.687V6.688c.019-.87 1.04-.672 1.618-.688a.688.688 0 0 1 .687.688v8.79zm4.306-2.153c-.02.871-1.04.671-1.618.688a.688.688 0 0 1-.688-.688V8.841a.689.689 0 0 1 .688-.688c.58.018 1.597-.185 1.618.688v4.484zm18.386-1.465H35.746v-1.554h16.386zM42.845 28.437a3.043 3.043 0 0 0 1.858-2.8v-2.041a3.057 3.057 0 0 0-3.054-3.054H16.082a3.051 3.051 0 0 0-3.042 3.054v2.042a3.023 3.023 0 0 0 1.854 2.804 7.55 7.55 0 0 1-1.82 3.547c-6.176 7.229-3.251 15.957 6.474 25.93A7.16 7.16 0 0 0 24.594 60h9.13a7.133 7.133 0 0 0 5.24-2.287c4.557-4.958 14.27-17.368 6.082-25.496a8.001 8.001 0 0 1-2.2-3.78zm-.142-4.841v2.042a1.071 1.071 0 0 1-1.054 1.053h-8.3v-4.149h8.3a1.055 1.055 0 0 1 1.054 1.054zM20.91 22.542h10.44v8.633a1.12 1.12 0 0 1-1.119 1.117c-.809.084-1.58-.198-1.615-1.117a2.799 2.799 0 0 0-5.597 0v1.99a1.054 1.054 0 0 1-2.109 0zm-5.869 1.054a1.05 1.05 0 0 1 1.042-1.054h2.827v4.15h-2.827a1.056 1.056 0 0 1-1.042-1.054zm-.509 9.763a9.59 9.59 0 0 0 2.359-4.668h2.02v4.474a3.055 3.055 0 0 0 6.108 0v-1.99a.799.799 0 0 1 1.597 0 1.741 1.741 0 0 0 .018.3c.31 3.75 6.325 3.765 6.684.097.061-.215.02-2.603.032-2.88h7.492a9.946 9.946 0 0 0 2.797 4.945 8.334 8.334 0 0 1 2.502 5.076H12a9.667 9.667 0 0 1 2.531-5.354zm22.961 23A5.123 5.123 0 0 1 33.724 58h-9.13a5.147 5.147 0 0 1-3.628-1.491c-6.693-6.726-8.853-11.95-9.045-15.796h34.238c-.493 5.977-5.748 12.47-8.667 15.646z"></path></svg>