<svg xmlns="http://www.w3.org/2000/svg" viewBox="0 0 17 19"><path d="M15.4003 2.17839C15.4003 2.35293 15.2586 2.49502 15.0837 2.49502H1.91672C1.74179 2.49502 1.6001 2.35293 1.6001 2.17839C1.6001 2.00346 1.74179 1.86177 1.91672 1.86177H2.64259V1.26651C2.64259 0.56795 3.21054 0 3.9091 0H13.0913C13.7898 0 14.3578 0.56795 14.3578 1.26651V1.86177H15.0837C15.2586 1.86177 15.4003 2.00346 15.4003 2.17839Z"/><path d="M16.6692 4.85863C16.326 5.99057 15.1593 6.79679 13.8322 6.81895C12.8344 6.83518 11.9071 6.4105 11.3376 5.70403C10.7388 6.54625 9.66224 7.08452 8.49982 7.08452C7.3374 7.08452 6.26087 6.54625 5.66205 5.70403C5.09252 6.4105 4.16638 6.83557 3.16742 6.81895C1.84036 6.79679 0.673589 5.99057 0.330444 4.85863C0.298385 4.75256 0.324112 4.63739 0.398123 4.55507L1.5869 3.23319C1.64694 3.16642 1.73251 3.12827 1.82231 3.12827H15.1773C15.2671 3.12827 15.3527 3.16638 15.4127 3.23319L16.6015 4.55507C16.6755 4.63739 16.7013 4.75256 16.6692 4.85863Z"/><path d="M15.871 6.85261C14.6042 7.66551 12.8505 7.66582 11.5674 6.77179C11.4511 6.69073 11.2955 6.69627 11.1858 6.78608C9.67413 8.02409 7.33647 8.03157 5.81385 6.7858C5.70422 6.69607 5.54863 6.69073 5.43243 6.77175C4.15369 7.66297 2.39922 7.66784 1.12907 6.85257C0.960431 6.74432 0.734834 6.82189 0.664028 7.00938C-0.645779 10.4764 1.4537 15.1848 3.4756 18.2817C3.76927 18.7317 4.26519 19 4.80187 19H12.1983C12.735 19 13.2309 18.7317 13.5245 18.2817C15.5476 15.1831 17.6456 10.4755 16.3361 7.00934C16.2652 6.82181 16.0396 6.74436 15.871 6.85261ZM12.0621 11.3475C12.0621 11.6859 11.88 12.0009 11.5871 12.17C10.4836 12.8071 10.5416 12.7824 10.4125 12.823C10.4483 12.9689 10.4394 12.9337 10.4394 14.1896C10.4394 14.5276 10.2573 14.8431 9.96443 15.0121L8.97497 15.5832C8.68209 15.7526 8.31797 15.7526 8.02509 15.5832L7.03563 15.0121C6.74275 14.8431 6.56069 14.5276 6.56069 14.1896C6.56069 12.9669 6.55131 12.9707 6.58761 12.823C6.4479 12.779 6.45914 12.774 5.41292 12.17C5.12008 12.0009 4.93798 11.6859 4.93798 11.3475V10.2049C4.93798 9.8669 5.12004 9.55146 5.41292 9.38246L6.40238 8.81094C6.69431 8.6421 7.06009 8.6421 7.35226 8.81094C8.44031 9.43981 8.40228 9.40949 8.50003 9.49763C8.59799 9.40929 8.55845 9.44056 9.64781 8.81094C9.93978 8.64218 10.3056 8.64198 10.5977 8.81094L11.5871 9.38246C11.88 9.55146 12.0621 9.8669 12.0621 10.2049V11.3475Z"/><path d="M9.80602 13.047V14.1896C9.80602 14.3021 9.74547 14.4073 9.64771 14.4635L8.65825 15.035C8.56049 15.0912 8.43938 15.0912 8.34162 15.035L7.35216 14.4635C7.2544 14.4073 7.19385 14.3021 7.19385 14.1896V13.047C7.19385 12.9342 7.2544 12.8293 7.35216 12.7727L8.34162 12.2016C8.43938 12.145 8.56049 12.145 8.65825 12.2016L9.64771 12.7727C9.74547 12.8293 9.80602 12.9342 9.80602 13.047Z"/><path d="M11.4291 10.2049V11.3475C11.4291 11.4603 11.3685 11.5652 11.2708 11.6218L10.2813 12.1929C10.1835 12.2495 10.0624 12.2495 9.96467 12.1929L8.97521 11.6218C8.87745 11.5652 8.81689 11.4603 8.81689 11.3475V10.2049C8.81689 10.0921 8.87745 9.98722 8.97521 9.93062L9.96467 9.3595C10.0624 9.3033 10.1835 9.3033 10.2813 9.3595L11.2708 9.93062C11.3685 9.98722 11.4291 10.0921 11.4291 10.2049Z"/><path d="M8.18346 10.2049V11.3475C8.18346 11.4603 8.12291 11.5652 8.02515 11.6218L7.03569 12.1929C6.93793 12.2495 6.81682 12.2495 6.71906 12.1929L5.7296 11.6218C5.63184 11.5652 5.57129 11.4603 5.57129 11.3475V10.2049C5.57129 10.0921 5.63184 9.98722 5.7296 9.93062L6.71906 9.3595C6.81682 9.3033 6.93793 9.3033 7.03569 9.3595L8.02515 9.93062C8.12291 9.98722 8.18346 10.0921 8.18346 10.2049Z"/></svg>