<svg xmlns="http://www.w3.org/2000/svg" viewBox="0 0 57 57"><path d="M13.6626 14.7254V12.8916H8.12729L4.56055 18.8377L6.13211 19.7821L9.16613 14.7254H13.6626Z"/><path d="M30.8472 28.9511L32.4197 28.0066L28.853 22.0605H23.3176V23.8943H27.8141L30.8472 28.9511Z"/><path d="M36.4303 27.562L30.9289 18.393H21.7599L16.2585 9.224H6.05154L0 19.3099L5.5014 28.4789L0 37.6479L6.05154 47.7338H15.2205L20.7219 56.9028H30.9298L36.4312 47.7338H45.6002L51.6517 37.6479L45.6002 27.562H36.4303ZM21.7608 20.2268H29.8909L34.8422 28.4789L32.3666 32.6049L29.8909 36.731H21.7608L19.2852 32.6049L16.8095 28.4789L19.2852 24.3528L21.7608 20.2268ZM2.13821 19.3099L7.08947 11.0578H15.2196L20.1709 19.3099L17.6953 23.4359L15.2196 27.562H7.08947L2.13821 19.3099ZM15.2196 45.9H7.08947L2.13821 37.6479L7.08947 29.3958H15.2196L17.6953 33.5218L20.1709 37.6479L17.6953 41.7739L15.2196 45.9ZM29.8909 55.069H21.7608L16.8095 46.8169L19.2852 42.6908L21.7608 38.5648H29.8909L32.3666 42.6908L34.8422 46.8169L29.8909 55.069ZM44.5613 45.9H36.4312L33.9556 41.7739L31.4799 37.6479L33.9556 33.5218L36.4312 29.3958H44.5613L49.5126 37.6479L44.5613 45.9Z"/><path d="M35.7564 37.6479L38.7739 32.6187L37.2014 31.6743L33.6182 37.6479L37.4682 44.0662H43.2465V42.2324H38.5071L35.7564 37.6479Z"/><path d="M6.13211 37.1757L4.56055 38.1201L8.12729 44.0662H13.6626V42.2324H9.16613L6.13211 37.1757Z"/><path d="M28.576 40.3986H26.7422V42.2324H28.576V40.3986Z"/><path d="M18.9478 46.8169L22.531 52.7905L24.1035 51.8461L21.086 46.8169L23.8367 42.2324H24.9085V40.3986H22.7978L18.9478 46.8169Z"/><path d="M53.9532 11.7418C52.1038 9.9786 49.95 8.97918 48.1245 8.87465C48.3344 8.41987 48.4564 7.91924 48.4564 7.38927C48.4564 6.60349 48.1941 5.87914 47.7568 5.28224L47.953 4.90723C48.7177 3.45027 50.0353 2.36283 51.6637 1.84478L51.109 0.097168C49.0175 0.762837 47.3194 2.16844 46.3292 4.05542L46.3053 4.10035C45.8047 3.86654 45.2491 3.72259 44.6549 3.72259C44.0608 3.72259 43.5051 3.86654 43.0045 4.10127L42.9806 4.05634C41.9913 2.16844 40.2941 0.762837 38.2018 0.0980849L37.647 1.8457C39.2754 2.36374 40.593 3.45119 41.3568 4.90814L41.5539 5.28315C41.1157 5.88006 40.8544 6.60532 40.8544 7.39019C40.8544 7.9605 41.0011 8.49322 41.2422 8.97459C39.6065 9.27992 37.7956 10.228 36.2075 11.7418C34.2994 13.56 33.1606 15.7725 33.1606 17.6567C33.1606 18.6928 33.5091 19.5721 34.1683 20.2002C34.8331 20.8329 35.7408 21.1364 36.7723 21.1364C37.5526 21.1364 38.4044 20.953 39.2727 20.6174C40.0713 24.219 42.1829 26.6451 44.6549 26.6451C47.2066 26.6451 49.3742 24.0356 50.1095 20.2745C51.2428 20.8347 52.3752 21.1364 53.3884 21.1364C54.4199 21.1364 55.3276 20.8338 55.9924 20.2002C56.6516 19.5721 57 18.6928 57 17.6567C57 15.7725 55.8613 13.56 53.9532 11.7418ZM44.6558 5.55639C45.7405 5.55639 46.6235 6.37977 46.6235 7.39019C46.6235 8.40061 45.7405 9.22399 44.6558 9.22399C43.5711 9.22399 42.6882 8.40061 42.6882 7.39019C42.6882 6.37977 43.5711 5.55639 44.6558 5.55639ZM45.8175 16.6151C45.3362 16.5821 44.8539 16.5711 44.3679 16.5794C44.6366 16.2062 44.8768 15.8284 45.0803 15.447C45.2903 15.8403 45.5388 16.2309 45.8175 16.6151ZM35.4336 18.8734C35.1421 18.5956 34.9944 18.1858 34.9944 17.6567C34.9944 16.2841 35.9444 14.5264 37.4737 13.0686C39.9063 10.7497 42.701 10.1831 43.6876 11.1238C43.9782 11.4016 44.1268 11.8106 44.1268 12.3396C44.1268 13.7113 43.1769 15.4699 41.6475 16.9287C39.214 19.2494 36.4202 19.816 35.4336 18.8734ZM44.6549 24.8113C43.5656 24.8113 42.5194 23.8559 41.7878 22.3494C43.5913 21.9845 45.713 21.9817 47.5175 22.3476C46.7876 23.8485 45.7478 24.8113 44.6549 24.8113ZM48.1538 20.6137C45.9615 20.1223 43.3483 20.1195 41.156 20.6082C41.0836 20.3341 41.0176 20.0535 40.9653 19.7619C41.5191 19.4172 42.0628 19.0101 42.5882 18.5424C44.2927 18.3013 46.2026 18.3747 47.8026 18.7451C48.008 18.9193 48.2161 19.0825 48.427 19.2384C48.3601 19.7152 48.2693 20.1764 48.1538 20.6137ZM54.7261 18.8734C53.7432 19.8151 50.9467 19.2485 48.5132 16.9287C46.9838 15.4699 46.0339 13.7113 46.0339 12.3396C46.0339 11.8106 46.1815 11.4016 46.4731 11.1238C46.7729 10.8377 47.2415 10.6901 47.8164 10.6901C49.1285 10.6901 50.9953 11.4557 52.6869 13.0686C54.2163 14.5264 55.1662 16.2841 55.1662 17.6567C55.1662 18.1858 55.0186 18.5956 54.7261 18.8734Z"/></svg>