<svg xmlns="http://www.w3.org/2000/svg" viewBox="0 0 23 24"><path d="M7.56811 8.69024L4.09115 6.61353L0.61418 8.69024V12.9586C0.61418 12.9857 0.60902 13.0127 0.598954 13.038C0.375151 13.5999 0 14.6629 0 15.4725C0 15.7637 0.0491548 16.0461 0.146034 16.3123C0.286498 16.6975 0.643612 16.8348 0.931183 16.8348C1.21875 16.8348 1.57612 16.6975 1.71654 16.3123C1.81342 16.0464 1.86257 15.7637 1.86257 15.4725C1.86257 15.0398 1.75649 14.4905 1.5473 13.8395C1.52002 13.7542 1.54817 13.6608 1.61858 13.6054C1.68859 13.5498 1.78633 13.5436 1.86278 13.5899L4.09176 14.9333L7.56832 12.8568V8.69019H7.56811V8.69024Z"/><path d="M18.6434 6.2416V2.12592L15.1664 0L11.6895 2.12592V6.2418L15.1664 8.31831L18.6434 6.2416Z"/><path d="M18.8583 6.61353L15.3813 8.69024V12.8568L18.8583 14.9336L22.3353 12.8568V8.69024L18.8583 6.61353Z"/><path d="M11.6895 15.3055V19.4719L14.4306 21.1092C14.5238 21.1648 14.5608 21.2814 14.5167 21.3807C14.1317 22.249 13.9281 22.9961 13.9281 23.5416C13.9281 23.8472 13.991 24.1438 14.1154 24.4232C14.2708 24.7736 14.6948 25 15.1952 25C15.6956 25 16.1195 24.7736 16.275 24.4234C16.3994 24.1438 16.4623 23.847 16.4623 23.5418C16.4623 22.9907 16.2546 22.2346 15.8618 21.3545C15.8173 21.2552 15.8543 21.1384 15.9477 21.0826L18.6438 19.4723V15.306L15.1668 13.2292L11.6895 15.3055Z"/><path d="M14.9515 8.69024L11.4745 6.61353L7.99756 8.69024V12.8568L11.4745 14.9336L14.9515 12.8568V8.69024Z"/><path d="M5.43366 23.7097C5.27455 23.7097 5.14502 23.8416 5.14502 24.0039C5.14502 24.1661 5.2745 24.2979 5.43366 24.2979C5.59283 24.2979 5.72231 24.1661 5.72231 24.0039C5.72251 23.8418 5.59303 23.7097 5.43366 23.7097Z"/></svg>