<svg xmlns="http://www.w3.org/2000/svg" viewBox="0 0 24 19"><path d="M11.9998 4.42517L3.44031 11.2259C3.44031 11.2355 3.43781 11.2496 3.4328 11.2689C3.4279 11.288 3.42529 11.3018 3.42529 11.3117V18.1981C3.42529 18.4468 3.51961 18.6623 3.70821 18.8437C3.89674 19.0253 4.12001 19.1166 4.37805 19.1166H10.0942V13.6073H13.9055V19.1168H19.6215C19.8795 19.1168 20.1031 19.0257 20.2914 18.8437C20.48 18.6625 20.5746 18.4468 20.5746 18.1981V11.3117C20.5746 11.2735 20.5692 11.2446 20.5596 11.2259L11.9998 4.42517Z"/><path d="M23.8344 9.67636L20.5745 7.06521V1.21161C20.5745 1.07779 20.5299 0.967742 20.4403 0.881611C20.3515 0.795582 20.2373 0.752567 20.0981 0.752567H17.24C17.101 0.752567 16.9869 0.795582 16.8974 0.881611C16.8082 0.967742 16.7637 1.07784 16.7637 1.21161V4.00924L13.1315 1.08236C12.8142 0.833672 12.4371 0.709351 12.0003 0.709351C11.5637 0.709351 11.1865 0.833672 10.869 1.08236L0.165418 9.67636C0.0661949 9.75274 0.0118127 9.85555 0.00169755 9.9847C-0.0083655 10.1137 0.0263077 10.2265 0.105821 10.322L1.02875 11.3837C1.10827 11.4698 1.21234 11.5224 1.34139 11.5416C1.46053 11.5513 1.57967 11.5177 1.69881 11.4412L12 3.16276L22.3014 11.4412C22.3809 11.5079 22.4849 11.5412 22.614 11.5412H22.6587C22.7876 11.5223 22.8914 11.4694 22.9714 11.3835L23.8944 10.322C23.9738 10.2262 24.0085 10.1137 23.9982 9.9845C23.988 9.85571 23.9334 9.75289 23.8344 9.67636Z"/></svg>