<svg xmlns="http://www.w3.org/2000/svg" viewBox="0 0 53 70"><path d="M25.4323 34.7826H23.3501V32.6812H25.4323V34.7826ZM21.268 34.7826H19.1858V32.6812H21.268V34.7826ZM17.1036 34.7826H15.0215V32.6812H17.1036V34.7826Z"/><path d="M52.2967 54.6125C52.2967 52.295 50.4286 50.4095 48.1324 50.4095C47.2748 50.4095 46.4769 50.6725 45.8138 51.1228C45.2419 49.4899 43.6971 48.3167 41.8859 48.3167C41.0304 48.3167 40.2344 48.5784 39.5722 49.0266C39.0044 47.3863 37.4559 46.2064 35.6394 46.2064C34.8815 46.2064 34.1701 46.412 33.5572 46.7705V39.9108C33.5572 37.5933 31.6891 35.7078 29.3929 35.7078C27.0967 35.7078 25.2286 37.5933 25.2286 39.9108V52.5094L23.1529 52.5503C20.8617 52.5562 18.9994 54.4394 18.9994 56.7512L18.9911 60.9344H4.12931C3.17249 60.9344 2.39417 60.1488 2.39417 59.1831V11.5493H0.312012V59.1831C0.312012 61.3076 2.02438 63.0359 4.12931 63.0359H18.9869L18.9815 65.7894L21.2421 69.9999L23.0727 68.9988L21.0648 65.2587L21.0816 56.7535C21.0816 55.5948 22.0156 54.652 23.1638 54.652L25.2286 54.6114V64.0694H27.3107V54.5705V39.9108C27.3107 38.752 28.2448 37.8093 29.3929 37.8093C30.541 37.8093 31.4751 38.752 31.4751 39.9108V50.4095V57.7736H33.5572V50.4095C33.5572 49.2508 34.4913 48.3081 35.6394 48.3081C36.7875 48.3081 37.7215 49.2508 37.7215 50.4095V57.7736H39.8037V52.5199C39.8037 51.3611 40.7378 50.4184 41.8859 50.4184C43.034 50.4184 43.968 51.3611 43.968 52.5199V54.6127V57.7737H46.0502V54.6127C46.0502 53.4539 46.9843 52.5112 48.1324 52.5112C49.2805 52.5112 50.2145 53.4539 50.2145 54.6152L50.2492 69.502L52.3314 69.4971L52.2967 54.6125Z"/><path d="M2.39417 3.85274C2.39417 2.88703 3.17249 2.10149 4.12931 2.10149H10.4452V4.27303C10.4452 6.3975 12.1576 8.12577 14.2625 8.12577H25.6537C27.7585 8.12577 29.471 6.3975 29.471 4.27303V2.10149H36.056C37.0128 2.10149 37.7911 2.88703 37.7911 3.85274V45.1734H39.8733V3.85274C39.8733 1.72827 38.1607 0 36.056 0H29.4709H10.4452H4.12931C2.02438 0 0.312012 1.72827 0.312012 3.85274V9.45671H2.39417V3.85274ZM27.3887 2.10149V4.27303C27.3887 5.23874 26.6104 6.02428 25.6536 6.02428H14.2624C13.3055 6.02428 12.5272 5.23874 12.5272 4.27303V2.10149H27.3887Z"/><path d="M33.2102 28.245V26.1435H31.7735C31.2747 20.4292 26.7528 15.8653 21.091 15.362V14.1172H19.0088V15.362C13.3472 15.8653 8.82525 20.4292 8.32651 26.1435H6.92285V28.245H8.27778H31.8221H33.2102ZM10.4155 26.1435C10.9363 21.2429 15.0584 17.4143 20.0499 17.4143C25.0414 17.4143 29.1635 21.2429 29.6844 26.1435H10.4155Z"/><path d="M7.61694 39.9194H18.0104V42.0209H7.61694V39.9194Z"/><path d="M7.61694 44.1226H18.0104V46.2241H7.61694V44.1226Z"/><path d="M7.61694 48.3257H18.0104V50.4272H7.61694V48.3257Z"/></svg>