<svg xmlns="http://www.w3.org/2000/svg" viewBox="0 0 98 61"><path d="M91.1396 25.8039L88.6018 15.6941C89.2956 15.5473 89.8162 14.9342 89.8162 14.1998V12.5697C89.8162 9.03058 86.925 6.15138 83.3716 6.15138H71.8122V2.78913C71.8122 1.04758 70.3896 -0.369141 68.641 -0.369141H9.71808C7.96939 -0.369141 6.54686 1.04758 6.54686 2.78913V30.5003C6.54686 31.3442 7.23382 32.0285 8.08136 32.0285C8.92872 32.0285 9.61587 31.3444 9.61587 30.5003V2.78913C9.61587 2.7329 9.66161 2.68734 9.71808 2.68734H68.6408C68.6972 2.68734 68.743 2.7329 68.743 2.78913V30.5007C68.743 31.3446 69.4299 32.0289 70.2775 32.0289C71.1248 32.0289 71.812 31.3448 71.812 30.5007V28.7683H89.9131C89.9146 28.7683 89.9158 28.7687 89.9171 28.7687C89.9186 28.7687 89.92 28.7685 89.9213 28.7685C92.1487 28.77 94.04 30.226 94.6896 32.2323H89.9183C89.0709 32.2323 88.3838 32.9165 88.3838 33.7605V37.0206C88.3838 39.661 90.5405 41.8089 93.1917 41.8089H94.9308V48.5328H90.9185C89.6005 44.7426 85.9827 42.0125 81.7345 42.0125C77.4862 42.0125 73.8683 44.7426 72.5504 48.5328H71.8116V37.0204C71.8116 36.1765 71.1246 35.4922 70.2771 35.4922C69.4297 35.4922 68.7426 36.1763 68.7426 37.0204V48.5325H36.9064C35.5884 44.7423 31.9706 42.0121 27.7223 42.0121C23.4741 42.0121 19.8561 44.7423 18.5383 48.5325H9.71808C9.66161 48.5325 9.61587 48.4869 9.61587 48.4307V45.0686H16.2651C17.1125 45.0686 17.7996 44.3845 17.7996 43.5404C17.7996 42.6963 17.1127 42.0121 16.2651 42.0121H1.5345C0.687148 42.0121 0 42.6963 0 43.5404C0 44.3845 0.686957 45.0686 1.5345 45.0686H6.54705V48.4307C6.54705 50.1722 7.96958 51.5889 9.71827 51.5889H18.0069C18.0065 51.6229 18.0042 51.6566 18.0042 51.6907C18.0042 57.0275 22.3639 61.3691 27.7223 61.3691C33.0807 61.3691 37.4404 57.0275 37.4404 51.6907C37.4404 51.6564 37.4381 51.6229 37.4377 51.5889H72.0191C72.0187 51.6229 72.0164 51.6566 72.0164 51.6907C72.0164 57.0275 76.3761 61.3691 81.7345 61.3691C87.0929 61.3691 91.4526 57.0275 91.4526 51.6907C91.4526 51.6564 91.4503 51.6229 91.4499 51.5889H96.4653C97.3127 51.5889 97.9998 50.9048 97.9998 50.0607V33.7602C98 29.7357 95.0185 26.3919 91.1396 25.8039ZM71.8122 9.20767H83.3716C85.233 9.20767 86.7474 10.7159 86.7474 12.5697V12.6715H71.8122V9.20767ZM71.8122 25.712V15.7278H85.447L87.9533 25.712H71.8122ZM27.7223 58.3132C24.0559 58.3132 21.0731 55.3427 21.0731 51.6911C21.0731 48.0395 24.0559 45.069 27.7223 45.069C31.3887 45.069 34.3716 48.0395 34.3716 51.6911C34.3716 55.3427 31.3887 58.3132 27.7223 58.3132ZM81.7349 58.3132C78.0685 58.3132 75.0856 55.3427 75.0856 51.6911C75.0856 48.0395 78.0685 45.069 81.7349 45.069C85.4013 45.069 88.3841 48.0395 88.3841 51.6911C88.3841 55.3427 85.4013 58.3132 81.7349 58.3132ZM94.9312 38.7524H93.1921C92.2331 38.7524 91.4529 37.9755 91.4529 37.0204V35.2884H94.931V38.7524H94.9312Z"/><path d="M27.722 48.5327C25.9733 48.5327 24.5508 49.9494 24.5508 51.691C24.5508 53.4325 25.9733 54.8493 27.722 54.8493C29.4707 54.8493 30.8932 53.4325 30.8932 51.691C30.8932 49.9494 29.4707 48.5327 27.722 48.5327Z"/><path d="M81.7352 48.5327C79.9865 48.5327 78.564 49.9494 78.564 51.691C78.564 53.4325 79.9865 54.8493 81.7352 54.8493C83.4839 54.8493 84.9064 53.4325 84.9064 51.691C84.9064 49.9494 83.4839 48.5327 81.7352 48.5327Z"/><path d="M63.7309 42.0127H40.8165C39.9691 42.0127 39.282 42.6968 39.282 43.5409C39.282 44.385 39.9689 45.0692 40.8165 45.0692H63.7309C64.5782 45.0692 65.2654 44.385 65.2654 43.5409C65.2654 42.6968 64.5784 42.0127 63.7309 42.0127Z"/><path d="M24.4491 35.4922H4.80819C3.96083 35.4922 3.27368 36.1763 3.27368 37.0204C3.27368 37.8645 3.96064 38.5487 4.80819 38.5487H24.4491C25.2965 38.5487 25.9837 37.8645 25.9837 37.0204C25.9837 36.1763 25.2965 35.4922 24.4491 35.4922Z"/><path d="M53.3583 14.7487C52.7592 14.1521 51.7874 14.1521 51.1883 14.7489L37.5426 28.3388L30.4439 21.2691C29.8446 20.6722 28.873 20.6722 28.2739 21.2691C27.6746 21.8659 27.6746 22.8333 28.2739 23.4302L36.4577 31.5805C36.7572 31.8791 37.15 32.0281 37.5426 32.0281C37.9352 32.0281 38.3281 31.8791 38.6275 31.5805L53.3581 16.91C53.9574 16.313 53.9574 15.3456 53.3583 14.7487Z"/></svg>