<svg xmlns="http://www.w3.org/2000/svg" viewBox="0 0 18 17"><path d="M15.9761 4.35946C15.8925 3.9409 15.5581 3.60605 15.1401 3.60605H12.6319C12.6319 1.76439 11.127 0.257568 9.28772 0.257568C7.4484 0.257568 5.94351 1.76439 5.94351 3.60605H3.43536C3.01734 3.60605 2.68292 3.9409 2.59931 4.35946L0.92721 16.0792C0.843605 16.5814 1.26163 17 1.76326 17H16.8122C17.3138 17 17.7318 16.5814 17.6482 16.0792L15.9761 4.35946ZM9.28772 1.93181C10.2074 1.93181 10.9598 2.68522 10.9598 3.60605H7.61561C7.61561 2.68522 8.36806 1.93181 9.28772 1.93181ZM2.76652 15.3257L4.18781 5.2803H5.94351V6.11742C5.94351 7.20567 7.61561 7.20567 7.61561 6.11742V5.2803H10.9598V6.11742C10.9598 7.20567 12.6319 7.20567 12.6319 6.11742V5.2803H14.3876L15.8089 15.3257H2.76652Z"/></svg>