<svg xmlns="http://www.w3.org/2000/svg" viewBox="0 0 54 54"><path d="M53.0358 26.2273L47.3377 22.9056L51.3176 17.6388C51.4126 17.5143 51.4732 17.3664 51.4932 17.2104C51.5132 17.0543 51.4919 16.8957 51.4316 16.7507C51.3719 16.6085 51.2766 16.4846 51.1551 16.3911C51.0337 16.2976 50.8902 16.2379 50.739 16.2178L44.3046 15.374L45.9877 9.01483C46.029 8.86346 46.0299 8.70372 45.9903 8.55189C45.9507 8.40006 45.8722 8.26157 45.7626 8.15053C45.653 8.03949 45.5163 7.95988 45.3664 7.9198C45.2166 7.87973 45.0589 7.88062 44.9095 7.9224L38.5715 9.64543L37.6949 3.06417C37.6744 2.90985 37.6142 2.76369 37.5204 2.64035C37.4266 2.51702 37.3024 2.42084 37.1604 2.36146C37.0183 2.30208 36.8633 2.28159 36.7109 2.30204C36.5586 2.3225 36.4142 2.38317 36.2923 2.47799L31.1816 6.49246L27.9381 0.799371C27.8616 0.662686 27.7507 0.548994 27.6167 0.469895C27.4828 0.390796 27.3305 0.349121 27.1754 0.349121C27.0203 0.349121 26.868 0.390796 26.7341 0.469895C26.6001 0.548994 26.4892 0.662686 26.4127 0.799371L23.1342 6.5724L17.9358 2.5224C17.8129 2.42619 17.6669 2.36481 17.5129 2.34452C17.3589 2.32423 17.2023 2.34577 17.0592 2.40694C16.9188 2.46743 16.7965 2.56397 16.7042 2.68702C16.612 2.81007 16.553 2.95538 16.5332 3.10858L15.7004 9.62766L9.42377 7.9224C9.27437 7.88062 9.1167 7.87973 8.96684 7.9198C8.81698 7.95988 8.68029 8.03949 8.57069 8.15053C8.4611 8.26157 8.38252 8.40006 8.34296 8.55189C8.30341 8.70372 8.3043 8.86346 8.34553 9.01483L10.0462 15.454L3.5504 16.3421C3.39808 16.3629 3.25382 16.4238 3.13208 16.5189C3.01035 16.6139 2.91542 16.7397 2.85681 16.8837C2.7982 17.0276 2.77798 17.1847 2.79817 17.339C2.81835 17.4934 2.87824 17.6397 2.97183 17.7632L6.93416 22.9678L1.31501 26.2273C1.1801 26.3048 1.06788 26.4171 0.989811 26.5529C0.911739 26.6886 0.870605 26.8429 0.870605 27C0.870605 27.1571 0.911739 27.3114 0.989811 27.4472C1.06788 27.5829 1.1801 27.6953 1.31501 27.7727L7.01306 31.0944L3.01566 36.3612C2.9207 36.4858 2.86011 36.6336 2.84009 36.7897C2.82006 36.9457 2.84133 37.1044 2.9017 37.2494C2.9614 37.3916 3.05669 37.5155 3.17814 37.609C3.2996 37.7024 3.44302 37.7622 3.59423 37.7823L10.0286 38.6704L8.34553 44.9852C8.30011 45.1403 8.29733 45.3049 8.3375 45.4614C8.37766 45.618 8.45925 45.7604 8.57345 45.8734C8.65536 45.9557 8.75251 46.0208 8.85931 46.065C8.96612 46.1092 9.08048 46.1316 9.19585 46.131C9.27158 46.1397 9.34805 46.1397 9.42377 46.131L15.7793 44.3546L16.6559 50.9803C16.6751 51.136 16.7347 51.2838 16.8287 51.4087C16.9226 51.5335 17.0475 51.6308 17.1907 51.6908C17.3345 51.7508 17.4915 51.7708 17.6456 51.749C17.7997 51.7271 17.9452 51.6641 18.0673 51.5665L23.2043 47.552L26.4478 53.2451C26.5243 53.3818 26.6351 53.4955 26.7691 53.5746C26.9031 53.6537 27.0554 53.6954 27.2105 53.6954C27.3655 53.6954 27.5178 53.6537 27.6518 53.5746C27.7858 53.4955 27.8967 53.3818 27.9731 53.2451L31.2166 47.4277L36.415 51.4599C36.568 51.5802 36.7561 51.6458 36.9497 51.6464C37.067 51.6442 37.1829 51.6201 37.2916 51.5754C37.432 51.5149 37.5543 51.4183 37.6465 51.2953C37.7388 51.1722 37.7977 51.0269 37.8176 50.8737L38.6942 44.3546L44.9709 46.0599C45.0466 46.0686 45.123 46.0686 45.1988 46.0599C45.3141 46.0606 45.4285 46.0382 45.5353 45.994C45.6421 45.9498 45.7393 45.8847 45.8212 45.8023C45.9354 45.6893 46.017 45.5469 46.0571 45.3904C46.0973 45.2339 46.0945 45.0692 46.0491 44.9142L44.3046 38.5461L50.8442 37.6579C50.9965 37.6372 51.1408 37.5762 51.2625 37.4812C51.3843 37.3861 51.4792 37.2603 51.5378 37.1164C51.5964 36.9724 51.6166 36.8154 51.5965 36.661C51.5763 36.5067 51.5164 36.3604 51.4228 36.2369L47.4605 31.0323L53.0796 27.7461C53.2145 27.6686 53.3267 27.5563 53.4048 27.4205C53.4829 27.2848 53.524 27.1305 53.524 26.9734C53.524 26.8163 53.4829 26.662 53.4048 26.5262C53.3267 26.3905 53.2145 26.2782 53.0796 26.2007L53.0358 26.2273ZM45.8738 21.9464C45.8124 22.0263 45.751 22.0796 45.6984 22.1596C44.5517 21.7511 43.3314 21.5984 42.1211 21.7118C40.9107 21.8253 39.7388 22.2022 38.6855 22.8168C38.5452 22.4349 38.3962 22.053 38.2209 21.6888C39.4003 21.3665 40.4968 20.7891 41.4351 19.9964C42.3733 19.2038 43.1309 18.2147 43.6559 17.0971H43.8488L48.9858 17.7721L45.8738 21.9464ZM27.1754 37.6579C25.0948 37.6579 23.061 37.0329 21.3311 35.8617C19.6012 34.6906 18.2529 33.0261 17.4567 31.0786C16.6605 29.1312 16.4522 26.9882 16.858 24.9208C17.2639 22.8534 18.2658 20.9543 19.737 19.4638C21.2082 17.9732 23.0826 16.9582 25.1231 16.5469C27.1637 16.1357 29.2788 16.3468 31.201 17.1534C33.1232 17.9601 34.7661 19.3261 35.922 21.0788C37.0779 22.8315 37.6949 24.8921 37.6949 27C37.6949 29.8267 36.5866 32.5376 34.6138 34.5363C32.641 36.535 29.9653 37.6579 27.1754 37.6579ZM43.9101 10.0451L42.5777 15.0987C42.5075 15.3474 42.4286 15.5961 42.3322 15.8448C41.9482 16.8529 41.3329 17.754 40.5372 18.4737C39.7416 19.1933 38.7883 19.7109 37.7562 19.9836L37.3705 20.0902C36.4753 18.7392 35.329 17.5778 33.9955 16.6708L34.092 16.28C34.365 15.2409 34.8755 14.2815 35.5821 13.4793C36.2887 12.677 37.1716 12.0543 38.1595 11.6615C38.4022 11.5517 38.6546 11.4655 38.9134 11.404L43.9101 10.0451ZM36.1871 4.79608L36.8709 9.98293C36.8709 10.0806 36.8709 10.1783 36.8709 10.276C35.787 10.8185 34.8304 11.5898 34.0653 12.5381C33.3002 13.4864 32.7443 14.5897 32.4351 15.7737C32.0757 15.5961 31.6988 15.4451 31.3218 15.303C31.9256 14.2345 32.2946 13.0465 32.4035 11.8202C32.5124 10.5939 32.3588 9.3583 31.953 8.19773L32.102 8.0645L36.1871 4.79608ZM27.1754 3.01977L29.8053 7.56714C29.9321 7.78683 30.0434 8.01536 30.1384 8.25102C30.5767 9.23901 30.7751 10.319 30.7172 11.4006C30.6592 12.4822 30.3465 13.534 29.8053 14.4681L29.6124 14.8145C28.0326 14.4948 26.4059 14.4948 24.826 14.8145L24.6332 14.4681C24.0991 13.5415 23.7889 12.5001 23.728 11.4288C23.6671 10.3576 23.8571 9.28694 24.2825 8.30431C24.3781 8.05157 24.4954 7.80786 24.6332 7.57602L27.1754 3.01977ZM18.076 4.86714L22.1874 8.05562C22.2663 8.11779 22.3189 8.17996 22.3978 8.23325C21.9947 9.39508 21.8439 10.6314 21.9559 11.8577C22.0678 13.084 22.4399 14.2713 23.0465 15.3385C22.6696 15.4806 22.2926 15.6316 21.9332 15.8092C21.615 14.6143 21.0451 13.5033 20.2628 12.5527C19.4804 11.6022 18.5041 10.8345 17.401 10.3027C17.3967 10.2376 17.3967 10.1723 17.401 10.1073L18.076 4.86714ZM15.4462 11.3951C15.6916 11.4661 15.9371 11.5461 16.1825 11.6438C17.1776 12.0329 18.067 12.6563 18.7773 13.4624C19.4876 14.2685 19.9985 15.2343 20.2676 16.28L20.3728 16.6708C19.0394 17.5778 17.893 18.7392 16.9978 20.0902L16.6121 19.9925C15.5866 19.7158 14.6396 19.1986 13.8478 18.4827C13.0559 17.7669 12.4413 16.8723 12.0536 15.8714C11.9452 15.6255 11.8601 15.3698 11.7994 15.1076L10.4582 10.0451L15.4462 11.3951ZM10.4231 17.177H10.7124C11.2432 18.2704 11.9977 19.2367 12.9258 20.0116C13.8538 20.7864 14.9342 21.3522 16.0949 21.6711C15.9196 22.0352 15.7705 22.4171 15.6303 22.799C14.5756 22.1873 13.4031 21.8135 12.1927 21.7031C10.9824 21.5928 9.76278 21.7485 8.61728 22.1596L8.48579 22.0086L5.25981 17.8698L10.4231 17.177ZM7.99488 24.38C8.21172 24.2514 8.43729 24.1387 8.66988 24.0425C9.64504 23.5984 10.711 23.3973 11.7785 23.456C12.8461 23.5148 13.8843 23.8316 14.8062 24.38L15.1481 24.5754C14.8326 26.176 14.8326 27.8241 15.1481 29.4247L14.8062 29.6201C13.8917 30.1612 12.8638 30.4755 11.8064 30.5372C10.7491 30.5989 9.69234 30.4064 8.72248 29.9754C8.47302 29.8786 8.23248 29.7597 8.00364 29.6201L3.50657 27L7.99488 24.38ZM8.47702 32.0536C8.53073 31.9815 8.58931 31.9133 8.65235 31.8494C9.79887 32.2612 11.0202 32.415 12.2313 32.2999C13.4425 32.1849 14.6143 31.8038 15.6653 31.1833C15.8056 31.5652 15.9546 31.9471 16.1299 32.3112C14.9505 32.6336 13.8539 33.211 12.9157 34.0036C11.9775 34.7963 11.2198 35.7854 10.6949 36.903H10.502L5.36501 36.228L8.47702 32.0536ZM10.4407 43.955L11.7731 38.9014C11.8433 38.6527 11.9222 38.404 12.0186 38.1553C12.4026 37.1472 13.0179 36.246 13.8136 35.5264C14.6092 34.8067 15.5625 34.2892 16.5946 34.0165L16.9803 33.9099C17.8755 35.2609 19.0218 36.4223 20.3553 37.3293L20.2588 37.7201C19.9858 38.7591 19.4753 39.7185 18.7687 40.5208C18.0621 41.3231 17.1792 41.9457 16.1913 42.3385C15.9486 42.4484 15.6962 42.5346 15.4374 42.5961L10.4407 43.955ZM18.1637 49.204L17.4799 44.0171C17.4799 43.9194 17.4799 43.8217 17.4799 43.724C18.5638 43.1816 19.5204 42.4102 20.2855 41.4619C21.0506 40.5137 21.6065 39.4104 21.9157 38.2263C22.2751 38.404 22.652 38.555 23.029 38.6971C22.4252 39.7656 22.0562 40.9536 21.9473 42.1798C21.8384 43.4061 21.992 44.6418 22.3978 45.8023L22.2488 45.9356L18.1637 49.204ZM27.1754 50.9803L24.5894 46.4329C24.4625 46.2132 24.3512 45.9847 24.2562 45.749C23.818 44.7611 23.6195 43.6811 23.6774 42.5995C23.7354 41.5179 24.0481 40.4661 24.5894 39.5319L24.7822 39.1856C26.3621 39.5052 27.9887 39.5052 29.5686 39.1856L29.7614 39.5319C30.2955 40.4585 30.6057 41.5 30.6666 42.5712C30.7276 43.6425 30.5375 44.7131 30.1121 45.6958C30.0166 45.9485 29.8992 46.1922 29.7614 46.424L27.1754 50.9803ZM36.941 43.9283L36.2747 49.1329L32.1634 45.9444C32.0845 45.8823 32.0319 45.8201 31.953 45.7668C32.3561 44.605 32.5069 43.3687 32.3949 42.1424C32.283 40.9161 31.9109 39.7287 31.3043 38.6615C31.6812 38.5194 32.0582 38.3685 32.4176 38.1908C32.7358 39.3858 33.3057 40.4968 34.088 41.4473C34.8704 42.3979 35.8467 43.1655 36.9497 43.6974C36.9529 43.7745 36.95 43.8517 36.941 43.9283ZM38.9221 42.605C38.6767 42.5339 38.4312 42.454 38.1858 42.3563C37.1907 41.9672 36.3013 41.3438 35.591 40.5377C34.8807 39.7315 34.3699 38.7658 34.1007 37.7201L33.9955 37.3293C35.329 36.4223 36.4753 35.2609 37.3705 33.9099L37.7562 34.0076C38.7818 34.2843 39.7287 34.8014 40.5206 35.5173C41.3124 36.2332 41.927 37.1277 42.3147 38.1287C42.4231 38.3745 42.5082 38.6303 42.5689 38.8925L43.9101 43.955L38.9221 42.605ZM43.9452 36.8231H43.6559C43.1233 35.7278 42.366 34.7603 41.4348 33.9853C40.5036 33.2103 39.4198 32.6456 38.2559 32.329C38.4312 31.9648 38.5803 31.5829 38.7205 31.201C40.0107 31.9446 41.4703 32.3334 42.9546 32.329C43.9175 32.3282 44.8728 32.1569 45.7773 31.8227L45.9088 31.9737L49.091 36.1303L43.9452 36.8231ZM46.3559 29.6645C46.1391 29.793 45.9135 29.9058 45.6809 30.002C44.7058 30.4461 43.6398 30.6471 42.5723 30.5884C41.5047 30.5297 40.4665 30.2129 39.5446 29.6645L39.2027 29.4691C39.5182 27.8685 39.5182 26.2204 39.2027 24.6198L39.5446 24.4244C40.4591 23.8833 41.487 23.569 42.5444 23.5073C43.6017 23.4455 44.6585 23.6381 45.6283 24.0691C45.8778 24.1659 46.1183 24.2848 46.3471 24.4244L50.8442 27L46.3559 29.6645Z"/><path d="M27.1754 18.1187C25.4416 18.1187 23.7468 18.6395 22.3052 19.6155C20.8636 20.5914 19.74 21.9785 19.0765 23.6014C18.413 25.2243 18.2394 27.0101 18.5776 28.7329C18.9159 30.4558 19.7508 32.0383 20.9768 33.2805C22.2027 34.5226 23.7647 35.3685 25.4652 35.7112C27.1657 36.0539 28.9283 35.878 30.5301 35.2057C32.1319 34.5335 33.501 33.3951 34.4643 31.9346C35.4275 30.474 35.9417 28.7568 35.9417 27.0002C35.9417 25.8339 35.7149 24.679 35.2744 23.6014C34.8338 22.5238 34.1881 21.5447 33.3741 20.72C32.5601 19.8953 31.5937 19.2411 30.5301 18.7947C29.4665 18.3484 28.3266 18.1187 27.1754 18.1187ZM27.1754 34.1055C25.7884 34.1055 24.4325 33.6888 23.2792 32.908C22.1259 32.1273 21.2271 31.0176 20.6963 29.7193C20.1655 28.421 20.0266 26.9924 20.2972 25.6141C20.5678 24.2358 21.2357 22.9697 22.2165 21.9761C23.1973 20.9824 24.4469 20.3057 25.8073 20.0315C27.1676 19.7573 28.5777 19.898 29.8592 20.4358C31.1406 20.9736 32.2359 21.8843 33.0065 23.0528C33.7771 24.2212 34.1884 25.5949 34.1884 27.0002C34.1884 28.8847 33.4495 30.6919 32.1343 32.0244C30.8192 33.3569 29.0354 34.1055 27.1754 34.1055Z"/><path d="M27.1753 21.6709C26.135 21.6709 25.1181 21.9834 24.2531 22.569C23.3882 23.1545 22.714 23.9868 22.3159 24.9605C21.9178 25.9343 21.8136 27.0058 22.0166 28.0395C22.2195 29.0732 22.7205 30.0227 23.4561 30.768C24.1917 31.5132 25.1289 32.0208 26.1491 32.2264C27.1694 32.432 28.227 32.3265 29.1881 31.9232C30.1492 31.5198 30.9706 30.8368 31.5486 29.9604C32.1265 29.0841 32.435 28.0538 32.435 26.9998C32.435 25.5865 31.8809 24.2311 30.8945 23.2317C29.9081 22.2323 28.5702 21.6709 27.1753 21.6709ZM27.1753 30.5525C26.4818 30.5525 25.8038 30.3441 25.2272 29.9538C24.6505 29.5634 24.2011 29.0085 23.9357 28.3594C23.6703 27.7102 23.6009 26.9959 23.7362 26.3068C23.8715 25.6176 24.2054 24.9846 24.6958 24.4878C25.1862 23.9909 25.811 23.6526 26.4912 23.5155C27.1714 23.3784 27.8764 23.4488 28.5171 23.7176C29.1579 23.9865 29.7055 24.4419 30.0908 25.0261C30.4761 25.6103 30.6818 26.2972 30.6818 26.9998C30.6818 27.9421 30.3123 28.8457 29.6547 29.5119C28.9971 30.1782 28.1053 30.5525 27.1753 30.5525Z"/></svg>