<svg xmlns="http://www.w3.org/2000/svg" viewBox="0 0 438 438"><path d="M438 48V197.5C438 214.5 431.3 230.8 419.3 242.8L243.3 418.8C218.3 443.8 177.8 443.8 152.8 418.8L19.3 285.3C-5.70001 260.3 -5.70001 219.8 19.3 194.8L195.3 18.8C207.3 6.79996 223.6 0.0999568 240.6 0.0999568H390C416.5 -4.31981e-05 438 21.5 438 48ZM326 80C317.513 80 309.374 83.3714 303.373 89.3725C297.371 95.3737 294 103.513 294 112C294 120.487 297.371 128.626 303.373 134.627C309.374 140.629 317.513 144 326 144C334.487 144 342.626 140.629 348.627 134.627C354.629 128.626 358 120.487 358 112C358 103.513 354.629 95.3737 348.627 89.3725C342.626 83.3714 334.487 80 326 80Z"/></svg>