<svg width="67" height="31" fill="none" xmlns="http://www.w3.org/2000/svg"><path d="M21.304 19.57a.26.26 0 01-.152.121.417.417 0 00-.175.124c-.038.038-.075.067-.116.1-.121.01-.222.066-.326.117l-.414.21c-.005.005-.014.004-.02.008-.168.143-.386.181-.579.271-.094.043-.19.073-.278.134-.031.025-.07.032-.108.047-.127.045-.26.072-.386.117-.107.037-.222.042-.34.056-.037.007-.079.008-.113.02-.203.066-.409.087-.62.112a9.22 9.22 0 01-.855.064c-.269.016-.529 0-.792-.019a16.81 16.81 0 01-.956-.095 2.9 2.9 0 01-.477-.095c-.101-.03-.209-.047-.306-.073-.19-.046-.378-.087-.558-.142-.18-.054-.363-.123-.541-.186-.131-.047-.266-.098-.397-.144-.016-.01-.035-.012-.051-.022-.386-.184-.775-.373-1.162-.548-.404-.185-.79-.4-1.16-.629-.293-.186-.574-.39-.867-.576-.46-.299-.874-.658-1.29-1.008-.24-.205-.464-.422-.697-.64-.153-.14-.29-.29-.434-.438-.044-.045-.107-.081-.15-.126-.048-.049-.076-.105-.119-.159-.117-.136-.238-.277-.365-.405-.148-.144-.26-.316-.398-.468-.234-.273-.433-.566-.646-.855-.019-.024-.033-.053-.058-.073-.215-.216-.372-.479-.547-.72-.038-.048-.057-.104-.09-.157l-.085-.139c-.105-.153-.216-.303-.325-.461-.068-.097-.145-.194-.187-.31-.012-.038-.049-.073-.066-.106-.048-.08-.094-.171-.141-.252-.018-.033-.036-.066-.055-.09-.167-.264-.3-.538-.447-.809-.115-.21-.21-.426-.321-.63a3.745 3.745 0 01-.264-.558c-.057-.168-.134-.329-.187-.492a7.227 7.227 0 00-.244-.63c-.103-.258-.2-.52-.26-.798-.027-.12-.074-.234-.101-.354-.04-.158-.076-.32-.12-.483-.054-.218-.117-.437-.17-.655a25.178 25.178 0 01-.157-.66c-.039-.166-.058-.34-.093-.503a4.056 4.056 0 01-.076-.493 3.5 3.5 0 00-.137-.667.742.742 0 01-.032-.276 4.09 4.09 0 00-.065-.866 2.41 2.41 0 01-.018-.484 2.04 2.04 0 00-.023-.535.848.848 0 01-.007-.224 1.066 1.066 0 00-.033-.385c-.027-.098-.048-.2-.073-.306-.08-.08-.15-.158-.265-.193-.062-.014-.106-.059-.14-.111a1.348 1.348 0 00-.094-.13C.535.885.498.883.458.875.451.888.441.896.443.91c0 .214.005.424 0 .634-.001.127-.006.25.027.366.015.051.01.11.002.164a.807.807 0 00.01.238c.027.152.036.303.016.462-.024.162-.031.325-.042.484a.164.164 0 00-.001.073c.05.181.043.377.111.56a.827.827 0 01.053.345c-.002.105.014.211.012.316 0 .086.019.174.01.26-.011.136.006.265.043.386.039.135.083.266.122.401.038.112.067.224.067.343-.004.177.054.336.083.512.032.18.127.342.164.518l.094.376a.121.121 0 01.01.055c-.015.186.053.346.119.515.037.09.049.19.066.288.025.138.07.27.137.397l.038.08c.057.169.114.337.176.502.032.093.074.178.116.263.077.161.152.33.233.496a.405.405 0 01.015.052c.07.26.19.497.305.738.077.16.144.32.231.473.133.242.26.489.433.716.11.15.22.3.279.49a.336.336 0 00.073.124c.185.265.37.52.555.785.038.058.066.114.098.176.025.043.042.085.073.124.299.419.592.842.897 1.257.137.183.296.35.443.525l.035.044c.117.136.234.273.36.41l.348.372c.082.093.174.186.261.275.11.118.222.235.341.354.136.137.27.275.417.405l.703.627c.16.135.31.292.501.393a.18.18 0 01.041.03l.65.527c.021.016.037.035.054.046.156.089.274.216.432.296.06.032.107.081.162.117.215.153.427.301.661.424.004.004.013.005.017.01.15.102.305.2.472.281.102.054.192.124.298.182.224.131.45.244.686.357.35.172.713.327 1.07.486.013.006.022.006.035.012.123.1.281.117.43.164.07.024.14.047.205.075.272.116.546.214.845.278l1.24.27c.023.007.049.018.072.015.268-.007.523.067.792.05.089-.007.178.01.264.02.122.014.25.015.375.01.208-.007.414.004.63-.026.131-.017.267-.007.399-.024.229-.024.459-.057.681-.1.151-.024.297-.077.45-.111.1-.025.199-.04.3-.064.051-.01.1-.025.148-.04.296-.1.586-.197.877-.325a.89.89 0 01.166-.061.937.937 0 00.301-.137l.016-.012c.195-.077.373-.186.557-.277a.31.31 0 01.107-.038c.029-.007.06 0 .087.002.066.082.129.15.185.233.041.062.073.124.114.186.055.09.114.186.174.273.098.144.21.284.302.433.059.095.165.153.207.27.043.108.121.196.186.288.068.096.132.187.205.28.062.077.125.145.192.219l.088.111c.11.15.225.304.33.458.072.101.153.203.24.291.157.153.297.319.447.476.107.113.22.222.335.335.122.046.196.16.306.224.02.015.047.026.058.04l.32.37c.024.03.047.059.075.084.134.115.27.22.41.331l.154.13c.066.051.125.115.196.161.125.082.23.181.34.276.101.085.197.184.334.217.035.012.063.036.097.057l.368.27c.024.02.049.04.075.05.122.046.2.134.289.214.089.08.183.155.293.218.12.063.233.131.335.216.118.096.254.17.385.248.164.099.33.18.49.283.44.274.913.492 1.377.732.145.075.288.158.445.216.249.087.463.217.707.308.332.116.665.223 1 .344.253.092.51.148.765.23.035.012.07.024.106.027.178.009.339.07.506.12.119.032.238.063.363.09.053.014.106.027.163.045.088.025.175.059.273.052.023-.002.05 0 .076.01.192.07.4.085.607.12.108.016.222.02.331.06.048.018.108.018.166.027.19.023.384.042.582.043.05 0 .1.008.15.016.17.022.349.031.525.049.24.022.492.028.737.023.179 0 .362.005.545.01a9.9 9.9 0 00.516-.008c.042-.001.089-.007.136-.012.05 0 .102-.01.151-.002.21.015.415.026.624-.022.024-.003.051 0 .075-.003.211-.003.427 0 .644-.007.172-.01.343-.02.516-.038.323-.035.644-.062.968-.105.324-.044.647-.111.963-.165.095-.02.189-.032.288-.047l.285-.06c.08-.017.163-.043.242-.05.245-.037.477-.11.711-.17.1-.025.197-.054.297-.078.105-.029.21-.058.318-.095.21-.08.426-.141.648-.207.284-.083.559-.2.835-.324.07-.031.144-.067.213-.098.246-.11.496-.204.727-.333.196-.108.413-.179.6-.32a2.01 2.01 0 01.373-.209c.099-.047.188-.117.283-.17.3-.16.563-.377.85-.565.439-.286.865-.577 1.285-.887.077-.054.157-.094.234-.147.144-.098.289-.206.425-.314.073-.059.137-.118.222-.161.06-.032.118-.078.175-.124.068-.054.127-.109.196-.163.345-.243.687-.5 1.021-.757.145-.108.284-.234.425-.347.257-.204.489-.428.73-.651.252-.232.5-.477.748-.714.259-.245.49-.501.728-.761.177-.196.36-.397.533-.598.033-.034.066-.068.09-.103.137-.236.34-.42.514-.631.08-.094.15-.198.22-.293.024-.035.038-.07.06-.096.124-.114.21-.253.303-.383.1-.143.217-.275.308-.419.126-.195.249-.396.375-.591.06-.087.123-.169.177-.252.181-.287.365-.583.543-.875.048-.078.088-.157.128-.236.137-.268.275-.535.418-.807.11-.215.207-.427.305-.647.093-.216.208-.427.31-.642.09-.199.171-.398.258-.6.058-.142.126-.283.184-.424.085-.226.176-.456.26-.683.042-.12.087-.235.136-.345.075-.035.136-.013.198.001.16.04.31.078.481.068.051 0 .1.017.147.034.253.092.517.135.785.16.149.015.297.04.442.083.154.043.318.056.48.077.086.01.177.018.262.029a.511.511 0 01.089.024c.094.044.19.047.297.041.125-.004.252.005.374.019.245.018.49.014.74.005a.392.392 0 00.26-.112.186.186 0 00.063-.169c-.082-.124-.147-.27-.262-.393a1.065 1.065 0 01-.23-.45.634.634 0 00-.078-.184.592.592 0 01-.064-.146c-.04-.158-.12-.3-.193-.456-.14-.102-.226-.263-.323-.408a5.23 5.23 0 01-.237-.405c-.066-.114-.12-.236-.186-.35-.104-.186-.16-.396-.245-.589-.068-.16-.13-.324-.231-.473-.072-.101-.132-.22-.193-.329a.783.783 0 00-.14-.165c-.057-.05-.097-.121-.147-.185-.037-.057-.065-.114-.097-.175-.09-.167-.18-.333-.265-.494a3.387 3.387 0 01-.152-.33.878.878 0 01-.059-.397c.003-.018-.003-.037-.004-.06-.02-.015-.032-.03-.058-.04-.03-.016-.07-.024-.105-.036-.218-.08-.454-.13-.663-.232a.53.53 0 00-.253-.06c-.06 0-.12-.031-.19-.055-.105.029-.221.065-.346.102-.048.133-.063.287-.156.384a2.06 2.06 0 00-.212.098c-.21.103-.398.253-.592.384a.744.744 0 00-.176.156c-.023.034-.064.059-.1.088l-.363.264c-.047.038-.09.08-.144.099-.113.05-.19.136-.272.216-.02.017-.034.043-.055.06-.124.091-.216.212-.31.318-.124.146-.255.282-.37.428-.13.16-.252.328-.374.496-.076.1-.141.2-.212.304a1.21 1.21 0 00-.167.306.593.593 0 00-.183.264.931.931 0 01-.19.31 1.275 1.275 0 00-.26.468 3.024 3.024 0 00-.05.183c.025.074.093.107.156.144.114.067.232.14.347.199.208.111.433.201.678.228.243.028.477.095.708.15.106.025.215.066.327.056a.272.272 0 01.058.009c.109.04.218.048.33.061.077.01.143.029.191.078.008.042-.002.073-.028.094-.058.045-.081.112-.105.179-.022.08-.047.156-.08.253.002.046 0 .11.008.183-.042.097-.095.203-.14.309-.036.093-.079.19-.107.283-.064.21-.167.402-.257.6-.05.111-.12.215-.157.33-.047.157-.127.292-.187.442a1.418 1.418 0 01-.157.308c-.005.004-.007.013-.012.017-.06.182-.168.347-.245.52-.034.074-.069.15-.108.228a.477.477 0 01-.225.234c-.025.076-.064.146-.084.217a.393.393 0 01-.133.209.381.381 0 00-.115.155c-.067.164-.167.307-.258.45-.018.03-.035.052-.045.083a.823.823 0 01-.192.328.817.817 0 00-.13.213.687.687 0 01-.215.299c-.106.092-.179.205-.255.313-.03.048-.065.09-.104.138a1.386 1.386 0 00-.248.387.988.988 0 01-.28.39 2.45 2.45 0 00-.284.265.552.552 0 00-.151.294c-.12.119-.25.245-.365.369-.055.06-.107.133-.159.198a1.526 1.526 0 01-.303.328c-.13.104-.267.212-.337.371a.312.312 0 01-.111.128c-.153.098-.266.235-.382.359a4.708 4.708 0 00-.194.218.539.539 0 01-.066.068c-.127.109-.263.217-.39.326-.09.08-.175.155-.257.236-.097.093-.21.176-.315.259-.204.162-.393.344-.605.497l-.078.062c-.117.1-.239.206-.378.277-.08.04-.15.103-.226.156-.084.067-.162.152-.265.195-.014.003-.02.016-.031.024-.207.213-.472.352-.699.54a.615.615 0 01-.132.082c-.065.036-.125.068-.175.123-.022.026-.052.042-.078.063-.189.118-.38.23-.561.359-.093.066-.176.155-.273.248a2.262 2.262 0 00-.477.292c-.078.063-.177.11-.271.153a.597.597 0 00-.191.136.484.484 0 01-.105.083c-.275.148-.55.296-.81.464-.036.02-.07.03-.11.046-.157.07-.319.136-.468.238a1.329 1.329 0 01-.205.108c-.147.062-.3.128-.437.213-.065.036-.143.067-.212.098-.178.078-.355.156-.537.229-.117.046-.232.074-.353.115-.073.026-.144.043-.217.07a6.803 6.803 0 01-.945.284c-.305.069-.615.141-.925.213-.37.082-.739.145-1.119.194-.221.034-.445.053-.66.083-.273.034-.547.055-.821.075a6.811 6.811 0 01-.324.012c-.47.01-.937.025-1.407.036-.37.008-.737.008-1.1.004-.128 0-.254-.02-.378-.024a12.18 12.18 0 01-1.723-.157 15.145 15.145 0 01-2.072-.456c-.199-.056-.393-.107-.59-.172a29.453 29.453 0 01-.663-.232 9.645 9.645 0 01-.967-.41c-.403-.195-.81-.385-1.182-.627-.251-.164-.514-.312-.765-.467a9.868 9.868 0 01-1.123-.777c-.045-.036-.091-.062-.133-.092-.024-.02-.055-.027-.075-.052-.216-.207-.463-.367-.691-.557-.298-.246-.595-.5-.881-.764-.117-.104-.224-.217-.336-.326-.052-.054-.11-.095-.161-.149a2.397 2.397 0 01-.156-.152c-.02-.025-.039-.049-.063-.069a1.988 1.988 0 01-.343-.345c-.062-.077-.125-.146-.186-.223-.043-.054-.087-.098-.129-.151-.039-.049-.088-.089-.117-.137a2.087 2.087 0 00-.385-.43c-.04-.04-.076-.074-.11-.117a2.582 2.582 0 00-.374-.416.33.33 0 01-.101-.149.778.778 0 00-.109-.19c-.122-.164-.249-.324-.366-.492a3.02 3.02 0 01-.267-.476c-.037-.09-.093-.171-.146-.248-.113-.164-.231-.323-.348-.491-.04-.062-.078-.12-.078-.207.04-.088.127-.14.215-.18.104-.042.177-.132.276-.179.036-.02.06-.064.093-.098a.643.643 0 01.23-.206.479.479 0 00.174-.178.93.93 0 01.313-.273.992.992 0 01.3-.342c.09-.07.176-.155.242-.255a.496.496 0 01.152-.153.558.558 0 00.174-.178c.056-.092.127-.164.206-.235a.616.616 0 00.11-.11c.04-.057.056-.133.11-.184.05-.055.099-.102.135-.163.058-.077.133-.145.19-.222a1.11 1.11 0 01.242-.256c.019-.062.042-.12.062-.191.115-.123.227-.252.343-.384a.31.31 0 00.061-.096.848.848 0 01.254-.336c.084-.067.13-.16.185-.25.043-.066.085-.131.123-.201.025-.044.055-.092.062-.137.017-.076.059-.141.092-.207.037-.061.07-.127.107-.188.054-.083.102-.161.18-.278a2.38 2.38 0 00.038-.125c.061-.073.107-.133.159-.198.039-.165.15-.294.234-.447.006-.045.01-.095.011-.136.062-.104.124-.21.188-.323.05-.024.085-.075.113-.137.055-.124.11-.247.17-.366a.624.624 0 00.062-.31c.089-.102.147-.212.207-.33.074-.154.144-.313.214-.472a.8.8 0 00.061-.396c.029-.04.054-.083.087-.117a.439.439 0 00.116-.219c.015-.067.026-.14.04-.207.035-.161.069-.322.173-.46.023-.035.035-.084.046-.125.038-.124.07-.245.111-.365.075-.218.137-.44.139-.664.003-.018.001-.04.008-.054.053-.137.048-.284.088-.426a.416.416 0 00.018-.15c-.004-.09.018-.171.031-.261a.816.816 0 00.014-.24 1.145 1.145 0 01.016-.282c.044-.202.024-.4.008-.592 0-.032-.014-.06-.005-.092a.581.581 0 00-.06-.355c-.014-.028-.014-.06-.02-.088a4.717 4.717 0 01-.021-.576c.01-.19-.06-.364-.145-.526a1.57 1.57 0 00-.142-.21.464.464 0 01-.101-.214.856.856 0 00-.15-.348 1.942 1.942 0 00-.367-.42 3.41 3.41 0 00-.431-.305c-.233-.132-.471-.259-.697-.404a.748.748 0 00-.275-.098c-.272-.052-.552-.027-.817-.006-.117.046-.173.137-.223.224-.193.09-.35.12-.567.104a2.33 2.33 0 00-.731.36.404.404 0 01-.19.095.416.416 0 00-.227.133 1 1 0 01-.461.312 1.466 1.466 0 00-.37.159l-.128.15a.984.984 0 01-.29.12.315.315 0 00-.154.074c-.089.07-.18.128-.254.218-.011.017-.023.035-.043.042-.164.084-.249.246-.374.369l-.015.012c-.065.123-.179.206-.287.284-.01.008-.017.022-.052.064l-.019.127-.01.008c-.047.037-.09.07-.133.113-.048.047-.08.103-.132.145-.09.07-.14.158-.136.259-.036.052-.07.095-.11.142-.054.028-.104.051-.164.083-.02.04-.045.083-.066.132-.017.053-.04.11-.052.16a.412.412 0 01-.175.274c-.067.314-.276.567-.431.802-.055.21-.096.384-.15.563a.404.404 0 01-.072.135.489.489 0 00-.112.28.525.525 0 01-.12.3.361.361 0 00-.08.318.8.8 0 01-.016.313.362.362 0 01-.07.159.658.658 0 00-.128.355c-.016.162-.026.321-.078.481a.35.35 0 00-.006.219.488.488 0 01-.007.346c-.053.137-.044.288-.038.425.001.173.012.347-.01.523-.023.144-.045.289.003.424.015.052.01.11.012.165.006.137.018.27.001.41a.846.846 0 00.037.359c-.038.188 0 .364.033.535.029.144.043.29.1.427a.263.263 0 01.017.106c-.019.15.035.28.074.416a.426.426 0 00.033.084c.116.233.183.488.235.747.005.028.014.06.013.092-.009.118.027.217.047.328.047.23.169.427.266.635.046.09.081.188.122.282.038.08.08.166.113.25.02.047.045.1.06.15.054.219.168.405.252.607.051.118.123.22.188.333-.04.057-.027.085-.018.118zm.69-.508c-.072-.015-.104-.044-.12-.087-.028-.088-.047-.176-.075-.265-.024-.084-.043-.172-.087-.239a3 3 0 01-.26-.498c-.043-.108-.097-.208-.14-.316a3.561 3.561 0 01-.122-.346c-.044-.163-.111-.323-.126-.493-.006-.082-.044-.163-.068-.246-.012-.047-.046-.09-.049-.136-.013-.124-.05-.236-.078-.357-.032-.125-.054-.25-.08-.38-.014-.028-.06-.031-.04-.07a.204.204 0 00.014-.091c-.027-.152-.045-.304-.078-.453a2.347 2.347 0 01-.063-.551 2 2 0 00-.006-.17 12.258 12.258 0 01-.037-.444c-.015-.352.016-.71.025-1.065.006-.131.03-.261.046-.393.013-.144.012-.286.082-.413a6.8 6.8 0 01-.02-.325.829.829 0 01.085-.399c.02-.048.028-.093.04-.143l.073-.295c.014-.067.038-.134.053-.201.035-.139.066-.282.107-.425.063-.2.134-.4.201-.595a.556.556 0 01.056-.124c.087-.116.125-.25.173-.383a.719.719 0 01.07-.16c.146-.257.265-.526.433-.778.199-.308.377-.632.61-.92.124-.155.238-.324.4-.453.089-.07.155-.17.224-.266.017-.021.02-.062.026-.075.044-.02.09-.025.127-.055.072-.049.127-.109.196-.163.036-.029.065-.068.104-.083.154-.075.285-.179.425-.282a2.71 2.71 0 01.33-.208c.125-.06.237-.133.357-.197.171-.096.342-.193.512-.28.115-.06.238-.11.356-.165.397-.189.43-.2.906-.333.077-.021.16-.056.231-.096a.545.545 0 01.2-.072c.088-.007.18-.032.268-.039.317-.03.317-.03.575.089.012.005.02.015.032.03a.446.446 0 00.123.305c.03.039.047.081.068.128.06.15.09.317.158.468.049.104.097.207.054.336a.132.132 0 00.004.037c.012.133.033.267.04.404a.92.92 0 01-.003.223.924.924 0 00.028.422c.027.088.032.18.041.267-.027.062-.054.114-.075.163.004.091.01.174-.022.263a.151.151 0 00-.007.077c.015.083-.007.163-.023.24-.026.139-.06.268-.076.408a1.337 1.337 0 01-.093.367c-.021.049-.025.099-.037.148-.038.156-.058.323-.123.478a.723.723 0 00-.065.273.353.353 0 01-.037.148c-.09.262-.177.529-.224.803a.146.146 0 01-.01.04c-.052.065-.059.142-.088.213-.03.08-.056.155-.1.23a.87.87 0 00-.111.246c-.035.139-.1.261-.165.384-.09.175-.152.367-.27.531-.018.03-.029.07-.043.106-.083.24-.193.478-.327.696-.05.087-.086.171-.118.26-.042.12-.096.234-.176.338a.902.902 0 00-.114.2.885.885 0 01-.14.231c-.052.065-.096.14-.14.213-.045.093-.083.186-.125.283a.965.965 0 01-.169.26c-.027.03-.061.041-.093.066-.015.045-.026.085-.042.13a2.39 2.39 0 01-.102.096c-.134.273-.25.515-.47.69-.03.057-.048.11-.078.158-.048.07-.108.133-.156.202-.052.074-.088.158-.145.226-.073.09-.164.17-.241.256-.055.06-.115.123-.159.197-.127.228-.328.404-.48.612-.23.215-.432.455-.686.64a.549.549 0 00-.071.073c-.013.145-.097.243-.228.315-.024.012-.041.034-.066.046a.666.666 0 00-.17.183c-.068.108-.177.187-.277.275.028.025-.024.035-.06.055zm39.654-5.849l.022-.144c.028-.148.046-.297.082-.445.026-.107.048-.22.11-.325a.539.539 0 00.083-.271c0-.064.02-.135.032-.208.042-.279.144-.55.177-.83a.366.366 0 01.02-.07c.022-.081.052-.16.065-.242.03-.166.06-.333.121-.492.023-.058.032-.12.05-.174.078-.03.122.014.158.048.074.083.148.175.212.267.101.149.157.326.272.472a.11.11 0 01.02.047c.063.132.111.268.184.392.07.119.112.259.205.343.024.084.037.153.063.219.073.188.111.387.209.563.003.004.002.013.006.018.04.158.101.3.177.437.108.19.192.393.327.563.043.053.07.11.103.171.017.034.016.075-.02.104-.048.037-.101.024-.15.016-.33-.039-.66-.077-.988-.125-.104-.012-.204-.051-.31-.046-.018-.001-.035-.011-.053-.013-.22-.039-.438-.087-.662-.122-.166-.027-.321-.093-.48-.141-.011.017-.02.008-.035-.012zm-1.451-.277c-.073-.006-.124-.005-.169-.009-.16-.03-.322-.06-.474-.09-.12-.023-.24-.045-.365-.073a.568.568 0 01-.218-.08c-.068-.096-.03-.19.036-.266.146-.172.24-.365.369-.547.122-.168.202-.358.354-.51.175-.275.379-.524.592-.772.095-.116.2-.222.299-.333.038-.038.082-.09.159-.08a.26.26 0 01.048.2c-.027.117-.05.238-.078.354-.012.05-.028.094-.03.144a.853.853 0 01-.086.344c-.013.027-.018.063-.028.094-.043.193-.081.381-.12.57l-.027.093c-.03.135-.065.274-.095.408-.021.08-.034.162-.055.242-.039.102-.076.195-.112.31z" fill="#2B221F"/></svg>