<svg width="58" height="18" fill="none" xmlns="http://www.w3.org/2000/svg"><g clip-path="url(#clip0_656_120)"><path fill-rule="evenodd" clip-rule="evenodd" d="M51.435 5.764c-4.418 6.07-13.124 9.402-20.313 7.265-4.184-1.244-8.923-3.714-13.563-4.897-5.234-1.336-10.336-1.11-14.62 3.318-1.11 1.144-1.931 2.463-2.632 3.886a1.765 1.765 0 003.164 1.56c.539-1.092 1.152-2.116 2.002-2.993 3.274-3.384 7.214-3.373 11.215-2.353 4.595 1.172 9.284 3.628 13.429 4.86 8.186 2.433 18.037-1.057 23.48-7.685-.044 2.424.1 4.754.824 7.165a1.765 1.765 0 003.379-1.017c-.838-2.784-.734-5.449-.593-8.338.071-1.442.472-3.387.156-4.8a1.82 1.82 0 00-.774-1.162 1.834 1.834 0 00-1.034-.33 2.093 2.093 0 00-1.037.271c-.197.11-.648.457-.772.554-.667.287-1.351.544-2.026.81-2.206.865-4.433 1.625-6.56 2.68a1.765 1.765 0 001.568 3.16c1.53-.759 3.117-1.354 4.707-1.954z" fill="#FFFCF4"/></g><defs><clipPath id="clip0_656_120"><path fill="#fff" d="M0 0h58v18H0z"/></clipPath></defs></svg>