<svg width="180" height="54" fill="none" xmlns="http://www.w3.org/2000/svg"><path d="M178.806 47.037a5.108 5.108 0 01-5.115 5.108H6.309a5.117 5.117 0 01-5.122-5.108V6.302A5.12 5.12 0 016.31 1.187h167.38a5.118 5.118 0 014.726 3.158 5.11 5.11 0 01.389 1.957l.001 40.735z" fill="#fff"/><path d="M173.691 53.333H6.309A6.311 6.311 0 010 47.037V6.303A6.312 6.312 0 016.309 0H173.69a6.316 6.316 0 016.309 6.303v40.734c.002 3.473-2.833 6.296-6.308 6.296z" fill="#A6A6A6"/><path d="M178.806 47.037a5.108 5.108 0 01-5.115 5.108H6.309a5.117 5.117 0 01-5.122-5.108V6.302A5.12 5.12 0 016.31 1.187h167.38a5.118 5.118 0 014.726 3.158 5.11 5.11 0 01.389 1.957l.001 40.735z" fill="#000"/><path d="M40.193 26.386c-.04-4.298 3.52-6.39 3.683-6.487-2.016-2.938-5.14-3.34-6.238-3.372-2.624-.276-5.17 1.57-6.506 1.57-1.364 0-3.422-1.543-5.64-1.498-2.856.044-5.527 1.697-6.991 4.263-3.023 5.232-.769 12.92 2.128 17.15 1.448 2.072 3.141 4.384 5.357 4.303 2.168-.089 2.978-1.38 5.594-1.38 2.592 0 3.352 1.38 5.612 1.328 2.327-.037 3.792-2.081 5.19-4.171 1.674-2.373 2.346-4.712 2.373-4.832-.053-.019-4.517-1.723-4.563-6.874zm-4.27-12.64c1.166-1.459 1.964-3.442 1.743-5.454-1.688.074-3.798 1.167-5.014 2.592-1.075 1.257-2.035 3.316-1.787 5.253 1.896.141 3.842-.957 5.058-2.392z" fill="#fff"/><path d="M173.691 0H84.036l35.116 53.333h54.539a6.313 6.313 0 006.309-6.3V6.303A6.316 6.316 0 00173.691 0z" fill="url(#paint0_linear_1485_91)"/><path d="M71.592 42.017h-3.03l-1.66-5.213h-5.767l-1.581 5.213h-2.95l5.716-17.749h3.53l5.742 17.749zm-5.19-7.4l-1.5-4.635c-.159-.474-.458-1.589-.895-3.344h-.054c-.176.755-.457 1.87-.843 3.344l-1.475 4.634h4.768zm19.862.844c0 2.176-.59 3.897-1.774 5.16-1.06 1.124-2.376 1.685-3.946 1.685-1.696 0-2.915-.604-3.656-1.815v6.715h-2.844v-13.78c0-1.368-.036-2.77-.105-4.207h2.501l.159 2.028h.053c.949-1.528 2.388-2.292 4.32-2.292 1.51 0 2.77.596 3.78 1.79 1.006 1.196 1.512 2.767 1.512 4.716zm-2.897.104c0-1.246-.28-2.273-.844-3.083-.615-.841-1.44-1.263-2.476-1.263-.701 0-1.339.235-1.909.698-.57.467-.944 1.076-1.119 1.831a3.711 3.711 0 00-.132.866v2.135c0 .93.285 1.715.856 2.358.571.64 1.313.962 2.226.962 1.07 0 1.905-.415 2.501-1.238.598-.826.897-1.914.897-3.266zm17.621-.104c0 2.176-.591 3.897-1.774 5.16-1.06 1.124-2.376 1.685-3.948 1.685-1.695 0-2.915-.604-3.655-1.815v6.715h-2.844v-13.78c0-1.368-.036-2.77-.106-4.207h2.502l.158 2.028h.054c.947-1.528 2.386-2.292 4.32-2.292 1.508 0 2.769.596 3.78 1.79 1.006 1.196 1.513 2.767 1.513 4.716zm-2.899.104c0-1.246-.281-2.273-.844-3.083-.615-.841-1.439-1.263-2.474-1.263-.701 0-1.34.235-1.911.698-.571.467-.944 1.076-1.118 1.831-.087.352-.134.639-.134.866v2.135c0 .93.287 1.715.855 2.358.571.639 1.313.962 2.228.962 1.073 0 1.907-.415 2.502-1.238.597-.826.896-1.914.896-3.266zm19.361 1.473c0 1.511-.528 2.74-1.578 3.688-1.155 1.035-2.768 1.554-4.836 1.554-1.91 0-3.442-.368-4.597-1.106l.658-2.37c1.247.739 2.617 1.107 4.109 1.107 1.072 0 1.906-.243 2.501-.724.596-.483.898-1.128.898-1.934 0-.721-.25-1.326-.739-1.818-.493-.49-1.306-.948-2.45-1.368-3.108-1.16-4.664-2.854-4.664-5.084 0-1.457.55-2.649 1.647-3.581 1.096-.931 2.55-1.397 4.359-1.397 1.616 0 2.962.282 4.031.843l-.714 2.318c-1.006-.544-2.141-.816-3.411-.816-1.004 0-1.791.247-2.354.738-.473.438-.713.973-.713 1.608 0 .7.273 1.282.817 1.738.473.42 1.334.877 2.58 1.368 1.529.616 2.653 1.334 3.372 2.158.724.824 1.084 1.853 1.084 3.078zm9.428-5.685h-3.135v6.213c0 1.58.552 2.37 1.66 2.37.508 0 .929-.044 1.263-.133l.079 2.16c-.561.209-1.298.314-2.212.314-1.124 0-2.001-.343-2.635-1.028-.631-.686-.949-1.834-.949-3.45v-6.452h-1.867v-2.134h1.867V26.87l2.794-.843v3.186h3.135v2.14zm14.117 4.16c0 1.967-.563 3.582-1.686 4.845-1.176 1.3-2.739 1.948-4.688 1.948-1.881 0-3.377-.622-4.492-1.867-1.115-1.247-1.673-2.818-1.673-4.713 0-1.983.577-3.608 1.725-4.87 1.151-1.265 2.702-1.897 4.651-1.897 1.878 0 3.387.624 4.529 1.87 1.091 1.208 1.634 2.768 1.634 4.684zm-2.948.065c0-1.172-.254-2.178-.762-3.02-.596-1.016-1.45-1.524-2.556-1.524-1.139 0-2.013.508-2.608 1.524-.51.842-.763 1.865-.763 3.073 0 1.174.253 2.182.763 3.021.615 1.016 1.473 1.524 2.584 1.524 1.087 0 1.94-.518 2.556-1.55.523-.86.786-1.873.786-3.048zm12.197-3.859a4.958 4.958 0 00-.897-.078c-1 0-1.774.376-2.318 1.134-.472.666-.71 1.51-.71 2.527v6.715h-2.844v-8.768a88.745 88.745 0 00-.083-4.029h2.478l.104 2.449h.078c.302-.842.774-1.52 1.422-2.029a3.442 3.442 0 012.056-.685c.263 0 .501.018.711.052l.003 2.712zm12.72 3.293c.007.433-.027.865-.104 1.29h-8.532c.032 1.264.445 2.233 1.238 2.9.719.594 1.648.893 2.79.893 1.264 0 2.416-.2 3.453-.604l.445 1.973c-1.211.528-2.641.79-4.291.79-1.985 0-3.543-.584-4.677-1.75-1.132-1.166-1.699-2.735-1.699-4.7 0-1.928.527-3.535 1.583-4.817 1.104-1.368 2.597-2.052 4.475-2.052 1.845 0 3.242.684 4.191 2.052.751 1.085 1.128 2.429 1.128 4.025zm-2.712-.737c.02-.844-.167-1.571-.552-2.186-.493-.792-1.25-1.187-2.265-1.187-.93 0-1.688.385-2.264 1.159-.474.615-.755 1.354-.842 2.211l5.923.003zM60.314 17.993a18.24 18.24 0 01-2.045-.104V9.308a15.487 15.487 0 012.408-.181c3.261 0 4.764 1.604 4.764 4.22 0 3.016-1.775 4.646-5.127 4.646zm.477-7.766c-.44 0-.815.027-1.125.09v6.524c.168.026.49.038.944.038 2.137 0 3.354-1.216 3.354-3.494 0-2.031-1.1-3.158-3.172-3.158zm9.33 7.831c-1.837 0-3.029-1.372-3.029-3.235 0-1.942 1.217-3.327 3.134-3.327 1.812 0 3.03 1.307 3.03 3.224 0 1.966-1.256 3.338-3.134 3.338zm.054-5.54c-1.01 0-1.657.944-1.657 2.265 0 1.295.66 2.239 1.644 2.239.983 0 1.643-1.01 1.643-2.266 0-1.28-.647-2.238-1.63-2.238zm13.564-.892l-1.968 6.29h-1.282l-.815-2.732a20.706 20.706 0 01-.506-2.031h-.027c-.102.685-.297 1.372-.504 2.031l-.867 2.732h-1.295l-1.852-6.29h1.437l.712 2.99c.168.712.31 1.384.427 2.02h.027c.102-.53.27-1.192.517-2.007l.894-3.002h1.14l.855 2.938c.206.713.374 1.411.505 2.072h.037c.091-.647.234-1.334.427-2.072l.765-2.938 1.373-.001zm7.243 6.29h-1.398v-3.612c0-1.112-.427-1.67-1.268-1.67-.829 0-1.398.712-1.398 1.54v3.742h-1.399v-4.492c0-.556-.013-1.153-.052-1.8h1.23l.066.971h.039c.376-.672 1.139-1.099 1.994-1.099 1.32 0 2.188 1.01 2.188 2.653l-.001 3.767zm3.856 0h-1.4V8.74h1.4v9.176zm5.097.142c-1.837 0-3.03-1.372-3.03-3.235 0-1.942 1.217-3.327 3.133-3.327 1.813 0 3.03 1.307 3.03 3.224.001 1.966-1.256 3.338-3.133 3.338zm.052-5.54c-1.01 0-1.656.944-1.656 2.265 0 1.295.661 2.239 1.642 2.239.984 0 1.643-1.01 1.643-2.266.002-1.28-.644-2.238-1.629-2.238zm8.593 5.398l-.101-.725h-.038c-.427.583-1.05.867-1.839.867-1.128 0-1.928-.79-1.928-1.85 0-1.553 1.346-2.356 3.677-2.356v-.116c0-.828-.439-1.243-1.307-1.243-.62 0-1.164.156-1.643.467l-.284-.92c.581-.362 1.307-.543 2.16-.543 1.643 0 2.473.866 2.473 2.602v2.316c0 .635.028 1.127.091 1.502l-1.261-.001zm-.192-3.133c-1.553 0-2.332.376-2.332 1.268 0 .66.402.983.959.983.711 0 1.373-.543 1.373-1.28v-.971zm8.151 3.133l-.065-1.01h-.039c-.402.763-1.077 1.152-2.02 1.152-1.517 0-2.64-1.333-2.64-3.21 0-1.967 1.165-3.353 2.755-3.353.842 0 1.438.284 1.774.855h.028V8.74h1.4v7.48c0 .609.014 1.178.052 1.696h-1.245zm-.207-3.701c0-.88-.583-1.631-1.473-1.631-1.036 0-1.67.918-1.67 2.212 0 1.268.658 2.137 1.642 2.137.88 0 1.501-.764 1.501-1.67v-1.048zm10.272 3.843c-1.837 0-3.028-1.372-3.028-3.235 0-1.942 1.217-3.327 3.132-3.327 1.813 0 3.03 1.307 3.03 3.224.001 1.966-1.254 3.338-3.134 3.338zm.052-5.54c-1.008 0-1.655.944-1.655 2.265 0 1.295.66 2.239 1.642 2.239.985 0 1.644-1.01 1.644-2.266.002-1.28-.645-2.238-1.631-2.238zm10.601 5.398h-1.4v-3.612c0-1.112-.426-1.67-1.268-1.67-.829 0-1.397.712-1.397 1.54v3.742h-1.399v-4.492c0-.556-.014-1.153-.052-1.8h1.23l.065.971h.039c.374-.672 1.139-1.1 1.993-1.1 1.32 0 2.189 1.01 2.189 2.653v3.768zm9.406-5.242h-1.538v3.054c0 .778.27 1.166.814 1.166.247 0 .453-.027.62-.065l.039 1.061c-.271.104-.634.156-1.085.156-1.102 0-1.761-.608-1.761-2.2v-3.172h-.917v-1.048h.917v-1.152l1.373-.415v1.566h1.538v1.05zm7.402 5.242h-1.397V14.33c0-1.126-.426-1.695-1.269-1.695-.724 0-1.399.492-1.399 1.488v3.792h-1.397V8.74H150v3.778h.028c.44-.685 1.078-1.023 1.891-1.023 1.332 0 2.146 1.035 2.146 2.68v3.74zm7.582-2.81h-4.195c.026 1.192.815 1.864 1.982 1.864a4.74 4.74 0 001.696-.297l.217.97c-.595.26-1.295.389-2.11.389-1.968 0-3.133-1.243-3.133-3.17 0-1.93 1.193-3.379 2.975-3.379 1.608 0 2.616 1.191 2.616 2.99.009.213-.007.425-.048.634zm-1.282-.995c0-.971-.489-1.657-1.383-1.657-.803 0-1.438.699-1.529 1.657h2.912z" fill="#fff"/><defs><linearGradient id="paint0_linear_1485_91" x1="132.017" y1="53.475" x2="132.017" y2="-138.871" gradientUnits="userSpaceOnUse"><stop stop-color="#1A1A1A" stop-opacity=".1"/><stop offset=".123" stop-color="#212121" stop-opacity=".151"/><stop offset=".308" stop-color="#353535" stop-opacity=".227"/><stop offset=".532" stop-color="#575757" stop-opacity=".318"/><stop offset=".783" stop-color="#858585" stop-opacity=".421"/><stop offset="1" stop-color="#B3B3B3" stop-opacity=".51"/></linearGradient></defs></svg>