<svg width="181" height="54" fill="none" xmlns="http://www.w3.org/2000/svg"><path d="M174.293 53.294H6.707c-3.687 0-6.704-2.997-6.704-6.661V6.663C.003 2.999 3.02 0 6.707 0h167.586c3.687 0 6.703 2.998 6.703 6.662v39.97c0 3.664-3.016 6.661-6.703 6.661z" fill="#100F0D"/><path d="M174.293.001H6.707C3.02.001.003 2.999.003 6.663v39.97c0 3.664 3.017 6.661 6.704 6.661h167.586c3.687 0 6.703-2.997 6.703-6.661V6.663c0-3.664-3.016-6.662-6.703-6.662zm0 1.065c3.105 0 5.631 2.511 5.631 5.597v39.97c0 3.085-2.526 5.596-5.631 5.596H6.707c-3.105 0-5.63-2.51-5.63-5.596V6.663c0-3.086 2.525-5.597 5.63-5.597h167.586z" fill="#A2A2A1"/><path d="M143.372 39.971h2.502V23.314h-2.502v16.657zm22.534-10.656l-2.868 7.221h-.086l-2.976-7.221h-2.695l4.464 10.093-2.546 5.614h2.609l6.88-15.707h-2.782zm-14.189 8.764c-.818 0-1.961-.407-1.961-1.414 0-1.286 1.424-1.779 2.652-1.779 1.099 0 1.618.235 2.286.557a3.028 3.028 0 01-2.977 2.636zm.303-9.128c-1.811 0-3.687.793-4.463 2.55l2.22.921c.475-.921 1.358-1.22 2.286-1.22 1.294 0 2.609.77 2.63 2.142v.17c-.453-.256-1.423-.642-2.609-.642-2.394 0-4.83 1.307-4.83 3.75 0 2.228 1.963 3.664 4.161 3.664 1.682 0 2.611-.75 3.191-1.629h.087v1.287h2.416v-6.387c0-2.957-2.222-4.606-5.089-4.606zm-15.461 2.392H133v-5.71h3.559c1.87 0 2.932 1.539 2.932 2.855 0 1.29-1.062 2.855-2.932 2.855zm-.065-8.028H130.5v16.657h2.501v-6.31h3.493c2.773 0 5.499-1.995 5.499-5.174 0-3.177-2.726-5.173-5.499-5.173zm-32.687 14.767c-1.729 0-3.175-1.439-3.175-3.413 0-1.996 1.446-3.455 3.175-3.455 1.706 0 3.045 1.459 3.045 3.455 0 1.974-1.339 3.413-3.045 3.413zm2.872-7.835h-.086c-.562-.665-1.642-1.266-3.002-1.266-2.852 0-5.465 2.49-5.465 5.688 0 3.177 2.613 5.645 5.465 5.645 1.36 0 2.44-.601 3.002-1.287h.086v.815c0 2.168-1.166 3.327-3.045 3.327-1.533 0-2.484-1.095-2.873-2.018l-2.18.902c.625 1.502 2.288 3.348 5.053 3.348 2.938 0 5.422-1.717 5.422-5.903V29.324h-2.377v.923zm4.105 9.724h2.505V23.314h-2.505V39.97zm6.198-5.495c-.064-2.19 1.708-3.305 2.981-3.305.994 0 1.836.493 2.118 1.201l-5.099 2.104zm7.776-1.89c-.475-1.265-1.922-3.605-4.881-3.605-2.938 0-5.379 2.297-5.379 5.667 0 3.176 2.42 5.666 5.659 5.666 2.614 0 4.126-1.588 4.753-2.51l-1.944-1.289c-.648.945-1.534 1.567-2.809 1.567-1.273 0-2.181-.58-2.763-1.717l7.623-3.134-.259-.644zM64.013 30.72v2.404h5.789c-.173 1.352-.627 2.34-1.318 3.026-.842.837-2.16 1.76-4.47 1.76-3.565 0-6.35-2.854-6.35-6.396s2.785-6.397 6.35-6.397c1.922 0 3.325.752 4.362 1.718l1.707-1.696c-1.448-1.374-3.37-2.426-6.07-2.426-4.882 0-8.986 3.95-8.986 8.801 0 4.85 4.104 8.8 8.986 8.8 2.635 0 4.622-.858 6.177-2.468 1.599-1.589 2.096-3.82 2.096-5.624 0-.558-.044-1.073-.13-1.502h-8.143zm14.855 7.362c-1.729 0-3.22-1.417-3.22-3.434 0-2.04 1.491-3.434 3.22-3.434 1.727 0 3.218 1.395 3.218 3.434 0 2.017-1.49 3.434-3.218 3.434zm0-9.101c-3.155 0-5.725 2.382-5.725 5.667 0 3.262 2.57 5.666 5.725 5.666 3.153 0 5.723-2.404 5.723-5.666 0-3.285-2.57-5.667-5.723-5.667zm12.485 9.101c-1.727 0-3.218-1.417-3.218-3.434 0-2.04 1.491-3.434 3.218-3.434 1.729 0 3.219 1.395 3.219 3.434 0 2.017-1.49 3.434-3.219 3.434zm0-9.101c-3.153 0-5.723 2.382-5.723 5.667 0 3.262 2.57 5.666 5.723 5.666 3.155 0 5.725-2.404 5.725-5.666 0-3.285-2.57-5.667-5.725-5.667z" fill="#fff"/><path d="M27.776 25.88L13.503 40.935l.002.01a3.85 3.85 0 003.723 2.838 3.86 3.86 0 001.956-.528l.046-.026 16.067-9.214-7.521-8.135z" fill="#EB3131"/><path d="M42.216 23.317l-.013-.01-6.937-3.995-7.815 6.91 7.842 7.792 6.9-3.956a3.83 3.83 0 002.031-3.378c0-1.45-.81-2.712-2.008-3.363z" fill="#F6B60B"/><path d="M13.5 12.361c-.085.314-.13.644-.13.986V39.95c0 .341.044.672.131.985l14.766-14.67L13.5 12.36z" fill="#5778C5"/><path d="M27.88 26.649l7.39-7.34-16.05-9.247a3.883 3.883 0 00-1.992-.547 3.854 3.854 0 00-3.726 2.842v.004L27.88 26.65z" fill="#3BAD49"/><path d="M63.544 13.033h-3.911v.961h2.93c-.079.785-.393 1.401-.923 1.849-.53.448-1.207.672-2.007.672-.878 0-1.621-.303-2.23-.907-.598-.616-.902-1.378-.902-2.296 0-.918.304-1.68.901-2.297.61-.603 1.353-.905 2.231-.905.45 0 .88.077 1.274.245.394.17.71.404.957.706l.744-.739a3.374 3.374 0 00-1.295-.885 4.445 4.445 0 00-1.68-.314c-1.171 0-2.164.404-2.975 1.21-.81.807-1.217 1.802-1.217 2.979 0 1.176.406 2.173 1.217 2.979.811.805 1.804 1.21 2.975 1.21 1.23 0 2.21-.392 2.964-1.188.664-.661 1.004-1.557 1.004-2.676 0-.19-.023-.392-.057-.604zm1.515-3.731v8.02h4.712v-.986h-3.675v-2.543h3.314v-.962h-3.314v-2.542h3.674v-.987h-4.71zm11.318.987v-.987h-5.545v.987h2.254v7.032h1.037V10.29h2.254zm5.02-.987H80.36v8.02h1.037v-8.02zm6.844.987v-.987h-5.545v.987h2.254v7.032h1.037V10.29h2.255zm10.464.056c-.8-.818-1.78-1.222-2.951-1.222-1.174 0-2.154.404-2.954 1.21-.8.795-1.194 1.792-1.194 2.979 0 1.186.394 2.183 1.194 2.979.8.805 1.78 1.21 2.954 1.21 1.16 0 2.151-.405 2.951-1.21.8-.796 1.194-1.793 1.194-2.98 0-1.176-.394-2.17-1.194-2.966zm-5.161.67c.597-.603 1.33-.905 2.21-.905.877 0 1.61.302 2.197.905.597.594.89 1.368.89 2.296 0 .931-.293 1.703-.89 2.297-.586.603-1.32.907-2.197.907-.88 0-1.613-.304-2.21-.907-.585-.606-.878-1.366-.878-2.296 0-.929.293-1.69.878-2.297zm8.819 1.312l-.044-1.547h.044l4.102 6.541h1.083v-8.02h-1.037v4.693l.044 1.547h-.044l-3.922-6.24h-1.263v8.02h1.037v-4.994z" fill="#fff" stroke="#fff" stroke-width=".267" stroke-miterlimit="10"/></svg>