<svg width="89" height="8" fill="none" xmlns="http://www.w3.org/2000/svg"><path d="M47.978 3.982h39.915" stroke="#639533" stroke-width="1.359" stroke-miterlimit="10" stroke-linecap="round" stroke-linejoin="round"/><path d="M50.112 3.982l4.86 2.338m3.004-2.338l4.822 2.338m4.11-2.338l4.861 2.338" stroke="#639533" stroke-width="1.221" stroke-miterlimit="10" stroke-linecap="round" stroke-linejoin="round"/><path d="M55.882 7.927c-.237 0-.474-.073-.712-.22-.395-.255-.75-.62-.948-1.022-.119-.22-.198-.511-.04-.694.198-.22.554-.22.83-.11.356.11.712.33.988.585.317.255.554.657.475 1.06 0 .072-.04.145-.08.218-.118.183-.395.22-.592.183m8.417-.183c-.474.183-1.066.073-1.501-.182a2.03 2.03 0 01-.83-1.206c-.04-.182-.04-.402.079-.511.119-.11.316-.146.474-.146.79-.037 1.581.401 1.937 1.022.118.183.197.402.158.585-.04.22-.158.402-.395.438m8.773 0a1.192 1.192 0 01-.711-.146 2.861 2.861 0 01-1.067-.95c-.158-.219-.237-.474-.119-.694.158-.255.553-.255.83-.182.395.073.75.255 1.028.475.316.255.632.62.553.986 0 .073-.04.146-.08.22-.118.182-.355.255-.592.255" fill="#639533"/><path d="M50.665 3.982l4.822-2.375m3.003 2.375l4.861-2.375m4.111 2.375l4.821-2.375" stroke="#639533" stroke-width="1.221" stroke-miterlimit="10" stroke-linecap="round" stroke-linejoin="round"/><path d="M56.395 0c-.237 0-.474.073-.71.22-.396.255-.752.62-.95 1.022-.118.22-.197.511-.039.694.198.22.553.22.83.11.356-.11.711-.33.988-.585.316-.255.553-.657.474-1.06 0-.072-.04-.145-.079-.218-.118-.183-.395-.22-.593-.183m8.458.183C64.26 0 63.707.11 63.272.365a2.03 2.03 0 00-.83 1.206c-.04.183-.04.402.08.511.118.11.315.146.474.146.79.037 1.58-.401 1.936-1.022.118-.183.198-.402.158-.585-.04-.22-.158-.402-.395-.438m8.735 0a1.192 1.192 0 00-.712.146 2.86 2.86 0 00-1.067.95c-.158.219-.237.474-.119.694.158.219.553.255.87.182.395-.073.75-.256 1.027-.475.316-.255.632-.62.553-.986a.493.493 0 00-.079-.22C73.785.293 73.548.22 73.31.22" fill="#639533"/><path d="M43.512 3.982c0-.585.514-1.023 1.106-1.023.593 0 1.107.475 1.107 1.023 0 .548-.514 1.023-1.107 1.023-.592 0-1.106-.439-1.106-1.023z" fill="#50413C"/><path d="M75.919 3.982l4.86 2.338" stroke="#639533" stroke-width="1.221" stroke-miterlimit="10" stroke-linecap="round" stroke-linejoin="round"/><path d="M81.926 7.744a1.192 1.192 0 01-.712-.146 2.862 2.862 0 01-1.067-.95c-.158-.219-.237-.474-.118-.694.158-.255.553-.255.83-.182.395.073.75.255 1.027.475.317.255.633.62.554.986 0 .073-.04.146-.08.22-.118.182-.355.255-.592.255" fill="#639533"/><path d="M76.472 3.982l4.822-2.375" stroke="#639533" stroke-width="1.221" stroke-miterlimit="10" stroke-linecap="round" stroke-linejoin="round"/><path d="M82.48.183a1.192 1.192 0 00-.712.146 2.86 2.86 0 00-1.067.95c-.158.219-.237.474-.119.694.158.219.514.255.83.182.395-.073.75-.256 1.028-.475.316-.255.632-.62.553-.986a.493.493 0 00-.08-.22c-.118-.182-.355-.255-.592-.255m4.466 3.763c0-.585.514-1.023 1.106-1.023.593 0 1.107.475 1.107 1.023 0 .584-.514 1.023-1.107 1.023-.592 0-1.106-.439-1.106-1.023z" fill="#639533"/><path d="M41.022 4.055H1.107" stroke="#639533" stroke-width="1.359" stroke-miterlimit="10" stroke-linecap="round" stroke-linejoin="round"/><path d="M38.888 4.018l-4.86 2.375m-3.005-2.375l-4.86 2.375m-4.071-2.375L17.23 6.393" stroke="#639533" stroke-width="1.221" stroke-miterlimit="10" stroke-linecap="round" stroke-linejoin="round"/><path d="M33.118 8c.237 0 .474-.073.712-.22.395-.255.75-.62.948-1.022.119-.22.198-.511.04-.694-.198-.22-.554-.22-.83-.11-.356.11-.712.33-.989.585-.316.255-.553.657-.474 1.06 0 .072.04.145.08.218.118.183.395.22.592.183m-8.417-.183c.474.183 1.066.073 1.501-.182.435-.256.712-.73.83-1.206.04-.182.04-.402-.079-.511-.119-.11-.316-.146-.474-.146-.79-.037-1.581.401-1.937 1.022-.118.183-.197.402-.158.585.04.22.158.402.395.438m-8.773 0c.237.037.514-.036.711-.146a2.86 2.86 0 001.067-.95c.158-.219.237-.474.119-.694-.158-.255-.554-.255-.83-.182a2.369 2.369 0 00-1.028.475c-.316.255-.632.62-.553.986 0 .073.04.146.079.22.119.182.356.255.593.255" fill="#639533"/><path d="M38.335 4.018L33.513 1.68M30.51 4.018L25.649 1.68m-4.11 2.338L16.717 1.68" stroke="#639533" stroke-width="1.221" stroke-miterlimit="10" stroke-linecap="round" stroke-linejoin="round"/><path d="M32.565.073c.237 0 .474.073.711.22.395.255.751.62.949 1.022.118.22.197.511.04.694-.198.22-.554.22-.83.11a2.677 2.677 0 01-.989-.585c-.316-.255-.553-.657-.474-1.06 0-.072.04-.145.08-.218.118-.183.394-.22.592-.183m-8.418.183c.474-.183 1.067-.073 1.502.182.434.256.711.731.83 1.206.04.183.04.402-.08.511-.118.11-.316.146-.474.146-.79.037-1.58-.401-1.936-1.022-.119-.183-.198-.402-.158-.585.04-.22.158-.402.395-.438m-8.774 0c.237-.037.514.036.712.146.434.22.79.548 1.067.95.158.219.237.475.118.694-.158.256-.553.256-.83.182a2.374 2.374 0 01-1.027-.474c-.316-.256-.633-.621-.553-.987 0-.073.039-.146.079-.219.118-.183.355-.256.592-.256" fill="#639533"/><path d="M13.042 4.018L8.22 6.393" stroke="#639533" stroke-width="1.221" stroke-miterlimit="10" stroke-linecap="round" stroke-linejoin="round"/><path d="M7.035 7.817c.237.037.513-.036.711-.146a2.86 2.86 0 001.067-.95c.158-.219.237-.474.119-.694-.158-.255-.554-.255-.83-.182a2.369 2.369 0 00-1.028.475c-.316.255-.632.62-.553.986 0 .073.04.146.079.22.119.182.356.255.593.255" fill="#639533"/><path d="M12.528 4.018L7.668 1.68" stroke="#639533" stroke-width="1.221" stroke-miterlimit="10" stroke-linecap="round" stroke-linejoin="round"/><path d="M6.52.256c.238-.037.515.036.712.146.435.22.79.548 1.067.95.158.219.237.475.119.694-.158.256-.554.256-.83.182a2.374 2.374 0 01-1.028-.474c-.316-.256-.632-.621-.553-.987 0-.073.04-.146.08-.219.118-.183.355-.256.592-.256M2.213 4.055c0-.585-.514-1.023-1.106-1.023C.474 3.032 0 3.507 0 4.055c0 .584.514 1.023 1.107 1.023.592 0 1.106-.439 1.106-1.023z" fill="#639533"/></svg>